OpenSans-Bold.ufo
<glyph name="percent" format="2">
	<unicode hex="0025"/>
	<advance width="1897"/>
	<outline>
		<contour>
			<point x="409" y="1483" type="curve" smooth="yes"/>
			<point x="178.429" y="1483"/>
			<point x="49" y="1317"/>
			<point x="49" y="1026" type="curve" smooth="yes"/>
			<point x="49" y="735"/>
			<point x="190.714" y="565"/>
			<point x="408.429" y="565" type="curve" smooth="yes"/>
			<point x="645.286" y="565"/>
			<point x="775.429" y="734.143"/>
			<point x="775.429" y="1026" type="curve" smooth="yes"/>
			<point x="775.429" y="1316.14"/>
			<point x="632.286" y="1483"/>
		</contour>
		<contour>
			<point x="412.429" y="1266.57" type="curve" smooth="yes"/>
			<point x="483.571" y="1266.57"/>
			<point x="508.714" y="1174"/>
			<point x="508.714" y="1022.57" type="curve" smooth="yes"/>
			<point x="508.714" y="870.571"/>
			<point x="482.429" y="778"/>
			<point x="411.857" y="778" type="curve" smooth="yes"/>
			<point x="341.714" y="778"/>
			<point x="314.857" y="871.714"/>
			<point x="314.857" y="1022.57" type="curve" smooth="yes"/>
			<point x="314.857" y="1175.43"/>
			<point x="342.286" y="1266.57"/>
		</contour>
		<contour>
			<point x="1481" y="1462" type="line"/>
			<point x="1218.29" y="1462" type="line"/>
			<point x="407.286" y="0" type="line"/>
			<point x="670" y="0" type="line"/>
		</contour>
		<contour>
			<point x="1479.57" y="900.429" type="curve" smooth="yes"/>
			<point x="1249" y="900.429"/>
			<point x="1119.43" y="734.429"/>
			<point x="1119.43" y="443.429" type="curve" smooth="yes"/>
			<point x="1119.43" y="153.286"/>
			<point x="1261.14" y="-16.5714"/>
			<point x="1479" y="-16.5714" type="curve" smooth="yes"/>
			<point x="1715.86" y="-16.5714"/>
			<point x="1845.86" y="152.429"/>
			<point x="1845.86" y="443.429" type="curve" smooth="yes"/>
			<point x="1845.86" y="733.571"/>
			<point x="1702.71" y="900.429"/>
		</contour>
		<contour>
			<point x="1483" y="684" type="curve" smooth="yes"/>
			<point x="1554" y="684"/>
			<point x="1580" y="595.714"/>
			<point x="1580" y="440" type="curve" smooth="yes"/>
			<point x="1580" y="288"/>
			<point x="1552.86" y="195.571"/>
			<point x="1482.43" y="195.571" type="curve" smooth="yes"/>
			<point x="1412.14" y="195.571"/>
			<point x="1385.29" y="289.143"/>
			<point x="1385.29" y="440" type="curve" smooth="yes"/>
			<point x="1385.29" y="593"/>
			<point x="1412.71" y="684"/>
		</contour>
	</outline>
</glyph>
<glyph name="parenleft" format="2">
	<unicode hex="0028"/>
	<advance width="705"/>
	<outline>
		<contour>
			<point x="75.7143" y="579" type="curve" smooth="yes"/>
			<point x="75.7143" y="245"/>
			<point x="154.143" y="-85.4286"/>
			<point x="358.143" y="-324" type="curve"/>
			<point x="645.571" y="-324" type="line"/>
			<point x="460" y="-74.8571"/>
			<point x="378.429" y="259.857"/>
			<point x="378.429" y="581" type="curve" smooth="yes"/>
			<point x="378.429" y="907"/>
			<point x="459.429" y="1243.29"/>
			<point x="647.286" y="1497.14" type="curve"/>
			<point x="358.143" y="1497.14" type="line"/>
			<point x="154.143" y="1253"/>
			<point x="75.7143" y="916.286"/>
		</contour>
	</outline>
</glyph>
<glyph name="plus" format="2">
	<unicode hex="002B"/>
	<advance width="1195"/>
	<outline>
		<contour>
			<point x="715.143" y="840.571" type="line"/>
			<point x="715.143" y="1218.86" type="line"/>
			<point x="478.429" y="1218.86" type="line"/>
			<point x="478.429" y="840.571" type="line"/>
			<point x="95" y="840.571" type="line"/>
			<point x="95" y="603.714" type="line"/>
			<point x="478.429" y="603.714" type="line"/>
			<point x="478.429" y="230.571" type="line"/>
			<point x="715.143" y="230.571" type="line"/>
			<point x="715.143" y="603.714" type="line"/>
			<point x="1098.71" y="603.714" type="line"/>
			<point x="1098.71" y="840.571" type="line"/>
		</contour>
	</outline>
</glyph>
<glyph name="slash" format="2">
	<unicode hex="002F"/>
	<advance width="870"/>
	<outline>
		<contour>
			<point x="862.714" y="1480" type="line"/>
			<point x="557.857" y="1480" type="line"/>
			<point x="12.4286" y="-17.1429" type="line"/>
			<point x="317.143" y="-17.1429" type="line"/>
		</contour>
	</outline>
</glyph>
<glyph name="zero" format="2">
	<unicode hex="0030"/>
	<advance width="1195"/>
	<outline>
		<contour>
			<point x="1115.14" y="730.143" type="curve" smooth="yes"/>
			<point x="1115.14" y="1200"/>
			<point x="960.571" y="1483.29"/>
			<point x="598" y="1483.29" type="curve" smooth="yes"/>
			<point x="214.571" y="1483.29"/>
			<point x="79.8571" y="1196.43"/>
			<point x="79.8571" y="730.143" type="curve" smooth="yes"/>
			<point x="79.8571" y="254.714"/>
			<point x="241.857" y="-20"/>
			<point x="597.714" y="-20" type="curve" smooth="yes"/>
			<point x="976.143" y="-20"/>
			<point x="1115.14" y="256.571"/>
		</contour>
		<contour>
			<point x="424.571" y="730.143" type="curve" smooth="yes"/>
			<point x="424.571" y="1035.57"/>
			<point x="459" y="1205.14"/>
			<point x="598" y="1205.14" type="curve" smooth="yes"/>
			<point x="736.429" y="1205.14"/>
			<point x="770.429" y="1037.57"/>
			<point x="770.429" y="730.143" type="curve" smooth="yes"/>
			<point x="770.429" y="414.286"/>
			<point x="731.143" y="257.286"/>
			<point x="597.714" y="257.286" type="curve" smooth="yes"/>
			<point x="464.429" y="257.286"/>
			<point x="424.571" y="415.429"/>
		</contour>
	</outline>
</glyph>
<glyph name="three" format="2">
	<unicode hex="0033"/>
	<advance width="1195"/>
	<outline>
		<contour>
			<point x="1057.29" y="1142.57" type="curve" smooth="yes"/>
			<point x="1057.29" y="1356"/>
			<point x="876.143" y="1483"/>
			<point x="583.857" y="1483" type="curve" smooth="yes"/>
			<point x="340.429" y="1483"/>
			<point x="198.714" y="1417.86"/>
			<point x="77.8571" y="1334.43" type="curve"/>
			<point x="222.429" y="1102" type="line"/>
			<point x="278.286" y="1138.86"/>
			<point x="394.857" y="1203.14"/>
			<point x="530.714" y="1203.14" type="curve" smooth="yes"/>
			<point x="645.429" y="1203.14"/>
			<point x="721" y="1157.29"/>
			<point x="721" y="1062" type="curve" smooth="yes"/>
			<point x="721" y="951"/>
			<point x="625.571" y="881.143"/>
			<point x="403.286" y="881.143" type="curve" smooth="yes"/>
			<point x="300.143" y="881.143" type="line"/>
			<point x="300.143" y="619.286" type="line"/>
			<point x="401.571" y="619.286" type="line" smooth="yes"/>
			<point x="656.571" y="619.286"/>
			<point x="734.286" y="555.571"/>
			<point x="734.286" y="435.571" type="curve" smooth="yes"/>
			<point x="734.286" y="324.857"/>
			<point x="663.857" y="253.857"/>
			<point x="457.143" y="253.857" type="curve" smooth="yes"/>
			<point x="340.286" y="253.857"/>
			<point x="197.286" y="286.286"/>
			<point x="73.7143" y="349.286" type="curve"/>
			<point x="73.7143" y="60" type="line"/>
			<point x="195.857" y="10.8571"/>
			<point x="320.857" y="-20"/>
			<point x="506" y="-20" type="curve" smooth="yes"/>
			<point x="916.286" y="-20"/>
			<point x="1100.57" y="174.571"/>
			<point x="1100.57" y="415" type="curve" smooth="yes"/>
			<point x="1100.57" y="623.429"/>
			<point x="968.143" y="734.714"/>
			<point x="735.857" y="764" type="curve"/>
			<point x="735.857" y="769.714" type="line"/>
			<point x="910.429" y="814.429"/>
			<point x="1057.29" y="936"/>
		</contour>
	</outline>
</glyph>
<glyph name="five" format="2">
	<unicode hex="0035"/>
	<advance width="1195"/>
	<outline>
		<contour>
			<point x="649.286" y="945.714" type="curve" smooth="yes"/>
			<point x="546.286" y="945.714"/>
			<point x="505.143" y="933.714"/>
			<point x="458.571" y="924.429" type="curve"/>
			<point x="481.286" y="1172.71" type="line"/>
			<point x="999.143" y="1172.71" type="line"/>
			<point x="999.143" y="1462" type="line"/>
			<point x="186.571" y="1462" type="line"/>
			<point x="130.714" y="706.429" type="line"/>
			<point x="260.571" y="640.286" type="line"/>
			<point x="320.286" y="659"/>
			<point x="397.143" y="677"/>
			<point x="478.714" y="677" type="curve" smooth="yes"/>
			<point x="656.857" y="677"/>
			<point x="745.857" y="599.143"/>
			<point x="745.857" y="470.571" type="curve" smooth="yes"/>
			<point x="745.857" y="329.714"/>
			<point x="649.571" y="253.857"/>
			<point x="484.571" y="253.857" type="curve" smooth="yes"/>
			<point x="359.571" y="253.857"/>
			<point x="203.714" y="298.286"/>
			<point x="102.286" y="346.429" type="curve"/>
			<point x="102.286" y="60" type="line"/>
			<point x="208" y="7.42857"/>
			<point x="344.857" y="-20"/>
			<point x="512.857" y="-20" type="curve" smooth="yes"/>
			<point x="898.714" y="-20"/>
			<point x="1095.71" y="159.429"/>
			<point x="1095.71" y="480.857" type="curve" smooth="yes"/>
			<point x="1095.71" y="778.143"/>
			<point x="899.429" y="945.714"/>
		</contour>
	</outline>
</glyph>
<glyph name="seven" format="2">
	<unicode hex="0037"/>
	<advance width="1195"/>
	<outline>
		<contour>
			<point x="232.714" y="0" type="line"/>
			<point x="591.714" y="0" type="line"/>
			<point x="1120.29" y="1257.29" type="line"/>
			<point x="1120.29" y="1462" type="line"/>
			<point x="83.8571" y="1462" type="line"/>
			<point x="83.8571" y="1174.43" type="line"/>
			<point x="749.857" y="1174.43" type="line"/>
		</contour>
	</outline>
</glyph>
<glyph name="eight" format="2">
	<unicode hex="0038"/>
	<advance width="1195"/>
	<outline>
		<contour>
			<point x="600.571" y="1483" type="curve" smooth="yes"/>
			<point x="319.143" y="1483"/>
			<point x="120.571" y="1362"/>
			<point x="120.571" y="1130.43" type="curve" smooth="yes"/>
			<point x="120.571" y="955.714"/>
			<point x="228" y="846.571"/>
			<point x="359.714" y="766.286" type="curve"/>
			<point x="194.714" y="688.286"/>
			<point x="77" y="587.143"/>
			<point x="77" y="381.143" type="curve" smooth="yes"/>
			<point x="77" y="143.286"/>
			<point x="241" y="-20"/>
			<point x="595.857" y="-20" type="curve" smooth="yes"/>
			<point x="948.714" y="-20"/>
			<point x="1120" y="149.286"/>
			<point x="1120" y="386.429" type="curve" smooth="yes"/>
			<point x="1120" y="582"/>
			<point x="963.857" y="693.143"/>
			<point x="811.857" y="771.714" type="curve"/>
			<point x="967.429" y="845.143"/>
			<point x="1076.14" y="952.714"/>
			<point x="1076.14" y="1129.29" type="curve" smooth="yes"/>
			<point x="1076.14" y="1364.86"/>
			<point x="883.286" y="1483"/>
		</contour>
		<contour>
			<point x="395.143" y="394.857" type="curve" smooth="yes"/>
			<point x="395.143" y="501.714"/>
			<point x="484.857" y="568"/>
			<point x="593" y="618.571" type="curve"/>
			<point x="624.429" y="601.857" type="line" smooth="yes"/>
			<point x="700" y="563.857"/>
			<point x="801" y="492.429"/>
			<point x="801" y="389.857" type="curve" smooth="yes"/>
			<point x="801" y="289.286"/>
			<point x="729.571" y="230.714"/>
			<point x="592.429" y="230.714" type="curve" smooth="yes"/>
			<point x="470.571" y="230.714"/>
			<point x="395.143" y="295.714"/>
		</contour>
		<contour>
			<point x="598.857" y="1231.43" type="curve" smooth="yes"/>
			<point x="684.714" y="1231.43"/>
			<point x="750.286" y="1182.71"/>
			<point x="750.286" y="1100.14" type="curve" smooth="yes"/>
			<point x="750.286" y="1010.14"/>
			<point x="677.286" y="962.429"/>
			<point x="596.286" y="921" type="curve"/>
			<point x="509.286" y="963.286"/>
			<point x="445.571" y="1019.86"/>
			<point x="445.571" y="1099.57" type="curve" smooth="yes"/>
			<point x="445.571" y="1181.57"/>
			<point x="514.429" y="1231.43"/>
		</contour>
	</outline>
</glyph>
<glyph name="nine" format="2">
	<unicode hex="0039"/>
	<advance width="1195"/>
	<outline>
		<contour>
			<point x="1114.86" y="824.571" type="curve" smooth="yes"/>
			<point x="1114.86" y="1265"/>
			<point x="889.286" y="1483"/>
			<point x="577.571" y="1483" type="curve" smooth="yes"/>
			<point x="261.714" y="1483"/>
			<point x="70.1429" y="1289.71"/>
			<point x="70.1429" y="970.857" type="curve" smooth="yes"/>
			<point x="70.1429" y="670.143"/>
			<point x="227.429" y="497.857"/>
			<point x="477" y="497.857" type="curve" smooth="yes"/>
			<point x="652.857" y="497.857"/>
			<point x="738.429" y="577.714"/>
			<point x="791.571" y="678.429" type="curve"/>
			<point x="802.429" y="678.429" type="line"/>
			<point x="790.429" y="411.714"/>
			<point x="685.571" y="249.857"/>
			<point x="357.143" y="249.857" type="curve" smooth="yes"/>
			<point x="279.714" y="249.857"/>
			<point x="222" y="257"/>
			<point x="166" y="268.143" type="curve"/>
			<point x="166" y="-8.28571" type="line"/>
			<point x="221.143" y="-17.4286"/>
			<point x="310.571" y="-20.7143"/>
			<point x="373.429" y="-20.7143" type="curve" smooth="yes"/>
			<point x="888" y="-20.7143"/>
			<point x="1114.86" y="287.571"/>
		</contour>
		<contour>
			<point x="586.143" y="1204.86" type="curve" smooth="yes"/>
			<point x="721" y="1204.86"/>
			<point x="768.571" y="1061.14"/>
			<point x="768.571" y="948.286" type="curve" smooth="yes"/>
			<point x="768.571" y="861.571"/>
			<point x="693.571" y="765.714"/>
			<point x="581.286" y="765.714" type="curve" smooth="yes"/>
			<point x="465" y="765.714"/>
			<point x="406.286" y="846.286"/>
			<point x="406.286" y="974.286" type="curve" smooth="yes"/>
			<point x="406.286" y="1131.14"/>
			<point x="471.857" y="1204.86"/>
		</contour>
	</outline>
</glyph>
<glyph name="colon" format="2">
	<unicode hex="003A"/>
	<advance width="572"/>
	<outline>
		<contour>
			<point x="98.5714" y="149" type="curve" smooth="yes"/>
			<point x="98.5714" y="28.2857"/>
			<point x="182.286" y="-23.7143"/>
			<point x="288.429" y="-23.7143" type="curve" smooth="yes"/>
			<point x="390.571" y="-23.7143"/>
			<point x="472.143" y="28.2857"/>
			<point x="472.143" y="149" type="curve" smooth="yes"/>
			<point x="472.143" y="274.571"/>
			<point x="390.571" y="322.714"/>
			<point x="288.429" y="322.714" type="curve" smooth="yes"/>
			<point x="182.286" y="322.714"/>
			<point x="98.5714" y="274.571"/>
		</contour>
		<contour>
			<point x="98.5714" y="966" type="curve" smooth="yes"/>
			<point x="98.5714" y="843.571"/>
			<point x="182.286" y="792.429"/>
			<point x="288.429" y="792.429" type="curve" smooth="yes"/>
			<point x="390.571" y="792.429"/>
			<point x="472.143" y="843.571"/>
			<point x="472.143" y="966" type="curve" smooth="yes"/>
			<point x="472.143" y="1090.71"/>
			<point x="390.571" y="1138.86"/>
			<point x="288.429" y="1138.86" type="curve" smooth="yes"/>
			<point x="182.286" y="1138.86"/>
			<point x="98.5714" y="1090.71"/>
		</contour>
	</outline>
</glyph>
<glyph name="greater" format="2">
	<unicode hex="003E"/>
	<advance width="1195"/>
	<outline>
		<contour>
			<point x="95.2857" y="453.429" type="line"/>
			<point x="95.2857" y="193" type="line"/>
			<point x="1096.71" y="640.714" type="line"/>
			<point x="1096.71" y="793.429" type="line"/>
			<point x="95.2857" y="1290" type="line"/>
			<point x="95.2857" y="1027.86" type="line"/>
			<point x="751.286" y="727.286" type="line"/>
		</contour>
	</outline>
</glyph>
<glyph name="C" format="2">
	<unicode hex="0043"/>
	<advance width="1319"/>
	<outline>
		<contour>
			<point x="811.857" y="1198" type="curve" smooth="yes"/>
			<point x="933.429" y="1198"/>
			<point x="1040.71" y="1162.43"/>
			<point x="1149.14" y="1110" type="curve"/>
			<point x="1255.71" y="1383.86" type="line"/>
			<point x="1111" y="1452.86"/>
			<point x="955.286" y="1483"/>
			<point x="815.286" y="1483" type="curve" smooth="yes"/>
			<point x="361" y="1483"/>
			<point x="107.571" y="1168.14"/>
			<point x="107.571" y="728.429" type="curve" smooth="yes"/>
			<point x="107.571" y="283.286"/>
			<point x="317.429" y="-20"/>
			<point x="788.429" y="-20" type="curve" smooth="yes"/>
			<point x="941.714" y="-20"/>
			<point x="1073.57" y="4.57143"/>
			<point x="1197" y="58.4286" type="curve"/>
			<point x="1197" y="351.429" type="line"/>
			<point x="1077.57" y="302.714"/>
			<point x="959.143" y="264.143"/>
			<point x="825.286" y="264.143" type="curve" smooth="yes"/>
			<point x="581.571" y="264.143"/>
			<point x="463.429" y="429.571"/>
			<point x="463.429" y="726.714" type="curve" smooth="yes"/>
			<point x="463.429" y="1017"/>
			<point x="593.714" y="1198"/>
		</contour>
	</outline>
	<anchor name="bottom" x="772.571" y="0"/>
	<anchor name="top" x="754.429" y="1462"/>
	<anchor name="topright" x="1277.86" y="1462"/>
</glyph>
<glyph name="D" format="2">
	<unicode hex="0044"/>
	<advance width="1491"/>
	<outline>
		<contour>
			<point x="1382.86" y="759.571" type="curve" smooth="yes"/>
			<point x="1382.86" y="1213.43"/>
			<point x="1123.86" y="1462"/>
			<point x="651" y="1462" type="curve" smooth="yes"/>
			<point x="165.571" y="1462" type="line"/>
			<point x="165.571" y="0" type="line"/>
			<point x="616" y="0" type="line" smooth="yes"/>
			<point x="1087.71" y="0"/>
			<point x="1382.86" y="252.571"/>
		</contour>
		<contour>
			<point x="1023.57" y="747.286" type="curve" smooth="yes"/>
			<point x="1023.57" y="435"/>
			<point x="898.143" y="285"/>
			<point x="625.429" y="285" type="curve" smooth="yes"/>
			<point x="511.714" y="285" type="line"/>
			<point x="511.714" y="1181.29" type="line"/>
			<point x="651.571" y="1181.29" type="line" smooth="yes"/>
			<point x="903.714" y="1181.29"/>
			<point x="1023.57" y="1037.43"/>
		</contour>
	</outline>
	<anchor name="bottom" x="731.286" y="0"/>
	<anchor name="center" x="745.857" y="731"/>
	<anchor name="top" x="745.857" y="1462"/>
	<anchor name="topright" x="1449.71" y="1462"/>
</glyph>
<glyph name="E" format="2">
	<unicode hex="0045"/>
	<advance width="1124"/>
	<outline>
		<contour>
			<point x="1022.14" y="0" type="line"/>
			<point x="1022.14" y="283.286" type="line"/>
			<point x="511.714" y="283.286" type="line"/>
			<point x="511.714" y="619" type="line"/>
			<point x="986.286" y="619" type="line"/>
			<point x="986.286" y="898.143" type="line"/>
			<point x="511.714" y="898.143" type="line"/>
			<point x="511.714" y="1183" type="line"/>
			<point x="1022.14" y="1183" type="line"/>
			<point x="1022.14" y="1462" type="line"/>
			<point x="165.571" y="1462" type="line"/>
			<point x="165.571" y="0" type="line"/>
		</contour>
	</outline>
	<anchor name="bottom" x="604" y="0"/>
	<anchor name="top" x="596.714" y="1462"/>
	<anchor name="topright" x="1083.29" y="1462"/>
</glyph>
<glyph name="F" format="2">
	<unicode hex="0046"/>
	<advance width="1090"/>
	<outline>
		<contour>
			<point x="506.571" y="0" type="line"/>
			<point x="506.571" y="566.857" type="line"/>
			<point x="981.857" y="566.857" type="line"/>
			<point x="981.857" y="845.857" type="line"/>
			<point x="506.571" y="845.857" type="line"/>
			<point x="506.571" y="1183" type="line"/>
			<point x="1019" y="1183" type="line"/>
			<point x="1019" y="1462" type="line"/>
			<point x="165.571" y="1462" type="line"/>
			<point x="165.571" y="0" type="line"/>
		</contour>
	</outline>
	<anchor name="bottom" x="546" y="0"/>
	<anchor name="top" x="592.286" y="1462"/>
	<anchor name="topright" x="1049.29" y="1462"/>
</glyph>
<glyph name="H" format="2">
	<unicode hex="0048"/>
	<advance width="1551"/>
	<outline>
		<contour>
			<point x="1385.86" y="0" type="line"/>
			<point x="1385.86" y="1462" type="line"/>
			<point x="1038" y="1462" type="line"/>
			<point x="1038" y="902.143" type="line"/>
			<point x="513.429" y="902.143" type="line"/>
			<point x="513.429" y="1462" type="line"/>
			<point x="165.571" y="1462" type="line"/>
			<point x="165.571" y="0" type="line"/>
			<point x="513.429" y="0" type="line"/>
			<point x="513.429" y="617" type="line"/>
			<point x="1038" y="617" type="line"/>
			<point x="1038" y="0" type="line"/>
		</contour>
	</outline>
	<anchor name="bottom" x="775.286" y="0"/>
	<anchor name="center" x="775.286" y="731"/>
	<anchor name="top" x="775.286" y="1462"/>
	<anchor name="topright" x="1510.43" y="1462"/>
</glyph>
<glyph name="J" format="2">
	<unicode hex="004A"/>
	<advance width="686"/>
	<outline>
		<contour>
			<point x="31.2857" y="-444.286" type="curve" smooth="yes"/>
			<point x="327.143" y="-444.286"/>
			<point x="521.143" y="-283"/>
			<point x="521.143" y="123.143" type="curve" smooth="yes"/>
			<point x="521.143" y="1462" type="line"/>
			<point x="173.286" y="1462" type="line"/>
			<point x="173.286" y="94.8571" type="line" smooth="yes"/>
			<point x="173.286" y="-81.7143"/>
			<point x="129.714" y="-173.571"/>
			<point x="-19.2857" y="-173.571" type="curve" smooth="yes"/>
			<point x="-76.2857" y="-173.571"/>
			<point x="-125.429" y="-160.714"/>
			<point x="-167.571" y="-151.429" type="curve"/>
			<point x="-167.571" y="-422.857" type="line"/>
			<point x="-120.571" y="-434"/>
			<point x="-56.7143" y="-444.286"/>
		</contour>
	</outline>
	<anchor name="bottom" x="31.2857" y="-406.286"/>
	<anchor name="top" x="343.429" y="1462"/>
	<anchor name="topright" x="644.571" y="1462"/>
</glyph>
<glyph name="L" format="2">
	<unicode hex="004C"/>
	<advance width="1170"/>
	<outline>
		<contour>
			<point x="165.571" y="0" type="line"/>
			<point x="1098.71" y="0" type="line"/>
			<point x="1098.71" y="280.714" type="line"/>
			<point x="511.714" y="280.714" type="line"/>
			<point x="511.714" y="1462" type="line"/>
			<point x="165.571" y="1462" type="line"/>
		</contour>
	</outline>
	<anchor name="bottom" x="625.429" y="0"/>
	<anchor name="center" x="584.857" y="731"/>
	<anchor name="top" x="332.286" y="1462"/>
	<anchor name="topright" x="769" y="1462"/>
</glyph>
<glyph name="N" format="2">
	<unicode hex="004E"/>
	<advance width="1668"/>
	<outline>
		<contour>
			<point x="1502.43" y="0" type="line"/>
			<point x="1502.43" y="1462" type="line"/>
			<point x="1193" y="1462" type="line"/>
			<point x="1193" y="748.286" type="line" smooth="yes"/>
			<point x="1193" y="648.286"/>
			<point x="1199.86" y="496.143"/>
			<point x="1205.29" y="400.143" type="curve"/>
			<point x="1199.57" y="400.143" type="line"/>
			<point x="613.714" y="1462" type="line"/>
			<point x="165.571" y="1462" type="line"/>
			<point x="165.571" y="0" type="line"/>
			<point x="473.143" y="0" type="line"/>
			<point x="473.143" y="711.714" type="line" smooth="yes"/>
			<point x="473.143" y="820.714"/>
			<point x="464.571" y="977"/>
			<point x="456.571" y="1074.43" type="curve"/>
			<point x="464.857" y="1074.43" type="line"/>
			<point x="1052.86" y="0" type="line"/>
		</contour>
	</outline>
	<anchor name="bottom" x="834.143" y="0"/>
	<anchor name="top" x="834.143" y="1462"/>
	<anchor name="topright" x="1627.29" y="1462"/>
</glyph>
<glyph name="R" format="2">
	<unicode hex="0052"/>
	<advance width="1357"/>
	<outline>
		<contour>
			<point x="622.714" y="1462" type="curve" smooth="yes"/>
			<point x="165.571" y="1462" type="line"/>
			<point x="165.571" y="0" type="line"/>
			<point x="511.714" y="0" type="line"/>
			<point x="511.714" y="549.571" type="line"/>
			<point x="655.429" y="549.571" type="line"/>
			<point x="977" y="0" type="line"/>
			<point x="1370.57" y="0" type="line"/>
			<point x="948.143" y="641.714" type="line"/>
			<point x="1109.71" y="723.286"/>
			<point x="1207.86" y="852.857"/>
			<point x="1207.86" y="1036.43" type="curve" smooth="yes"/>
			<point x="1207.86" y="1324"/>
			<point x="1011.14" y="1462"/>
		</contour>
		<contour>
			<point x="616" y="1198.43" type="line" smooth="yes"/>
			<point x="784.286" y="1198.43"/>
			<point x="857.857" y="1138.71"/>
			<point x="857.857" y="1020.71" type="curve" smooth="yes"/>
			<point x="857.857" y="869.143"/>
			<point x="760.571" y="811.571"/>
			<point x="622.857" y="811.571" type="curve" smooth="yes"/>
			<point x="511.714" y="811.571" type="line"/>
			<point x="511.714" y="1198.43" type="line"/>
		</contour>
	</outline>
	<anchor name="bottom" x="708.286" y="0"/>
	<anchor name="top" x="679.429" y="1462"/>
	<anchor name="topright" x="1316.71" y="1462"/>
</glyph>
<glyph name="T" format="2">
	<unicode hex="0054"/>
	<advance width="1185"/>
	<outline>
		<contour>
			<point x="765.857" y="0" type="line"/>
			<point x="765.857" y="1177.86" type="line"/>
			<point x="1140.57" y="1177.86" type="line"/>
			<point x="1140.57" y="1462" type="line"/>
			<point x="44.2857" y="1462" type="line"/>
			<point x="44.2857" y="1177.86" type="line"/>
			<point x="419.571" y="1177.86" type="line"/>
			<point x="419.571" y="0" type="line"/>
		</contour>
	</outline>
	<anchor name="bottom" x="593.429" y="0"/>
	<anchor name="center" x="593.429" y="731"/>
	<anchor name="top" x="593.429" y="1462"/>
	<anchor name="topright" x="1143.86" y="1462"/>
</glyph>
<glyph name="U" format="2">
	<unicode hex="0055"/>
	<advance width="1537"/>
	<outline>
		<contour>
			<point x="1381.71" y="1462" type="line"/>
			<point x="1035.43" y="1462" type="line"/>
			<point x="1035.43" y="590.857" type="line" smooth="yes"/>
			<point x="1035.43" y="367.143"/>
			<point x="949.714" y="269.286"/>
			<point x="769.286" y="269.286" type="curve" smooth="yes"/>
			<point x="596.286" y="269.286"/>
			<point x="504.286" y="368.429"/>
			<point x="504.286" y="592.571" type="curve" smooth="yes"/>
			<point x="504.286" y="1462" type="line"/>
			<point x="156.429" y="1462" type="line"/>
			<point x="156.429" y="565.429" type="line" smooth="yes"/>
			<point x="156.429" y="190.857"/>
			<point x="370.143" y="-20"/>
			<point x="763.857" y="-20" type="curve" smooth="yes"/>
			<point x="1170.86" y="-20"/>
			<point x="1381.71" y="204.286"/>
			<point x="1381.71" y="572.571" type="curve" smooth="yes"/>
		</contour>
	</outline>
	<anchor name="bottom" x="765.857" y="0"/>
	<anchor name="top" x="769.286" y="1462"/>
	<anchor name="topright" x="1495.86" y="1462"/>
</glyph>
<glyph name="W" format="2">
	<unicode hex="0057"/>
	<advance width="2078"/>
	<outline>
		<contour>
			<point x="2042.86" y="1462" type="line"/>
			<point x="1708.43" y="1462" type="line"/>
			<point x="1524.57" y="672.286" type="line" smooth="yes"/>
			<point x="1506.43" y="593.714"/>
			<point x="1467.86" y="404.571"/>
			<point x="1455.14" y="307.143" type="curve"/>
			<point x="1436.29" y="456"/>
			<point x="1380.14" y="715.429"/>
			<point x="1352.71" y="828.286" type="curve" smooth="yes"/>
			<point x="1200.71" y="1462" type="line"/>
			<point x="879.714" y="1462" type="line"/>
			<point x="725.571" y="829.143" type="line"/>
			<point x="696.571" y="713.429"/>
			<point x="643.714" y="461.714"/>
			<point x="623.143" y="308.286" type="curve"/>
			<point x="610.143" y="401.714"/>
			<point x="568.714" y="598.571"/>
			<point x="550.286" y="674.571" type="curve"/>
			<point x="370.714" y="1462" type="line"/>
			<point x="36.2857" y="1462" type="line"/>
			<point x="403.571" y="0" type="line"/>
			<point x="810.857" y="0" type="line"/>
			<point x="979.429" y="722.714" type="line" smooth="yes"/>
			<point x="990.571" y="769.714"/>
			<point x="1030.29" y="954.714"/>
			<point x="1040.71" y="1050.29" type="curve"/>
			<point x="1051.57" y="954.143"/>
			<point x="1090.43" y="767.714"/>
			<point x="1102" y="716.286" type="curve" smooth="yes"/>
			<point x="1269.14" y="0" type="line"/>
			<point x="1676.43" y="0" type="line"/>
		</contour>
	</outline>
	<anchor name="bottom" x="1041.86" y="0"/>
	<anchor name="top" x="1040.14" y="1462"/>
	<anchor name="topright" x="2037.29" y="1462"/>
</glyph>
<glyph name="Y" format="2">
	<unicode hex="0059"/>
	<advance width="1313"/>
	<outline>
		<contour>
			<point x="656.857" y="876.571" type="line"/>
			<point x="377.286" y="1462" type="line"/>
			<point x="0" y="1462" type="line"/>
			<point x="482.857" y="558.429" type="line"/>
			<point x="482.857" y="0" type="line"/>
			<point x="831.571" y="0" type="line"/>
			<point x="831.571" y="569.857" type="line"/>
			<point x="1313.43" y="1462" type="line"/>
			<point x="937.857" y="1462" type="line"/>
		</contour>
	</outline>
	<anchor name="bottom" x="656.857" y="0"/>
	<anchor name="top" x="656.857" y="1462"/>
	<anchor name="topright" x="1272.43" y="1462"/>
</glyph>
<glyph name="backslash" format="2">
	<unicode hex="005C"/>
	<advance width="870"/>
	<outline>
		<contour>
			<point x="313.714" y="1480" type="line"/>
			<point x="9" y="1480" type="line"/>
			<point x="554.429" y="-17.1429" type="line"/>
			<point x="859.286" y="-17.1429" type="line"/>
		</contour>
	</outline>
</glyph>
<glyph name="bracketright" format="2">
	<unicode hex="005D"/>
	<advance width="661"/>
	<outline>
		<contour>
			<point x="47.5714" y="-116" type="line"/>
			<point x="47.5714" y="-341.143" type="line"/>
			<point x="534.714" y="-341.143" type="line"/>
			<point x="534.714" y="1497.14" type="line"/>
			<point x="47.5714" y="1497.14" type="line"/>
			<point x="47.5714" y="1272.14" type="line"/>
			<point x="254.857" y="1272.14" type="line"/>
			<point x="254.857" y="-116" type="line"/>
		</contour>
	</outline>
</glyph>
<glyph name="grave" format="2">
	<unicode hex="0060"/>
	<advance width="807"/>
	<outline>
		<contour>
			<point x="459.286" y="1569" type="curve"/>
			<point x="82" y="1569" type="line"/>
			<point x="82" y="1548.86" type="line"/>
			<point x="176.286" y="1468.86"/>
			<point x="384.857" y="1313.86"/>
			<point x="495.571" y="1241" type="curve"/>
			<point x="724.571" y="1241" type="line"/>
			<point x="724.571" y="1267.57" type="line"/>
			<point x="654" y="1344.43"/>
			<point x="527.857" y="1477.57"/>
		</contour>
	</outline>
</glyph>
<glyph name="a" format="2">
	<unicode hex="0061"/>
	<advance width="1243"/>
	<outline>
		<contour>
			<point x="667" y="1145.43" type="curve" smooth="yes"/>
			<point x="474" y="1145.43"/>
			<point x="317.286" y="1111"/>
			<point x="189.571" y="1046.57" type="curve"/>
			<point x="289" y="817.857" type="line"/>
			<point x="400.857" y="868.286"/>
			<point x="512.571" y="901.571"/>
			<point x="605.286" y="901.571" type="curve" smooth="yes"/>
			<point x="704.429" y="901.571"/>
			<point x="763.857" y="853.714"/>
			<point x="763.857" y="732" type="curve" smooth="yes"/>
			<point x="763.857" y="705.714" type="line"/>
			<point x="571.714" y="698.857" type="line"/>
			<point x="252.429" y="683.429"/>
			<point x="77.4286" y="572.429"/>
			<point x="77.4286" y="334.286" type="curve" smooth="yes"/>
			<point x="77.4286" y="97.1429"/>
			<point x="219.286" y="-20"/>
			<point x="419.143" y="-20" type="curve" smooth="yes"/>
			<point x="611.857" y="-20"/>
			<point x="703.714" y="37.1429"/>
			<point x="795" y="158.714" type="curve"/>
			<point x="802.429" y="158.714" type="line"/>
			<point x="867.857" y="0" type="line"/>
			<point x="1106.71" y="0" type="line"/>
			<point x="1106.71" y="739.286" type="line" smooth="yes"/>
			<point x="1106.71" y="1002.71"/>
			<point x="944.857" y="1145.43"/>
		</contour>
		<contour>
			<point x="765.571" y="514.143" type="line"/>
			<point x="765.571" y="422.714" type="line"/>
			<point x="765" y="305"/>
			<point x="680.857" y="223.857"/>
			<point x="561.429" y="223.857" type="curve" smooth="yes"/>
			<point x="478.286" y="223.857"/>
			<point x="426" y="266.429"/>
			<point x="426" y="354" type="curve" smooth="yes"/>
			<point x="426" y="451.571"/>
			<point x="495.714" y="502.143"/>
			<point x="658.857" y="509.286" type="curve" smooth="yes"/>
		</contour>
	</outline>
	<anchor name="bottom" x="622.571" y="0"/>
	<anchor name="top" x="622.571" y="1125.57"/>
	<anchor name="topright" x="1177.43" y="1125.57"/>
</glyph>
<glyph name="b" format="2">
	<unicode hex="0062"/>
	<advance width="1299"/>
	<outline>
		<contour>
			<point x="484.571" y="1556" type="line"/>
			<point x="141.714" y="1556" type="line"/>
			<point x="141.714" y="0" type="line"/>
			<point x="409.571" y="0" type="line"/>
			<point x="464" y="125.571" type="line"/>
			<point x="485.143" y="125.571" type="line"/>
			<point x="541.857" y="51.4286"/>
			<point x="620" y="-20"/>
			<point x="784.857" y="-20" type="curve" smooth="yes"/>
			<point x="1042.86" y="-20"/>
			<point x="1206.71" y="189.286"/>
			<point x="1206.71" y="565.571" type="curve" smooth="yes"/>
			<point x="1206.71" y="942.429"/>
			<point x="1043.14" y="1146"/>
			<point x="799.857" y="1146" type="curve" smooth="yes"/>
			<point x="639.143" y="1146"/>
			<point x="540.714" y="1066.14"/>
			<point x="484.571" y="964.714" type="curve"/>
			<point x="471.857" y="964.714" type="line"/>
			<point x="479" y="1029.29"/>
			<point x="484.571" y="1107.71"/>
			<point x="484.571" y="1185.57" type="curve" smooth="yes"/>
		</contour>
		<contour>
			<point x="677.286" y="875.571" type="curve" smooth="yes"/>
			<point x="799.286" y="875.571"/>
			<point x="857.714" y="772.143"/>
			<point x="857.714" y="569" type="curve" smooth="yes"/>
			<point x="857.714" y="366.143"/>
			<point x="793.429" y="257.286"/>
			<point x="676" y="257.286" type="curve" smooth="yes"/>
			<point x="536.857" y="257.286"/>
			<point x="484.571" y="353.571"/>
			<point x="484.571" y="549.714" type="curve" smooth="yes"/>
			<point x="484.571" y="599.857" type="line" smooth="yes"/>
			<point x="484.571" y="784.286"/>
			<point x="545" y="875.571"/>
		</contour>
	</outline>
	<anchor name="bottom" x="670" y="0"/>
	<anchor name="top" x="661.429" y="1556"/>
	<anchor name="topright" x="1179.43" y="1556"/>
</glyph>
<glyph name="c" format="2">
	<unicode hex="0063"/>
	<advance width="1084"/>
	<outline>
		<contour>
			<point x="646.286" y="-20" type="curve" smooth="yes"/>
			<point x="796.143" y="-20"/>
			<point x="907" y="16"/>
			<point x="997.286" y="73.2857" type="curve"/>
			<point x="997.286" y="347.143" type="line"/>
			<point x="899.286" y="288.429"/>
			<point x="785.571" y="253.857"/>
			<point x="674.571" y="253.857" type="curve" smooth="yes"/>
			<point x="528.143" y="253.857"/>
			<point x="439.143" y="351.143"/>
			<point x="439.143" y="559" type="curve" smooth="yes"/>
			<point x="439.143" y="766"/>
			<point x="533.714" y="875.286"/>
			<point x="677.857" y="875.286" type="curve" smooth="yes"/>
			<point x="762.714" y="875.286"/>
			<point x="839.571" y="850.286"/>
			<point x="931.857" y="809.857" type="curve"/>
			<point x="1031.86" y="1065" type="line"/>
			<point x="929.286" y="1115"/>
			<point x="811.143" y="1145.71"/>
			<point x="677.857" y="1145.71" type="curve" smooth="yes"/>
			<point x="337.429" y="1145.71"/>
			<point x="91" y="957.429"/>
			<point x="91" y="557.286" type="curve" smooth="yes"/>
			<point x="91" y="166.429"/>
			<point x="302" y="-20"/>
		</contour>
	</outline>
	<anchor name="bottom" x="639.429" y="0"/>
	<anchor name="top" x="603.857" y="1125.57"/>
	<anchor name="topright" x="1034.86" y="1125.57"/>
</glyph>
<glyph name="g" format="2">
	<unicode hex="0067"/>
	<advance width="1211"/>
	<outline>
		<contour>
			<point x="512.857" y="-492" type="curve" smooth="yes"/>
			<point x="923.428" y="-492"/>
			<point x="1162.14" y="-335.571"/>
			<point x="1162.14" y="-67.8571" type="curve" smooth="yes"/>
			<point x="1162.14" y="141.714"/>
			<point x="1035" y="246.857"/>
			<point x="783.857" y="246.857" type="curve" smooth="yes"/>
			<point x="595.714" y="246.857" type="line" smooth="yes"/>
			<point x="516.857" y="246.857"/>
			<point x="425" y="263.714"/>
			<point x="425" y="313.714" type="curve" smooth="yes"/>
			<point x="425" y="338.714"/>
			<point x="436.143" y="359"/>
			<point x="457.429" y="381.857" type="curve"/>
			<point x="483" y="376.429"/>
			<point x="516.429" y="373.714"/>
			<point x="557.571" y="373.714" type="curve" smooth="yes"/>
			<point x="881.857" y="373.714"/>
			<point x="1048.43" y="513.857"/>
			<point x="1048.43" y="753.429" type="curve" smooth="yes"/>
			<point x="1048.43" y="810.285"/>
			<point x="1035" y="861.571"/>
			<point x="1006.57" y="907" type="curve"/>
			<point x="1173.57" y="956.857" type="line"/>
			<point x="1173.57" y="1125.43" type="line"/>
			<point x="787.429" y="1125.43" type="line"/>
			<point x="740.714" y="1134.43"/>
			<point x="622.714" y="1145.57"/>
			<point x="576" y="1145.57" type="curve" smooth="yes"/>
			<point x="277.571" y="1145.57"/>
			<point x="107.571" y="1002.86"/>
			<point x="107.571" y="761.857" type="curve" smooth="yes"/>
			<point x="107.571" y="603.285"/>
			<point x="179.857" y="490.571"/>
			<point x="299.286" y="439.571" type="curve"/>
			<point x="180.857" y="367.857"/>
			<point x="150.286" y="319.429"/>
			<point x="150.286" y="249" type="curve" smooth="yes"/>
			<point x="150.286" y="184.714"/>
			<point x="207.286" y="113.571"/>
			<point x="276.429" y="84.2857" type="curve"/>
			<point x="109.286" y="48.5717"/>
			<point x="22.8571" y="-44.286"/>
			<point x="22.8571" y="-182.429" type="curve" smooth="yes"/>
			<point x="22.8571" y="-381.428"/>
			<point x="199.857" y="-492"/>
		</contour>
		<contour>
			<point x="530.429" y="-275.286" type="curve" smooth="yes"/>
			<point x="396.286" y="-275.286"/>
			<point x="314" y="-226.429"/>
			<point x="314" y="-147.714" type="curve" smooth="yes"/>
			<point x="314" y="-70.7146"/>
			<point x="392" y="-23.7143"/>
			<point x="491.857" y="-23.7143" type="curve" smooth="yes"/>
			<point x="647.143" y="-23.7143" type="line" smooth="yes"/>
			<point x="759.286" y="-23.7143"/>
			<point x="862.857" y="-40.7143"/>
			<point x="862.857" y="-123.286" type="curve" smooth="yes"/>
			<point x="862.857" y="-231.286"/>
			<point x="693.571" y="-275.286"/>
		</contour>
		<contour>
			<point x="579.286" y="570.429" type="curve" smooth="yes"/>
			<point x="480.571" y="570.429"/>
			<point x="431.714" y="635.143"/>
			<point x="431.714" y="760" type="curve" smooth="yes"/>
			<point x="431.714" y="886.143"/>
			<point x="483.143" y="952.286"/>
			<point x="579" y="952.286" type="curve" smooth="yes"/>
			<point x="673.286" y="952.286"/>
			<point x="723.571" y="887.857"/>
			<point x="723.571" y="759" type="curve" smooth="yes"/>
			<point x="723.571" y="634"/>
			<point x="671.286" y="570.429"/>
		</contour>
	</outline>
	<anchor name="bottom" x="592.571" y="-492"/>
	<anchor name="top" x="578.429" y="1125.57"/>
	<anchor name="topright" x="1204.29" y="1126.43"/>
</glyph>
<glyph name="m" format="2">
	<unicode hex="006D"/>
	<advance width="2005"/>
	<outline>
		<contour>
			<point x="1480.71" y="1145.71" type="curve" smooth="yes"/>
			<point x="1331.29" y="1145.71"/>
			<point x="1214.57" y="1084"/>
			<point x="1145.57" y="978.429" type="curve"/>
			<point x="1134.71" y="978.429" type="line"/>
			<point x="1071.14" y="1084"/>
			<point x="965.857" y="1145.71"/>
			<point x="802.286" y="1145.71" type="curve" smooth="yes"/>
			<point x="628.429" y="1145.71"/>
			<point x="517.857" y="1070.71"/>
			<point x="461.143" y="977.571" type="curve"/>
			<point x="451.143" y="977.571" type="line"/>
			<point x="401" y="1125.57" type="line"/>
			<point x="142" y="1125.57" type="line"/>
			<point x="142" y="0" type="line"/>
			<point x="484.857" y="0" type="line"/>
			<point x="484.857" y="520.286" type="line" smooth="yes"/>
			<point x="484.857" y="752.286"/>
			<point x="539.286" y="875.286"/>
			<point x="682.286" y="875.286" type="curve" smooth="yes"/>
			<point x="779" y="875.286"/>
			<point x="832.571" y="805.143"/>
			<point x="832.571" y="633.286" type="curve" smooth="yes"/>
			<point x="832.571" y="0" type="line"/>
			<point x="1176.14" y="0" type="line"/>
			<point x="1176.14" y="547.714" type="line" smooth="yes"/>
			<point x="1176.14" y="760.857"/>
			<point x="1232.14" y="875.286"/>
			<point x="1370.14" y="875.286" type="curve" smooth="yes"/>
			<point x="1468.71" y="875.286"/>
			<point x="1525.71" y="812"/>
			<point x="1525.71" y="633.286" type="curve" smooth="yes"/>
			<point x="1525.71" y="0" type="line"/>
			<point x="1868.43" y="0" type="line"/>
			<point x="1868.43" y="737.286" type="line" smooth="yes"/>
			<point x="1868.43" y="1022.14"/>
			<point x="1728.29" y="1145.71"/>
		</contour>
	</outline>
	<anchor name="bottom" x="1010.43" y="0"/>
	<anchor name="top" x="1037.43" y="1125.57"/>
	<anchor name="topright" x="1938.86" y="1125.57"/>
</glyph>
<glyph name="n" format="2">
	<unicode hex="006E"/>
	<advance width="1344"/>
	<outline>
		<contour>
			<point x="813.857" y="1145.71" type="curve" smooth="yes"/>
			<point x="643.857" y="1145.71"/>
			<point x="528.714" y="1074.14"/>
			<point x="461.143" y="964.571" type="curve"/>
			<point x="447.714" y="964.571" type="line"/>
			<point x="401" y="1125.57" type="line"/>
			<point x="142" y="1125.57" type="line"/>
			<point x="142" y="0" type="line"/>
			<point x="484.857" y="0" type="line"/>
			<point x="484.857" y="513.429" type="line" smooth="yes"/>
			<point x="484.857" y="748.429"/>
			<point x="541" y="875.286"/>
			<point x="701.571" y="875.286" type="curve" smooth="yes"/>
			<point x="812.143" y="875.286"/>
			<point x="864" y="793.429"/>
			<point x="864" y="630.714" type="curve" smooth="yes"/>
			<point x="864" y="0" type="line"/>
			<point x="1206.71" y="0" type="line"/>
			<point x="1206.71" y="733" type="line" smooth="yes"/>
			<point x="1206.71" y="1020.71"/>
			<point x="1046.86" y="1145.71"/>
		</contour>
	</outline>
	<anchor name="bottom" x="672" y="0"/>
	<anchor name="top" x="672" y="1125.57"/>
	<anchor name="topright" x="1278.71" y="1125.57"/>
</glyph>
<glyph name="q" format="2">
	<unicode hex="0071"/>
	<advance width="1299"/>
	<outline>
		<contour>
			<point x="814" y="-489.571" type="line"/>
			<point x="1156.86" y="-489.571" type="line"/>
			<point x="1156.86" y="1125.57" type="line"/>
			<point x="860.714" y="1125.57" type="line"/>
			<point x="834.571" y="975.143" type="line"/>
			<point x="827.143" y="975.143" type="line"/>
			<point x="769.857" y="1070.71"/>
			<point x="672.571" y="1145.71"/>
			<point x="510.286" y="1145.71" type="curve" smooth="yes"/>
			<point x="254" y="1145.71"/>
			<point x="90.1429" y="933.714"/>
			<point x="90.1429" y="561" type="curve" smooth="yes"/>
			<point x="90.1429" y="180.571"/>
			<point x="252" y="-20.4286"/>
			<point x="500.429" y="-20.4286" type="curve" smooth="yes"/>
			<point x="662.857" y="-20.4286"/>
			<point x="761.286" y="58.5714"/>
			<point x="814" y="158.286" type="curve"/>
			<point x="824.857" y="158.286" type="line"/>
			<point x="817.714" y="101.429"/>
			<point x="814" y="38.5714"/>
			<point x="814" y="-18.8571" type="curve" smooth="yes"/>
		</contour>
		<contour>
			<point x="636.714" y="246.714" type="curve" smooth="yes"/>
			<point x="502.714" y="246.714"/>
			<point x="438.286" y="339"/>
			<point x="438.286" y="555.857" type="curve" smooth="yes"/>
			<point x="438.286" y="766.286"/>
			<point x="505" y="878.714"/>
			<point x="636.286" y="878.714" type="curve" smooth="yes"/>
			<point x="790.714" y="878.714"/>
			<point x="839.714" y="767"/>
			<point x="839.714" y="569.857" type="curve" smooth="yes"/>
			<point x="839.714" y="526.714" type="line" smooth="yes"/>
			<point x="839.714" y="342.143"/>
			<point x="785" y="246.714"/>
		</contour>
	</outline>
	<anchor name="bottom" x="984.143" y="-489.571"/>
	<anchor name="top" x="650.286" y="1125.57"/>
	<anchor name="topright" x="1228.43" y="1125.57"/>
</glyph>
<glyph name="s" format="2">
	<unicode hex="0073"/>
	<advance width="1042"/>
	<outline>
		<contour>
			<point x="957.714" y="337.429" type="curve" smooth="yes"/>
			<point x="957.714" y="537.571"/>
			<point x="850.714" y="614.571"/>
			<point x="656.143" y="691.429" type="curve" smooth="yes"/>
			<point x="471.286" y="763.286"/>
			<point x="417.714" y="780"/>
			<point x="417.714" y="840.857" type="curve" smooth="yes"/>
			<point x="417.714" y="887.286"/>
			<point x="465" y="912.143"/>
			<point x="545.286" y="912.143" type="curve" smooth="yes"/>
			<point x="619.143" y="912.143"/>
			<point x="745.286" y="880.286"/>
			<point x="852.143" y="831.286" type="curve"/>
			<point x="947" y="1054.57" type="line"/>
			<point x="813" y="1113.57"/>
			<point x="689.714" y="1145.71"/>
			<point x="543.571" y="1145.71" type="curve" smooth="yes"/>
			<point x="270" y="1145.71"/>
			<point x="90.1429" y="1034.43"/>
			<point x="90.1429" y="821.143" type="curve" smooth="yes"/>
			<point x="90.1429" y="633"/>
			<point x="190.857" y="552"/>
			<point x="380.143" y="477" type="curve" smooth="yes"/>
			<point x="568.714" y="402.429"/>
			<point x="633.429" y="380"/>
			<point x="633.429" y="315.143" type="curve" smooth="yes"/>
			<point x="633.429" y="260.143"/>
			<point x="585.429" y="230.714"/>
			<point x="474.571" y="230.714" type="curve" smooth="yes"/>
			<point x="382.714" y="230.714"/>
			<point x="224.857" y="257.571"/>
			<point x="86.8571" y="321" type="curve"/>
			<point x="86.8571" y="43.8571" type="line"/>
			<point x="210.286" y="-3.14286"/>
			<point x="329" y="-20"/>
			<point x="489.143" y="-20" type="curve" smooth="yes"/>
			<point x="822.714" y="-20"/>
			<point x="957.714" y="127.143"/>
		</contour>
	</outline>
	<anchor name="bottom" x="507.571" y="0"/>
	<anchor name="top" x="507.571" y="1125.57"/>
	<anchor name="topright" x="1000.71" y="1125.57"/>
</glyph>
<glyph name="t" format="2">
	<unicode hex="0074"/>
	<advance width="901"/>
	<outline>
		<contour>
			<point x="653.429" y="252.143" type="curve" smooth="yes"/>
			<point x="574.429" y="252.143"/>
			<point x="534.857" y="297.286"/>
			<point x="534.857" y="383.857" type="curve" smooth="yes"/>
			<point x="534.857" y="867.143" type="line"/>
			<point x="823.429" y="867.143" type="line"/>
			<point x="823.429" y="1125.57" type="line"/>
			<point x="534.857" y="1125.57" type="line"/>
			<point x="534.857" y="1358.57" type="line"/>
			<point x="309.286" y="1358.57" type="line"/>
			<point x="220.857" y="1116.14" type="line"/>
			<point x="48.2857" y="1009.86" type="line"/>
			<point x="48.2857" y="867.143" type="line"/>
			<point x="189.429" y="867.143" type="line"/>
			<point x="189.429" y="360.714" type="line" smooth="yes"/>
			<point x="189.429" y="70.2857"/>
			<point x="326.286" y="-20"/>
			<point x="542.857" y="-20" type="curve" smooth="yes"/>
			<point x="680" y="-20"/>
			<point x="758.429" y="4"/>
			<point x="838.571" y="37.7143" type="curve"/>
			<point x="838.571" y="289.286" type="line"/>
			<point x="777.286" y="267.286"/>
			<point x="723.143" y="252.143"/>
		</contour>
	</outline>
	<anchor name="bottom" x="519.571" y="0"/>
	<anchor name="center" x="450.571" y="563.286"/>
	<anchor name="top" x="416.714" y="1358.57"/>
	<anchor name="topright" x="826.286" y="1358.57"/>
</glyph>
<glyph name="u" format="2">
	<unicode hex="0075"/>
	<advance width="1344"/>
	<outline>
		<contour>
			<point x="1201" y="1125.57" type="line"/>
			<point x="858.286" y="1125.57" type="line"/>
			<point x="858.286" y="612.143" type="line" smooth="yes"/>
			<point x="858.286" y="377.143"/>
			<point x="802" y="252.143"/>
			<point x="641.571" y="252.143" type="curve" smooth="yes"/>
			<point x="530.286" y="252.143"/>
			<point x="480.714" y="334.429"/>
			<point x="480.714" y="495" type="curve" smooth="yes"/>
			<point x="480.714" y="1125.57" type="line"/>
			<point x="138" y="1125.57" type="line"/>
			<point x="138" y="391.857" type="line" smooth="yes"/>
			<point x="138" y="105.857"/>
			<point x="303.571" y="-20"/>
			<point x="529.286" y="-20" type="curve" smooth="yes"/>
			<point x="682" y="-20"/>
			<point x="811" y="37.7143"/>
			<point x="878.571" y="153.286" type="curve"/>
			<point x="898.857" y="153.286" type="line"/>
			<point x="942" y="0" type="line"/>
			<point x="1201" y="0" type="line"/>
		</contour>
	</outline>
	<anchor name="bottom" x="661.714" y="0"/>
	<anchor name="top" x="672" y="1125.57"/>
	<anchor name="topright" x="1278.71" y="1125.57"/>
</glyph>
<glyph name="y" format="2">
	<unicode hex="0079"/>
	<advance width="1196"/>
	<outline>
		<contour>
			<point x="-1.71429" y="1125.57" type="line"/>
			<point x="439.429" y="15.4286" type="line"/>
			<point x="424" y="-24.7143" type="line" smooth="yes"/>
			<point x="380.857" y="-133.571"/>
			<point x="330.714" y="-218"/>
			<point x="205.143" y="-218" type="curve" smooth="yes"/>
			<point x="158.714" y="-218"/>
			<point x="116.143" y="-211.714"/>
			<point x="85.7143" y="-204.571" type="curve"/>
			<point x="85.7143" y="-475.286" type="line"/>
			<point x="124.714" y="-484.286"/>
			<point x="171.286" y="-492.857"/>
			<point x="238.571" y="-492.857" type="curve" smooth="yes"/>
			<point x="512.143" y="-492.857"/>
			<point x="639.857" y="-357.429"/>
			<point x="739.571" y="-95.4286" type="curve"/>
			<point x="1196.43" y="1125.57" type="line"/>
			<point x="846.429" y="1125.57" type="line"/>
			<point x="637" y="461.429" type="line"/>
			<point x="623.429" y="421.571"/>
			<point x="610.429" y="374.143"/>
			<point x="602.286" y="319.429" type="curve"/>
			<point x="594.857" y="319.429" type="line"/>
			<point x="589.429" y="364.429"/>
			<point x="577.857" y="421.571"/>
			<point x="564" y="464.286" type="curve" smooth="yes"/>
			<point x="359.286" y="1125.57" type="line"/>
		</contour>
	</outline>
	<anchor name="bottom" x="257.143" y="-492.857"/>
	<anchor name="top" x="598.286" y="1125.57"/>
	<anchor name="topright" x="1154.86" y="1125.57"/>
</glyph>
<glyph name="bar" format="2">
	<unicode hex="007C"/>
	<advance width="1050"/>
	<outline>
		<contour>
			<point x="405.714" y="1557" type="line"/>
			<point x="405.714" y="-455.714" type="line"/>
			<point x="642.714" y="-455.714" type="line"/>
			<point x="642.714" y="1557" type="line"/>
		</contour>
	</outline>
</glyph>
<glyph name="braceright" format="2">
	<unicode hex="007D"/>
	<advance width="859"/>
	<outline>
		<contour>
			<point x="67.1429" y="-341.143" type="line"/>
			<point x="458.143" y="-341.143"/>
			<point x="555.714" y="-237.857"/>
			<point x="555.714" y="-6.71429" type="curve" smooth="yes"/>
			<point x="555.714" y="255.857" type="line" smooth="yes"/>
			<point x="555.714" y="385.571"/>
			<point x="669" y="436.143"/>
			<point x="797.857" y="436.143" type="curve"/>
			<point x="797.857" y="701.143" type="line"/>
			<point x="665.571" y="701.143"/>
			<point x="555.714" y="749"/>
			<point x="555.714" y="881.429" type="curve" smooth="yes"/>
			<point x="555.714" y="1149.14" type="line" smooth="yes"/>
			<point x="555.714" y="1374.29"/>
			<point x="464.143" y="1480"/>
			<point x="67.1429" y="1480" type="curve"/>
			<point x="67.1429" y="1233.57" type="line"/>
			<point x="164.286" y="1231.86"/>
			<point x="270" y="1219.86"/>
			<point x="270" y="1108.86" type="curve" smooth="yes"/>
			<point x="270" y="827" type="line" smooth="yes"/>
			<point x="270" y="665.714"/>
			<point x="351.286" y="595.714"/>
			<point x="498.857" y="574.429" type="curve"/>
			<point x="498.857" y="563.571" type="line"/>
			<point x="347.857" y="539.857"/>
			<point x="270" y="469.857"/>
			<point x="270" y="316.143" type="curve" smooth="yes"/>
			<point x="270" y="29.2857" type="line" smooth="yes"/>
			<point x="270" y="-79.2857"/>
			<point x="162.571" y="-92.8571"/>
			<point x="67.1429" y="-95.4286" type="curve"/>
		</contour>
	</outline>
</glyph>
<glyph name="asciitilde" format="2">
	<unicode hex="007E"/>
	<advance width="1195"/>
	<outline>
		<contour>
			<point x="563.429" y="607.429" type="curve"/>
			<point x="689" y="556.143"/>
			<point x="756.143" y="543"/>
			<point x="838.714" y="543" type="curve" smooth="yes"/>
			<point x="945.429" y="543"/>
			<point x="1031" y="581.143"/>
			<point x="1098.43" y="650.714" type="curve"/>
			<point x="1098.43" y="900.143" type="line"/>
			<point x="1026.71" y="829.571"/>
			<point x="941.857" y="780.571"/>
			<point x="866.143" y="780.571" type="curve" smooth="yes"/>
			<point x="801.857" y="780.571"/>
			<point x="728.571" y="794.714"/>
			<point x="632.286" y="836.714" type="curve"/>
			<point x="507.143" y="887.714"/>
			<point x="440.714" y="900.429"/>
			<point x="355.714" y="900.429" type="curve" smooth="yes"/>
			<point x="248.571" y="900.429"/>
			<point x="164" y="864"/>
			<point x="95.2857" y="793.857" type="curve"/>
			<point x="95.2857" y="543.857" type="line"/>
			<point x="166.429" y="613.857"/>
			<point x="250" y="663.714"/>
			<point x="330" y="663.714" type="curve" smooth="yes"/>
			<point x="397.857" y="663.714"/>
			<point x="467.143" y="649.571"/>
		</contour>
	</outline>
</glyph>
<glyph name="exclamdown" format="2">
	<unicode hex="00A1"/>
	<advance width="574"/>
	<outline>
		<contour>
			<point x="142.714" y="628.143" type="line"/>
			<point x="98.4286" y="-340.714" type="line"/>
			<point x="476.857" y="-340.714" type="line"/>
			<point x="432.571" y="628.143" type="line"/>
		</contour>
		<contour>
			<point x="477.286" y="973.143" type="curve" smooth="yes"/>
			<point x="477.286" y="1093.86"/>
			<point x="393.429" y="1145.14"/>
			<point x="289" y="1145.14" type="curve" smooth="yes"/>
			<point x="185.143" y="1145.14"/>
			<point x="103.714" y="1093.86"/>
			<point x="103.714" y="973.143" type="curve" smooth="yes"/>
			<point x="103.714" y="846.714"/>
			<point x="185.143" y="798.714"/>
			<point x="289" y="798.714" type="curve" smooth="yes"/>
			<point x="393.429" y="798.714"/>
			<point x="477.286" y="846.714"/>
		</contour>
	</outline>
</glyph>
<glyph name="cent" format="2">
	<unicode hex="00A2"/>
	<advance width="1195"/>
	<outline>
		<contour>
			<point x="760.571" y="1483" type="line"/>
			<point x="575.857" y="1483" type="line"/>
			<point x="575.857" y="1315" type="line"/>
			<point x="312.857" y="1267.14"/>
			<point x="135.429" y="1077.86"/>
			<point x="135.429" y="739" type="curve" smooth="yes"/>
			<point x="135.429" y="395.143"/>
			<point x="298.143" y="205.857"/>
			<point x="575.857" y="168.571" type="curve"/>
			<point x="575.857" y="-20" type="line"/>
			<point x="760.571" y="-20" type="line"/>
			<point x="760.571" y="163.429" type="line"/>
			<point x="875.857" y="174"/>
			<point x="965.857" y="207.571"/>
			<point x="1041.71" y="255.143" type="curve"/>
			<point x="1041.71" y="529" type="line"/>
			<point x="943.714" y="470.286"/>
			<point x="830" y="435.714"/>
			<point x="719.143" y="435.714" type="curve" smooth="yes"/>
			<point x="572.571" y="435.714"/>
			<point x="483.571" y="533"/>
			<point x="483.571" y="740.714" type="curve" smooth="yes"/>
			<point x="483.571" y="947.714"/>
			<point x="578.286" y="1057"/>
			<point x="722.429" y="1057" type="curve" smooth="yes"/>
			<point x="807.143" y="1057"/>
			<point x="884" y="1032.14"/>
			<point x="976.286" y="991.714" type="curve"/>
			<point x="1076.29" y="1246.71" type="line"/>
			<point x="983.286" y="1292"/>
			<point x="878.143" y="1320.71"/>
			<point x="760.571" y="1325.86" type="curve"/>
		</contour>
	</outline>
</glyph>
<glyph name="sterling" format="2">
	<unicode hex="00A3"/>
	<advance width="1195"/>
	<outline>
		<contour>
			<point x="720.429" y="1484.43" type="curve" smooth="yes"/>
			<point x="455" y="1484.43"/>
			<point x="278" y="1351.86"/>
			<point x="278" y="1045.86" type="curve" smooth="yes"/>
			<point x="278" y="899" type="line"/>
			<point x="104.429" y="899" type="line"/>
			<point x="104.429" y="654.286" type="line"/>
			<point x="278" y="654.286" type="line"/>
			<point x="278" y="527" type="line" smooth="yes"/>
			<point x="278" y="380.857"/>
			<point x="218.571" y="334"/>
			<point x="101.429" y="275" type="curve"/>
			<point x="101.429" y="0" type="line"/>
			<point x="1150.14" y="0" type="line"/>
			<point x="1150.14" y="286.714" type="line"/>
			<point x="455.857" y="286.714" type="line"/>
			<point x="530.286" y="322.571"/>
			<point x="615.571" y="389.571"/>
			<point x="615.571" y="529" type="curve" smooth="yes"/>
			<point x="615.571" y="654.286" type="line"/>
			<point x="968.714" y="654.286" type="line"/>
			<point x="968.714" y="899" type="line"/>
			<point x="615.571" y="899" type="line"/>
			<point x="615.571" y="1034.43" type="line" smooth="yes"/>
			<point x="615.571" y="1165"/>
			<point x="672.286" y="1206.29"/>
			<point x="757.286" y="1206.29" type="curve" smooth="yes"/>
			<point x="825.857" y="1206.29"/>
			<point x="912.429" y="1189.29"/>
			<point x="1013.57" y="1150.57" type="curve"/>
			<point x="1110.57" y="1405.57" type="line"/>
			<point x="999.714" y="1452.29"/>
			<point x="863.143" y="1484.43"/>
		</contour>
	</outline>
</glyph>
<glyph name="currency" format="2">
	<unicode hex="00A4"/>
	<advance width="1160"/>
	<outline>
		<contour>
			<point x="178.857" y="723.286" type="curve" smooth="yes"/>
			<point x="178.857" y="654.429"/>
			<point x="195" y="593.143"/>
			<point x="228.571" y="535" type="curve"/>
			<point x="100.714" y="410.143" type="line"/>
			<point x="257.571" y="252.857" type="line"/>
			<point x="382.429" y="374.286" type="line"/>
			<point x="439.857" y="341.143"/>
			<point x="504.429" y="327.571"/>
			<point x="572.571" y="327.571" type="curve" smooth="yes"/>
			<point x="641.429" y="327.571"/>
			<point x="708" y="346.286"/>
			<point x="763.714" y="376" type="curve"/>
			<point x="889.143" y="251.143" type="line"/>
			<point x="1047.29" y="408.429" type="line"/>
			<point x="920.714" y="533.286" type="line"/>
			<point x="954.571" y="591.429"/>
			<point x="970.714" y="652.714"/>
			<point x="970.714" y="723.286" type="curve" smooth="yes"/>
			<point x="970.714" y="791.286"/>
			<point x="952.857" y="862"/>
			<point x="920.714" y="915" type="curve"/>
			<point x="1052.14" y="1044.71" type="line"/>
			<point x="889.143" y="1198.57" type="line"/>
			<point x="763.714" y="1067.14" type="line"/>
			<point x="702.857" y="1103.71"/>
			<point x="641.429" y="1120.71"/>
			<point x="572.571" y="1120.71" type="curve" smooth="yes"/>
			<point x="513" y="1120.71"/>
			<point x="441.571" y="1102"/>
			<point x="385.857" y="1070.57" type="curve"/>
			<point x="257.571" y="1198.86" type="line"/>
			<point x="99" y="1038.14" type="line"/>
			<point x="228.571" y="913.286" type="line"/>
			<point x="198.429" y="858.571"/>
			<point x="178.857" y="791.286"/>
		</contour>
		<contour>
			<point x="404.714" y="723.286" type="curve" smooth="yes"/>
			<point x="404.714" y="819.143"/>
			<point x="481.571" y="893.143"/>
			<point x="572.857" y="893.143" type="curve" smooth="yes"/>
			<point x="668" y="893.143"/>
			<point x="746.571" y="818.857"/>
			<point x="746.571" y="723.571" type="curve" smooth="yes"/>
			<point x="746.571" y="629.714"/>
			<point x="668" y="555.143"/>
			<point x="572.286" y="555.143" type="curve" smooth="yes"/>
			<point x="481.857" y="555.143"/>
			<point x="404.714" y="628.286"/>
		</contour>
	</outline>
</glyph>
<glyph name="yen" format="2">
	<unicode hex="00A5"/>
	<advance width="1195"/>
	<outline>
		<contour>
			<point x="598" y="919.429" type="line"/>
			<point x="366.143" y="1462" type="line"/>
			<point x="14.1429" y="1462" type="line"/>
			<point x="387.571" y="737.429" type="line"/>
			<point x="175.857" y="737.429" type="line"/>
			<point x="175.857" y="549.143" type="line"/>
			<point x="438.143" y="549.143" type="line"/>
			<point x="438.143" y="416.429" type="line"/>
			<point x="175.857" y="416.429" type="line"/>
			<point x="175.857" y="230" type="line"/>
			<point x="438.143" y="230" type="line"/>
			<point x="438.143" y="0" type="line"/>
			<point x="757.714" y="0" type="line"/>
			<point x="757.714" y="230" type="line"/>
			<point x="1016.43" y="230" type="line"/>
			<point x="1016.43" y="416.429" type="line"/>
			<point x="757.714" y="416.429" type="line"/>
			<point x="757.714" y="549.143" type="line"/>
			<point x="1016.43" y="549.143" type="line"/>
			<point x="1016.43" y="737.429" type="line"/>
			<point x="800.143" y="737.429" type="line"/>
			<point x="1181.14" y="1462" type="line"/>
			<point x="830.143" y="1462" type="line"/>
		</contour>
	</outline>
</glyph>
<glyph name="brokenbar" format="2">
	<unicode hex="00A6"/>
	<advance width="1050"/>
	<outline>
		<contour>
			<point x="405.714" y="1557" type="line"/>
			<point x="405.714" y="730.143" type="line"/>
			<point x="642.714" y="730.143" type="line"/>
			<point x="642.714" y="1557" type="line"/>
		</contour>
		<contour>
			<point x="405.714" y="371.429" type="line"/>
			<point x="405.714" y="-455.714" type="line"/>
			<point x="642.714" y="-455.714" type="line"/>
			<point x="642.714" y="371.429" type="line"/>
		</contour>
	</outline>
</glyph>
<glyph name="dieresis" format="2">
	<unicode hex="00A8"/>
	<advance width="1225"/>
	<outline>
		<contour>
			<point x="240.857" y="1409.57" type="curve" smooth="yes"/>
			<point x="240.857" y="1313.71"/>
			<point x="305.714" y="1266.71"/>
			<point x="393.286" y="1266.71" type="curve" smooth="yes"/>
			<point x="478.571" y="1266.71"/>
			<point x="548" y="1313.71"/>
			<point x="548" y="1409.57" type="curve" smooth="yes"/>
			<point x="548" y="1507.57"/>
			<point x="478.571" y="1554"/>
			<point x="393.286" y="1554" type="curve" smooth="yes"/>
			<point x="305.714" y="1554"/>
			<point x="240.857" y="1507.57"/>
		</contour>
		<contour>
			<point x="705.571" y="1409.57" type="curve" smooth="yes"/>
			<point x="705.571" y="1313.71"/>
			<point x="770.429" y="1266.71"/>
			<point x="859.714" y="1266.71" type="curve" smooth="yes"/>
			<point x="945.857" y="1266.71"/>
			<point x="1015.29" y="1313.71"/>
			<point x="1015.29" y="1409.57" type="curve" smooth="yes"/>
			<point x="1015.29" y="1507.57"/>
			<point x="945.857" y="1554"/>
			<point x="859.714" y="1554" type="curve" smooth="yes"/>
			<point x="770.429" y="1554"/>
			<point x="705.571" y="1507.57"/>
		</contour>
	</outline>
</glyph>
<glyph name="logicalnot" format="2">
	<unicode hex="00AC"/>
	<advance width="1195"/>
	<outline>
		<contour>
			<point x="1093.71" y="840.571" type="line"/>
			<point x="95" y="840.571" type="line"/>
			<point x="95" y="603.714" type="line"/>
			<point x="855.286" y="603.714" type="line"/>
			<point x="855.286" y="242.571" type="line"/>
			<point x="1093.71" y="242.571" type="line"/>
		</contour>
	</outline>
</glyph>
<glyph name="registered" format="2">
	<unicode hex="00AE"/>
	<advance width="1690"/>
	<outline>
		<contour>
			<point x="531.143" y="310.143" type="line"/>
			<point x="768.286" y="310.143" type="line"/>
			<point x="768.286" y="637.429" type="line"/>
			<point x="831.286" y="637.429" type="line"/>
			<point x="988.286" y="310.143" type="line"/>
			<point x="1236" y="310.143" type="line"/>
			<point x="1036.29" y="675.714" type="line"/>
			<point x="1119.57" y="712.143"/>
			<point x="1184.43" y="779.143"/>
			<point x="1184.43" y="918.286" type="curve" smooth="yes"/>
			<point x="1184.43" y="1090.29"/>
			<point x="1072.29" y="1184.71"/>
			<point x="804.857" y="1184.71" type="curve" smooth="yes"/>
			<point x="531.143" y="1184.71" type="line"/>
		</contour>
		<contour>
			<point x="767.857" y="794.714" type="line"/>
			<point x="767.857" y="1010.57" type="line"/>
			<point x="806" y="1010.57" type="line" smooth="yes"/>
			<point x="890.429" y="1010.57"/>
			<point x="946" y="990.429"/>
			<point x="946" y="908.857" type="curve" smooth="yes"/>
			<point x="946" y="825.143"/>
			<point x="889.286" y="794.714"/>
			<point x="803.714" y="794.714" type="curve" smooth="yes"/>
		</contour>
		<contour>
			<point x="845.143" y="-19.4286" type="curve" smooth="yes"/>
			<point x="1277.71" y="-19.4286"/>
			<point x="1596" y="298.429"/>
			<point x="1596" y="731" type="curve" smooth="yes"/>
			<point x="1596" y="1160"/>
			<point x="1281.14" y="1482.43"/>
			<point x="845.143" y="1482.43" type="curve" smooth="yes"/>
			<point x="413.143" y="1482.43"/>
			<point x="93.4286" y="1165.57"/>
			<point x="93.4286" y="731" type="curve" smooth="yes"/>
			<point x="93.4286" y="298.857"/>
			<point x="408.857" y="-19.4286"/>
		</contour>
		<contour>
			<point x="845.143" y="127.571" type="curve" smooth="yes"/>
			<point x="496" y="127.571"/>
			<point x="255.429" y="380.286"/>
			<point x="255.429" y="731" type="curve" smooth="yes"/>
			<point x="255.429" y="1082.86"/>
			<point x="499.571" y="1334.43"/>
			<point x="845.143" y="1334.43" type="curve" smooth="yes"/>
			<point x="1188.43" y="1334.43"/>
			<point x="1430.57" y="1081.14"/>
			<point x="1430.57" y="731" type="curve" smooth="yes"/>
			<point x="1430.57" y="381.429"/>
			<point x="1188.43" y="127.571"/>
		</contour>
	</outline>
</glyph>
<glyph name="degree" format="2">
	<unicode hex="00B0"/>
	<advance width="866"/>
	<outline>
		<contour>
			<point x="432.857" y="771.857" type="curve" smooth="yes"/>
			<point x="641.143" y="771.857"/>
			<point x="791" y="915.714"/>
			<point x="791" y="1125.43" type="curve" smooth="yes"/>
			<point x="791" y="1332.29"/>
			<point x="641.143" y="1483"/>
			<point x="432.857" y="1483" type="curve" smooth="yes"/>
			<point x="224.857" y="1483"/>
			<point x="74.7143" y="1332.86"/>
			<point x="74.7143" y="1125.43" type="curve" smooth="yes"/>
			<point x="74.7143" y="915.714"/>
			<point x="225.143" y="771.857"/>
		</contour>
		<contour>
			<point x="432.571" y="982.286" type="curve" smooth="yes"/>
			<point x="343.571" y="982.286"/>
			<point x="286.714" y="1040.43"/>
			<point x="286.714" y="1125.43" type="curve" smooth="yes"/>
			<point x="286.714" y="1214.43"/>
			<point x="343.571" y="1273.43"/>
			<point x="432.571" y="1273.43" type="curve" smooth="yes"/>
			<point x="521" y="1273.43"/>
			<point x="579.143" y="1214.43"/>
			<point x="579.143" y="1125.43" type="curve" smooth="yes"/>
			<point x="579.143" y="1040.43"/>
			<point x="521" y="982.286"/>
		</contour>
	</outline>
</glyph>
<glyph name="threesuperior" format="2">
	<unicode hex="00B3"/>
	<advance width="796"/>
	<outline>
		<contour>
			<point x="397.714" y="1746.43" type="curve" smooth="yes"/>
			<point x="256.857" y="1746.43"/>
			<point x="145.286" y="1698"/>
			<point x="64.2857" y="1635.86" type="curve"/>
			<point x="167.429" y="1483.71" type="line"/>
			<point x="238.571" y="1536.71"/>
			<point x="296.571" y="1558.29"/>
			<point x="367.714" y="1558.29" type="curve" smooth="yes"/>
			<point x="443.286" y="1558.29"/>
			<point x="475" y="1519.14"/>
			<point x="475" y="1476.86" type="curve" smooth="yes"/>
			<point x="475" y="1422.43"/>
			<point x="440.143" y="1383.29"/>
			<point x="323.286" y="1383.29" type="curve" smooth="yes"/>
			<point x="235.143" y="1383.29" type="line"/>
			<point x="235.143" y="1208.86" type="line"/>
			<point x="343.857" y="1208.86" type="line" smooth="yes"/>
			<point x="471.571" y="1208.86"/>
			<point x="495" y="1170.71"/>
			<point x="495" y="1121.14" type="curve" smooth="yes"/>
			<point x="495" y="1060.43"/>
			<point x="441.857" y="1033.86"/>
			<point x="358.714" y="1033.86" type="curve" smooth="yes"/>
			<point x="253.571" y="1033.86"/>
			<point x="153" y="1056"/>
			<point x="67.5714" y="1112.29" type="curve"/>
			<point x="67.5714" y="903.571" type="line"/>
			<point x="147.857" y="858.857"/>
			<point x="253.286" y="837.143"/>
			<point x="369" y="837.143" type="curve" smooth="yes"/>
			<point x="596.857" y="837.143"/>
			<point x="735.286" y="927.714"/>
			<point x="735.286" y="1092" type="curve" smooth="yes"/>
			<point x="735.286" y="1206.43"/>
			<point x="673" y="1274.57"/>
			<point x="546.286" y="1306.43" type="curve"/>
			<point x="546.286" y="1313.86" type="line"/>
			<point x="659.571" y="1353.57"/>
			<point x="707.429" y="1427.86"/>
			<point x="707.429" y="1531.71" type="curve" smooth="yes"/>
			<point x="707.429" y="1661.57"/>
			<point x="592.857" y="1746.43"/>
		</contour>
	</outline>
</glyph>
<glyph name="guillemotright" format="2">
	<unicode hex="00BB"/>
	<advance width="1310"/>
	<outline>
		<contour>
			<point x="1238.43" y="561" type="line"/>
			<point x="1238.43" y="588" type="line"/>
			<point x="862.286" y="1056.14" type="line"/>
			<point x="613.286" y="925.143" type="line"/>
			<point x="889.143" y="574.714" type="line"/>
			<point x="613.286" y="223.571" type="line"/>
			<point x="862.286" y="94" type="line"/>
		</contour>
		<contour>
			<point x="695.286" y="561" type="line"/>
			<point x="695.286" y="588" type="line"/>
			<point x="319.143" y="1056.14" type="line"/>
			<point x="72.7143" y="925.143" type="line"/>
			<point x="346" y="574.714" type="line"/>
			<point x="72.7143" y="223.571" type="line"/>
			<point x="319.143" y="94" type="line"/>
		</contour>
	</outline>
</glyph>
<glyph name="Aring" format="2">
	<unicode hex="00C5"/>
	<advance width="1443"/>
	<outline>
		<contour>
			<point x="1064.86" y="0" type="line"/>
			<point x="1443.43" y="0" type="line"/>
			<point x="950.429" y="1467.71" type="line"/>
			<point x="491.429" y="1467.71" type="line"/>
			<point x="0" y="0" type="line"/>
			<point x="380.143" y="0" type="line"/>
			<point x="474.857" y="314.143" type="line"/>
			<point x="972.714" y="314.143" type="line"/>
		</contour>
		<contour>
			<point x="899.571" y="599.143" type="line"/>
			<point x="547.857" y="599.143" type="line"/>
			<point x="635.714" y="891.714" type="line"/>
			<point x="660.143" y="982"/>
			<point x="704.286" y="1155.86"/>
			<point x="722.571" y="1251.29" type="curve"/>
			<point x="742.714" y="1153.86"/>
			<point x="793" y="964.857"/>
			<point x="813.429" y="892.143" type="curve"/>
		</contour>
		<contour>
			<point x="717.143" y="1320.43" type="curve" smooth="yes"/>
			<point x="863.429" y="1320.43"/>
			<point x="979.571" y="1414.71"/>
			<point x="979.571" y="1567.43" type="curve" smooth="yes"/>
			<point x="979.571" y="1717.29"/>
			<point x="861.714" y="1812.71"/>
			<point x="717.143" y="1812.71" type="curve" smooth="yes"/>
			<point x="565.571" y="1812.71"/>
			<point x="461.286" y="1717.86"/>
			<point x="461.286" y="1565.71" type="curve" smooth="yes"/>
			<point x="461.286" y="1414.43"/>
			<point x="565.857" y="1320.43"/>
		</contour>
		<contour>
			<point x="717.143" y="1471.43" type="curve" smooth="yes"/>
			<point x="656.857" y="1471.43"/>
			<point x="622.571" y="1511.43"/>
			<point x="622.571" y="1565.71" type="curve" smooth="yes"/>
			<point x="622.571" y="1621.71"/>
			<point x="664" y="1660"/>
			<point x="717.143" y="1660" type="curve" smooth="yes"/>
			<point x="769.429" y="1660"/>
			<point x="811.286" y="1621.71"/>
			<point x="811.286" y="1565.71" type="curve" smooth="yes"/>
			<point x="811.286" y="1511.43"/>
			<point x="770.571" y="1471.43"/>
		</contour>
	</outline>
	<anchor name="bottom" x="721.429" y="0"/>
	<anchor name="top" x="721.429" y="1811.86"/>
</glyph>
<glyph name="AE" format="2">
	<unicode hex="00C6"/>
	<advance width="1884"/>
	<outline>
		<contour>
			<point x="1795.71" y="0" type="line"/>
			<point x="1795.71" y="283.286" type="line"/>
			<point x="1285.29" y="283.286" type="line"/>
			<point x="1285.29" y="619" type="line"/>
			<point x="1759.86" y="619" type="line"/>
			<point x="1759.86" y="898.143" type="line"/>
			<point x="1285.29" y="898.143" type="line"/>
			<point x="1285.29" y="1183" type="line"/>
			<point x="1795.71" y="1183" type="line"/>
			<point x="1795.71" y="1462" type="line"/>
			<point x="619.286" y="1462" type="line"/>
			<point x="-8.85714" y="0" type="line"/>
			<point x="379" y="0" type="line"/>
			<point x="498.143" y="313.857" type="line"/>
			<point x="937.429" y="313.857" type="line"/>
			<point x="937.429" y="0" type="line"/>
		</contour>
		<contour>
			<point x="605.286" y="602.286" type="line"/>
			<point x="830" y="1168.43" type="line"/>
			<point x="937.429" y="1168.43" type="line"/>
			<point x="937.429" y="602.286" type="line"/>
		</contour>
	</outline>
	<anchor name="bottom" x="942.286" y="0"/>
	<anchor name="top" x="1038.29" y="1462"/>
</glyph>
<glyph name="Thorn" format="2">
	<unicode hex="00DE"/>
	<advance width="1268"/>
	<outline>
		<contour>
			<point x="1196.43" y="783.714" type="curve" smooth="yes"/>
			<point x="1196.43" y="1079.29"/>
			<point x="1014.43" y="1240.86"/>
			<point x="651.286" y="1240.86" type="curve" smooth="yes"/>
			<point x="511.714" y="1240.86" type="line"/>
			<point x="511.714" y="1462" type="line"/>
			<point x="165.571" y="1462" type="line"/>
			<point x="165.571" y="0" type="line"/>
			<point x="511.714" y="0" type="line"/>
			<point x="511.714" y="283.714" type="line"/>
			<point x="644" y="283.714" type="line" smooth="yes"/>
			<point x="1047.14" y="283.714"/>
			<point x="1196.43" y="512.714"/>
		</contour>
		<contour>
			<point x="511.714" y="567.143" type="line"/>
			<point x="511.714" y="960.143" type="line"/>
			<point x="641.571" y="960.143" type="line" smooth="yes"/>
			<point x="784" y="960.143"/>
			<point x="845.714" y="897.143"/>
			<point x="845.714" y="782" type="curve" smooth="yes"/>
			<point x="845.714" y="627.429"/>
			<point x="739" y="567.143"/>
			<point x="609.429" y="567.143" type="curve" smooth="yes"/>
		</contour>
	</outline>
	<anchor name="bottom" x="635.143" y="0"/>
	<anchor name="top" x="635.143" y="1462"/>
</glyph>
<glyph name="ae" format="2">
	<unicode hex="00E6"/>
	<advance width="1890"/>
	<outline>
		<contour>
			<point x="1322.71" y="1145.71" type="curve" smooth="yes"/>
			<point x="1161.14" y="1145.71"/>
			<point x="1054.43" y="1102.14"/>
			<point x="965.429" y="1020" type="curve"/>
			<point x="883.857" y="1105.14"/>
			<point x="770.429" y="1145.43"/>
			<point x="632.714" y="1145.43" type="curve" smooth="yes"/>
			<point x="474" y="1145.43"/>
			<point x="321.571" y="1112.71"/>
			<point x="195.571" y="1048.29" type="curve"/>
			<point x="292.429" y="821.286" type="line"/>
			<point x="400.857" y="871.714"/>
			<point x="514.286" y="901.571"/>
			<point x="606.143" y="901.571" type="curve" smooth="yes"/>
			<point x="693" y="901.571"/>
			<point x="761" y="862.286"/>
			<point x="761" y="733.714" type="curve" smooth="yes"/>
			<point x="761" y="705.714" type="line"/>
			<point x="576" y="698.857" type="line" smooth="yes"/>
			<point x="274.714" y="687.429"/>
			<point x="77.4286" y="586.143"/>
			<point x="77.4286" y="339.429" type="curve" smooth="yes"/>
			<point x="77.4286" y="97.1429"/>
			<point x="240.714" y="-20"/>
			<point x="433.429" y="-20" type="curve" smooth="yes"/>
			<point x="677" y="-20"/>
			<point x="774" y="36.5714"/>
			<point x="900.286" y="188.143" type="curve"/>
			<point x="995.857" y="49.5714"/>
			<point x="1148.57" y="-20"/>
			<point x="1328.71" y="-20" type="curve" smooth="yes"/>
			<point x="1512.57" y="-20"/>
			<point x="1621.71" y="5.14286"/>
			<point x="1731" y="60.7143" type="curve"/>
			<point x="1731" y="309.429" type="line"/>
			<point x="1602.29" y="245.571"/>
			<point x="1479.14" y="225.571"/>
			<point x="1373.29" y="225.571" type="curve" smooth="yes"/>
			<point x="1193.71" y="225.571"/>
			<point x="1098" y="330.714"/>
			<point x="1093.43" y="473" type="curve"/>
			<point x="1798.57" y="473" type="line"/>
			<point x="1798.57" y="627.714" type="line"/>
			<point x="1800.29" y="966.714"/>
			<point x="1606.14" y="1145.71"/>
		</contour>
		<contour>
			<point x="762.714" y="514.143" type="line"/>
			<point x="762.714" y="422.714" type="line"/>
			<point x="762.143" y="305"/>
			<point x="678.857" y="223.857"/>
			<point x="563.714" y="223.857" type="curve" smooth="yes"/>
			<point x="480" y="223.857"/>
			<point x="427.714" y="259.571"/>
			<point x="427.714" y="342.857" type="curve" smooth="yes"/>
			<point x="427.714" y="443.857"/>
			<point x="492.286" y="503.857"/>
			<point x="663.143" y="509.286" type="curve"/>
		</contour>
		<contour>
			<point x="1303.86" y="910.429" type="curve" smooth="yes"/>
			<point x="1423.71" y="910.429"/>
			<point x="1489.29" y="813.714"/>
			<point x="1490.71" y="691.143" type="curve"/>
			<point x="1098.86" y="691.143" type="line"/>
			<point x="1111" y="847.571"/>
			<point x="1193.14" y="910.429"/>
		</contour>
	</outline>
	<anchor name="bottom" x="945.429" y="0"/>
	<anchor name="top" x="968.571" y="1125.57"/>
</glyph>
<glyph name="eth" format="2">
	<unicode hex="00F0"/>
	<advance width="1288"/>
	<outline>
		<contour>
			<point x="470.286" y="1569.71" type="curve"/>
			<point x="373.857" y="1407.57" type="line"/>
			<point x="429.286" y="1376.14"/>
			<point x="489.571" y="1339"/>
			<point x="532.857" y="1309.14" type="curve"/>
			<point x="374.286" y="1208.71" type="line"/>
			<point x="478.429" y="1045.14" type="line"/>
			<point x="672.143" y="1169.86" type="line"/>
			<point x="749.286" y="1093.43"/>
			<point x="796.714" y="1006.43"/>
			<point x="835.714" y="915" type="curve"/>
			<point x="828.286" y="911.571" type="line"/>
			<point x="788.571" y="971"/>
			<point x="709.143" y="1005.14"/>
			<point x="567.571" y="1005.14" type="curve" smooth="yes"/>
			<point x="297.286" y="1005.14"/>
			<point x="92.1429" y="825.429"/>
			<point x="92.1429" y="492.143" type="curve" smooth="yes"/>
			<point x="92.1429" y="161.429"/>
			<point x="317.143" y="-20"/>
			<point x="636.429" y="-20" type="curve" smooth="yes"/>
			<point x="976.571" y="-20"/>
			<point x="1187.71" y="213.429"/>
			<point x="1187.71" y="576.714" type="curve" smooth="yes"/>
			<point x="1187.71" y="895.143"/>
			<point x="1086.71" y="1114.43"/>
			<point x="891.143" y="1306.57" type="curve"/>
			<point x="1045.86" y="1407.86" type="line"/>
			<point x="943.571" y="1570" type="line"/>
			<point x="732.429" y="1433" type="line"/>
			<point x="661.143" y="1482.29"/>
			<point x="576.286" y="1524.43"/>
		</contour>
		<contour>
			<point x="641.286" y="757" type="curve" smooth="yes"/>
			<point x="783.286" y="757"/>
			<point x="836.857" y="648"/>
			<point x="836.857" y="550.571" type="curve" smooth="yes"/>
			<point x="836.857" y="333.571"/>
			<point x="779" y="225.571"/>
			<point x="639.857" y="225.571" type="curve" smooth="yes"/>
			<point x="502.857" y="225.571"/>
			<point x="443.714" y="329.429"/>
			<point x="443.714" y="493.857" type="curve" smooth="yes"/>
			<point x="443.714" y="672.714"/>
			<point x="503.714" y="757"/>
		</contour>
	</outline>
	<anchor name="bottom" x="644.143" y="0"/>
	<anchor name="top" x="644.143" y="1571.43"/>
</glyph>
<glyph name="oslash" format="2">
	<unicode hex="00F8"/>
	<advance width="1336"/>
	<outline>
		<contour>
			<point x="1242.71" y="565" type="curve" smooth="yes"/>
			<point x="1242.71" y="757.286"/>
			<point x="1177.43" y="908.286"/>
			<point x="1068.29" y="1006.86" type="curve"/>
			<point x="1143.29" y="1117.71" type="line"/>
			<point x="993.714" y="1212.43" type="line"/>
			<point x="915.857" y="1096.14" type="line"/>
			<point x="845.571" y="1127.86"/>
			<point x="762.714" y="1145.71"/>
			<point x="671.714" y="1145.71" type="curve" smooth="yes"/>
			<point x="309" y="1145.71"/>
			<point x="91" y="935.571"/>
			<point x="91" y="565" type="curve" smooth="yes"/>
			<point x="91" y="369.857"/>
			<point x="156.286" y="218.571"/>
			<point x="267.571" y="118.571" type="curve"/>
			<point x="179.714" y="-11.8571" type="line"/>
			<point x="331" y="-108.143" type="line"/>
			<point x="422.286" y="27.8571" type="line"/>
			<point x="492.286" y="-2.71429"/>
			<point x="574.286" y="-20"/>
			<point x="664.857" y="-20" type="curve" smooth="yes"/>
			<point x="1028.71" y="-20"/>
			<point x="1242.71" y="194.714"/>
		</contour>
		<contour>
			<point x="420.286" y="565" type="curve" smooth="yes"/>
			<point x="420.286" y="788"/>
			<point x="490.857" y="907"/>
			<point x="668.286" y="907" type="curve" smooth="yes"/>
			<point x="711.857" y="907"/>
			<point x="746.714" y="898"/>
			<point x="777.143" y="881.143" type="curve"/>
			<point x="442.857" y="389.571" type="line"/>
			<point x="426.143" y="439"/>
			<point x="420.286" y="496.143"/>
		</contour>
		<contour>
			<point x="913.286" y="565" type="curve" smooth="yes"/>
			<point x="913.286" y="343.429"/>
			<point x="851.429" y="218.714"/>
			<point x="668.286" y="218.714" type="curve" smooth="yes"/>
			<point x="625.286" y="218.714"/>
			<point x="590.857" y="226.857"/>
			<point x="561.571" y="242.857" type="curve"/>
			<point x="891" y="729.571" type="line"/>
			<point x="907.571" y="685.571"/>
			<point x="913.286" y="627.714"/>
		</contour>
	</outline>
	<anchor name="bottom" x="668.857" y="0"/>
	<anchor name="top" x="670.571" y="1125.57"/>
</glyph>
<glyph name="kgreenlandic" format="2">
	<unicode hex="0138"/>
	<advance width="1290"/>
	<outline>
		<contour>
			<point x="1269.29" y="1125.57" type="line"/>
			<point x="883.857" y="1125.57" type="line"/>
			<point x="604.857" y="778.714" type="line"/>
			<point x="551.286" y="710"/>
			<point x="512.429" y="648.143"/>
			<point x="484.143" y="610.571" type="curve"/>
			<point x="477.714" y="610.571" type="line"/>
			<point x="481.429" y="673"/>
			<point x="486.571" y="757.286"/>
			<point x="486.571" y="872.857" type="curve" smooth="yes"/>
			<point x="486.571" y="1125.57" type="line"/>
			<point x="142" y="1125.57" type="line"/>
			<point x="142" y="0" type="line"/>
			<point x="486.571" y="0" type="line"/>
			<point x="486.571" y="308.286" type="line"/>
			<point x="626.286" y="424.857" type="line"/>
			<point x="904.429" y="0" type="line"/>
			<point x="1291.43" y="0" type="line"/>
			<point x="862.143" y="634" type="line"/>
		</contour>
	</outline>
	<anchor name="bottom" x="645.857" y="0"/>
	<anchor name="top" x="645.857" y="1125.57"/>
</glyph>
<glyph name="lslash" format="2">
	<unicode hex="0142"/>
	<advance width="793"/>
	<outline>
		<contour>
			<point x="227.286" y="0" type="line"/>
			<point x="570.857" y="0" type="line"/>
			<point x="570.857" y="651.857" type="line"/>
			<point x="820.857" y="802" type="line"/>
			<point x="692.286" y="1019.29" type="line"/>
			<point x="570.857" y="944.286" type="line"/>
			<point x="570.857" y="1556" type="line"/>
			<point x="227.286" y="1556" type="line"/>
			<point x="227.286" y="737.714" type="line"/>
			<point x="-23.7143" y="591.857" type="line"/>
			<point x="100.429" y="373.143" type="line"/>
			<point x="227.286" y="444.571" type="line"/>
		</contour>
	</outline>
	<anchor name="bottom" x="397.286" y="0"/>
	<anchor name="top" x="397.286" y="1556"/>
</glyph>
<glyph name="eng" format="2">
	<unicode hex="014B"/>
	<advance width="1344"/>
	<outline>
		<contour>
			<point x="822.857" y="-492" type="curve" smooth="yes"/>
			<point x="1100.14" y="-492"/>
			<point x="1206.71" y="-313.429"/>
			<point x="1206.71" y="-114" type="curve" smooth="yes"/>
			<point x="1206.71" y="733" type="line" smooth="yes"/>
			<point x="1206.71" y="1020.71"/>
			<point x="1036.57" y="1145.71"/>
			<point x="815.571" y="1145.71" type="curve" smooth="yes"/>
			<point x="667" y="1145.71"/>
			<point x="533.857" y="1089.57"/>
			<point x="466.286" y="973.143" type="curve"/>
			<point x="444.286" y="973.143" type="line"/>
			<point x="401" y="1125.57" type="line"/>
			<point x="142" y="1125.57" type="line"/>
			<point x="142" y="0" type="line"/>
			<point x="484.857" y="0" type="line"/>
			<point x="484.857" y="513.429" type="line" smooth="yes"/>
			<point x="484.857" y="748.429"/>
			<point x="541" y="875.286"/>
			<point x="701.571" y="875.286" type="curve" smooth="yes"/>
			<point x="803.571" y="875.286"/>
			<point x="862.286" y="803.714"/>
			<point x="862.286" y="662.429" type="curve" smooth="yes"/>
			<point x="862.286" y="-42.5714" type="line" smooth="yes"/>
			<point x="862.286" y="-178.143"/>
			<point x="809.286" y="-217.143"/>
			<point x="742.286" y="-217.143" type="curve" smooth="yes"/>
			<point x="699.571" y="-217.143"/>
			<point x="669.429" y="-211.429"/>
			<point x="624.286" y="-198.571" type="curve"/>
			<point x="624.286" y="-467.571" type="line"/>
			<point x="675.143" y="-481.286"/>
			<point x="763.286" y="-492"/>
		</contour>
	</outline>
	<anchor name="bottom" x="672" y="-492"/>
	<anchor name="top" x="672" y="1125.57"/>
	<anchor name="topright" x="1278.71" y="1125.57"/>
</glyph>
<glyph name="OE" format="2">
	<unicode hex="0152"/>
	<advance width="1943"/>
	<outline>
		<contour>
			<point x="776" y="1482.57" type="curve" smooth="yes"/>
			<point x="329.857" y="1482.57"/>
			<point x="107.571" y="1186.29"/>
			<point x="107.571" y="735" type="curve" smooth="yes"/>
			<point x="107.571" y="282.714"/>
			<point x="333.714" y="-18"/>
			<point x="773.429" y="-18" type="curve" smooth="yes"/>
			<point x="843.143" y="-18"/>
			<point x="950.714" y="-10.5714"/>
			<point x="1006" y="0" type="curve"/>
			<point x="1840.86" y="0" type="line"/>
			<point x="1840.86" y="283.286" type="line"/>
			<point x="1330.43" y="283.286" type="line"/>
			<point x="1330.43" y="619" type="line"/>
			<point x="1803.29" y="619" type="line"/>
			<point x="1803.29" y="898.143" type="line"/>
			<point x="1330.43" y="898.143" type="line"/>
			<point x="1330.43" y="1183" type="line"/>
			<point x="1840.86" y="1183" type="line"/>
			<point x="1840.86" y="1462" type="line"/>
			<point x="1015.71" y="1462" type="line"/>
			<point x="955" y="1475.14"/>
			<point x="849.143" y="1482.57"/>
		</contour>
		<contour>
			<point x="777.714" y="1197.57" type="curve" smooth="yes"/>
			<point x="859.429" y="1197.57"/>
			<point x="940.429" y="1181.29"/>
			<point x="983.429" y="1154.43" type="curve"/>
			<point x="983.429" y="309.286" type="line"/>
			<point x="936.143" y="284.429"/>
			<point x="856.857" y="271.286"/>
			<point x="775.143" y="271.286" type="curve" smooth="yes"/>
			<point x="569.286" y="271.286"/>
			<point x="472" y="448"/>
			<point x="472" y="733.286" type="curve" smooth="yes"/>
			<point x="472" y="1017.29"/>
			<point x="570.143" y="1197.57"/>
		</contour>
	</outline>
	<anchor name="bottom" x="972.571" y="0"/>
	<anchor name="top" x="972.571" y="1462"/>
</glyph>
<glyph name="oe" format="2">
	<unicode hex="0153"/>
	<advance width="2003"/>
	<outline>
		<contour>
			<point x="1434.57" y="1145.71" type="curve" smooth="yes"/>
			<point x="1246.71" y="1145.71"/>
			<point x="1121.29" y="1083.14"/>
			<point x="1029.71" y="984.714" type="curve"/>
			<point x="939.286" y="1087.14"/>
			<point x="810" y="1145.71"/>
			<point x="646.857" y="1145.71" type="curve" smooth="yes"/>
			<point x="300.429" y="1145.71"/>
			<point x="91" y="935.571"/>
			<point x="91" y="565" type="curve" smooth="yes"/>
			<point x="91" y="194.143"/>
			<point x="315.143" y="-20"/>
			<point x="640" y="-20" type="curve" smooth="yes"/>
			<point x="819.429" y="-20"/>
			<point x="955" y="41"/>
			<point x="1047.14" y="148.286" type="curve"/>
			<point x="1139.86" y="37.2857"/>
			<point x="1275.71" y="-20"/>
			<point x="1440.71" y="-20" type="curve" smooth="yes"/>
			<point x="1625.71" y="-20"/>
			<point x="1734.86" y="5.14286"/>
			<point x="1844.14" y="60.7143" type="curve"/>
			<point x="1844.14" y="309.429" type="line"/>
			<point x="1715.43" y="245.571"/>
			<point x="1592.29" y="225.571"/>
			<point x="1484.43" y="225.571" type="curve" smooth="yes"/>
			<point x="1300.29" y="225.571"/>
			<point x="1204.71" y="330.714"/>
			<point x="1200.14" y="473" type="curve"/>
			<point x="1911.57" y="473" type="line"/>
			<point x="1911.57" y="627.714" type="line" smooth="yes"/>
			<point x="1911.57" y="966.714"/>
			<point x="1719.29" y="1145.71"/>
		</contour>
		<contour>
			<point x="643.429" y="889" type="curve" smooth="yes"/>
			<point x="790.143" y="889"/>
			<point x="844.714" y="770.714"/>
			<point x="844.714" y="565" type="curve" smooth="yes"/>
			<point x="844.714" y="356.286"/>
			<point x="788" y="235.857"/>
			<point x="643.429" y="235.857" type="curve" smooth="yes"/>
			<point x="498.429" y="235.857"/>
			<point x="440.857" y="355.714"/>
			<point x="440.857" y="565" type="curve" smooth="yes"/>
			<point x="440.857" y="776"/>
			<point x="502.857" y="889"/>
		</contour>
		<contour>
			<point x="1414.86" y="910.429" type="curve" smooth="yes"/>
			<point x="1536.86" y="910.429"/>
			<point x="1602.29" y="813.714"/>
			<point x="1603.71" y="691.143" type="curve"/>
			<point x="1205.57" y="691.143" type="line"/>
			<point x="1217.57" y="847.571"/>
			<point x="1299.86" y="910.429"/>
		</contour>
	</outline>
	<anchor name="bottom" x="1002.14" y="0"/>
	<anchor name="top" x="1002.14" y="1125.57"/>
</glyph>
<glyph name="Uogonek" format="2">
	<unicode hex="0172"/>
	<advance width="1537"/>
	<outline>
		<component base="U"/>
		<contour>
			<point x="1037.29" y="-190" type="curve" smooth="yes"/>
			<point x="1037.29" y="-68.8571"/>
			<point x="1120.43" y="22.5714"/>
			<point x="1238.14" y="157.429" type="curve"/>
			<point x="1042.29" y="118.286" type="line"/>
			<point x="868.857" y="-17.7143"/>
			<point x="812.143" y="-136.143"/>
			<point x="812.143" y="-244.286" type="curve" smooth="yes"/>
			<point x="812.143" y="-401.286"/>
			<point x="926.143" y="-485.143"/>
			<point x="1072.43" y="-485.143" type="curve" smooth="yes"/>
			<point x="1142" y="-485.143"/>
			<point x="1194.43" y="-472.857"/>
			<point x="1237.14" y="-459.714" type="curve"/>
			<point x="1237.14" y="-263.286" type="line"/>
			<point x="1209" y="-274.714"/>
			<point x="1156.57" y="-284.143"/>
			<point x="1121" y="-284.143" type="curve" smooth="yes"/>
			<point x="1069.43" y="-284.143"/>
			<point x="1037.29" y="-262.571"/>
		</contour>
	</outline>
	<anchor name="bottom" x="765.857" y="-485.143"/>
	<anchor name="top" x="769.286" y="1462"/>
</glyph>
<glyph name="longs" format="2">
	<unicode hex="017F"/>
	<advance width="793"/>
	<outline>
		<contour>
			<point x="614.571" y="1318.86" type="curve" smooth="yes"/>
			<point x="675.286" y="1318.86"/>
			<point x="718.857" y="1302.43"/>
			<point x="767.857" y="1287.57" type="curve"/>
			<point x="833" y="1518" type="line"/>
			<point x="767.143" y="1544.71"/>
			<point x="671" y="1567"/>
			<point x="542.571" y="1567" type="curve" smooth="yes"/>
			<point x="296.143" y="1567"/>
			<point x="142.286" y="1487.86"/>
			<point x="142.286" y="1152.57" type="curve" smooth="yes"/>
			<point x="142.286" y="0" type="line"/>
			<point x="485.143" y="0" type="line"/>
			<point x="485.143" y="1144.86" type="line" smooth="yes"/>
			<point x="485.143" y="1260.71"/>
			<point x="514.857" y="1318.86"/>
		</contour>
	</outline>
	<anchor name="bottom" x="397.857" y="0"/>
	<anchor name="top" x="467.714" y="1567"/>
</glyph>
<glyph name="uni0181" format="2">
	<unicode hex="0181"/>
	<advance width="1658"/>
	<outline>
		<contour>
			<point x="452" y="0" type="line"/>
			<point x="1016.29" y="0" type="line" smooth="yes"/>
			<point x="1353.86" y="0"/>
			<point x="1559.43" y="162.143"/>
			<point x="1559.43" y="424.571" type="curve" smooth="yes"/>
			<point x="1559.43" y="658.286"/>
			<point x="1443.71" y="736.143"/>
			<point x="1317.57" y="766.286" type="curve"/>
			<point x="1317.57" y="777.143" type="line"/>
			<point x="1446.43" y="799.857"/>
			<point x="1522.43" y="928.571"/>
			<point x="1522.43" y="1094.57" type="curve" smooth="yes"/>
			<point x="1522.43" y="1373.43"/>
			<point x="1314.29" y="1462"/>
			<point x="916.857" y="1462" type="curve" smooth="yes"/>
			<point x="408.714" y="1462" type="line" smooth="yes"/>
			<point x="107.286" y="1462"/>
			<point x="8" y="1290"/>
			<point x="8" y="1092.29" type="curve" smooth="yes"/>
			<point x="8" y="1035.29"/>
			<point x="23.5714" y="992.286"/>
			<point x="33.8571" y="972" type="curve"/>
			<point x="304.571" y="972" type="line"/>
			<point x="296.571" y="992.571"/>
			<point x="283.714" y="1019.86"/>
			<point x="283.714" y="1066.57" type="curve" smooth="yes"/>
			<point x="283.714" y="1125.86"/>
			<point x="320.143" y="1174.43"/>
			<point x="399" y="1174.43" type="curve" smooth="yes"/>
			<point x="452" y="1174.43" type="line"/>
		</contour>
		<contour>
			<point x="803.429" y="290.143" type="line"/>
			<point x="803.429" y="620.429" type="line"/>
			<point x="970" y="620.429" type="line" smooth="yes"/>
			<point x="1144.71" y="620.429"/>
			<point x="1195" y="555.429"/>
			<point x="1195" y="462.857" type="curve" smooth="yes"/>
			<point x="1195" y="360"/>
			<point x="1144.14" y="290.143"/>
			<point x="976.571" y="290.143" type="curve" smooth="yes"/>
		</contour>
		<contour>
			<point x="803.429" y="897.857" type="line"/>
			<point x="803.429" y="1174.43" type="line"/>
			<point x="940.857" y="1174.43" type="line" smooth="yes"/>
			<point x="1098.43" y="1174.43"/>
			<point x="1161.43" y="1138.71"/>
			<point x="1161.43" y="1042.86" type="curve" smooth="yes"/>
			<point x="1161.43" y="949.857"/>
			<point x="1113.29" y="897.857"/>
			<point x="954.571" y="897.857" type="curve" smooth="yes"/>
		</contour>
	</outline>
	<anchor name="bottom" x="834.429" y="0"/>
	<anchor name="top" x="834.429" y="1462"/>
</glyph>
<glyph name="uni0183" format="2">
	<unicode hex="0183"/>
	<advance width="1311"/>
	<outline>
		<contour>
			<point x="802.857" y="-20" type="curve" smooth="yes"/>
			<point x="1048" y="-20"/>
			<point x="1225.57" y="173.857"/>
			<point x="1225.57" y="565.571" type="curve" smooth="yes"/>
			<point x="1225.57" y="970.714"/>
			<point x="1050" y="1119.43"/>
			<point x="816.143" y="1119.43" type="curve" smooth="yes"/>
			<point x="647.714" y="1119.43"/>
			<point x="551" y="1034.43"/>
			<point x="502.571" y="949.286" type="curve"/>
			<point x="489" y="949.286" type="line"/>
			<point x="493.571" y="990.714"/>
			<point x="502.571" y="1067.43"/>
			<point x="502.571" y="1163.29" type="curve" smooth="yes"/>
			<point x="502.571" y="1296.71" type="line"/>
			<point x="1117.43" y="1296.71" type="line"/>
			<point x="1117.43" y="1556" type="line"/>
			<point x="154.571" y="1556" type="line"/>
			<point x="154.571" y="0" type="line"/>
			<point x="427.571" y="0" type="line"/>
			<point x="481.143" y="119.571" type="line"/>
			<point x="503.143" y="119.571" type="line"/>
			<point x="557.286" y="53.1429"/>
			<point x="631.143" y="-20"/>
		</contour>
		<contour>
			<point x="695.714" y="260.714" type="curve" smooth="yes"/>
			<point x="551.429" y="260.714"/>
			<point x="502.571" y="370.714"/>
			<point x="502.571" y="571.143" type="curve" smooth="yes"/>
			<point x="502.571" y="582.714" type="line"/>
			<point x="507.714" y="759.429"/>
			<point x="589.571" y="843.857"/>
			<point x="695.286" y="843.857" type="curve" smooth="yes"/>
			<point x="799.286" y="843.857"/>
			<point x="870.571" y="768.714"/>
			<point x="870.571" y="569" type="curve" smooth="yes"/>
			<point x="870.571" y="367.857"/>
			<point x="796.857" y="260.714"/>
		</contour>
	</outline>
	<anchor name="bottom" x="656.286" y="0"/>
	<anchor name="top" x="656.286" y="1556"/>
</glyph>
<glyph name="uni0185" format="2">
	<unicode hex="0185"/>
	<advance width="1315"/>
	<outline>
		<contour>
			<point x="696.714" y="-20" type="curve" smooth="yes"/>
			<point x="995.714" y="-20"/>
			<point x="1227.29" y="163.571"/>
			<point x="1227.29" y="562.143" type="curve" smooth="yes"/>
			<point x="1227.29" y="945.857"/>
			<point x="1053.43" y="1146"/>
			<point x="817.857" y="1146" type="curve" smooth="yes"/>
			<point x="650" y="1146"/>
			<point x="547.286" y="1061.29"/>
			<point x="495.714" y="976.714" type="curve"/>
			<point x="482.143" y="976.714" type="line"/>
			<point x="489.286" y="1034.43"/>
			<point x="495.714" y="1102.57"/>
			<point x="495.714" y="1190.71" type="curve" smooth="yes"/>
			<point x="495.714" y="1556" type="line"/>
			<point x="146.857" y="1556" type="line"/>
			<point x="146.857" y="549.429" type="line" smooth="yes"/>
			<point x="146.857" y="194"/>
			<point x="353.714" y="-20"/>
		</contour>
		<contour>
			<point x="687.286" y="259" type="curve" smooth="yes"/>
			<point x="573.857" y="259"/>
			<point x="495.714" y="333"/>
			<point x="495.714" y="544.571" type="curve" smooth="yes"/>
			<point x="495.714" y="606.714" type="line" smooth="yes"/>
			<point x="495.714" y="777.429"/>
			<point x="557.857" y="870.429"/>
			<point x="697" y="870.429" type="curve" smooth="yes"/>
			<point x="801" y="870.429"/>
			<point x="874" y="768.714"/>
			<point x="874" y="562.143" type="curve" smooth="yes"/>
			<point x="874" y="337.857"/>
			<point x="808.143" y="259"/>
		</contour>
	</outline>
	<anchor name="bottom" x="658" y="0"/>
	<anchor name="top" x="658" y="1556"/>
</glyph>
<glyph name="uni018E" format="2">
	<unicode hex="018E"/>
	<advance width="1124"/>
	<outline>
		<contour>
			<point x="102.143" y="0" type="line"/>
			<point x="959.571" y="0" type="line"/>
			<point x="959.571" y="1462" type="line"/>
			<point x="102.143" y="1462" type="line"/>
			<point x="102.143" y="1183" type="line"/>
			<point x="612.571" y="1183" type="line"/>
			<point x="612.571" y="898.143" type="line"/>
			<point x="138" y="898.143" type="line"/>
			<point x="138" y="619" type="line"/>
			<point x="612.571" y="619" type="line"/>
			<point x="612.571" y="283.286" type="line"/>
			<point x="102.143" y="283.286" type="line"/>
		</contour>
	</outline>
	<anchor name="bottom" x="547.571" y="0"/>
	<anchor name="top" x="536.429" y="1462"/>
	<anchor name="topright" x="1032.71" y="1462"/>
</glyph>
<glyph name="uni0190" format="2">
	<unicode hex="0190"/>
	<advance width="1275"/>
	<outline>
		<contour>
			<point x="670.714" y="1486.43" type="curve" smooth="yes"/>
			<point x="324.571" y="1486.43"/>
			<point x="138.286" y="1327"/>
			<point x="138.286" y="1098.57" type="curve" smooth="yes"/>
			<point x="138.286" y="883.571"/>
			<point x="286.714" y="792.143"/>
			<point x="480" y="765.714" type="curve"/>
			<point x="480" y="760" type="line"/>
			<point x="231.714" y="743"/>
			<point x="79.8571" y="607.429"/>
			<point x="79.8571" y="399.857" type="curve" smooth="yes"/>
			<point x="79.8571" y="153"/>
			<point x="256.143" y="-24.2857"/>
			<point x="664.571" y="-24.2857" type="curve" smooth="yes"/>
			<point x="888" y="-24.2857"/>
			<point x="1058.29" y="7"/>
			<point x="1176.57" y="56" type="curve"/>
			<point x="1176.57" y="348.714" type="line"/>
			<point x="1059.43" y="288.286"/>
			<point x="887.714" y="252.143"/>
			<point x="750.286" y="252.143" type="curve" smooth="yes"/>
			<point x="509" y="252.143"/>
			<point x="428" y="324.429"/>
			<point x="428" y="442.714" type="curve" smooth="yes"/>
			<point x="428" y="570"/>
			<point x="585.429" y="624.429"/>
			<point x="846.429" y="624.429" type="curve" smooth="yes"/>
			<point x="958.571" y="624.429" type="line"/>
			<point x="958.571" y="894.857" type="line"/>
			<point x="867.286" y="894.857" type="line" smooth="yes"/>
			<point x="567.429" y="894.857"/>
			<point x="477.857" y="960.143"/>
			<point x="477.857" y="1061.71" type="curve" smooth="yes"/>
			<point x="477.857" y="1145.86"/>
			<point x="555" y="1204.86"/>
			<point x="712.714" y="1204.86" type="curve" smooth="yes"/>
			<point x="854.571" y="1204.86"/>
			<point x="970.714" y="1156.29"/>
			<point x="1066.71" y="1097.86" type="curve"/>
			<point x="1209.43" y="1330.86" type="line"/>
			<point x="1063.71" y="1422.86"/>
			<point x="909.857" y="1486.43"/>
		</contour>
	</outline>
	<anchor name="bottom" x="637.286" y="0"/>
	<anchor name="top" x="637.286" y="1462"/>
</glyph>
<glyph name="florin" format="2">
	<unicode hex="0192"/>
	<advance width="1141"/>
	<outline>
		<contour>
			<point x="739" y="1555" type="curve" smooth="yes"/>
			<point x="487.714" y="1555"/>
			<point x="375.714" y="1440.57"/>
			<point x="375.714" y="1156.57" type="curve" smooth="yes"/>
			<point x="375.714" y="1098.29" type="line"/>
			<point x="213.143" y="1015" type="line"/>
			<point x="213.143" y="844" type="line"/>
			<point x="368.857" y="844" type="line"/>
			<point x="368.857" y="-58.8571" type="line" smooth="yes"/>
			<point x="368.857" y="-162.571"/>
			<point x="333.571" y="-217.143"/>
			<point x="261.143" y="-217.143" type="curve" smooth="yes"/>
			<point x="215.143" y="-217.143"/>
			<point x="187.571" y="-210.857"/>
			<point x="146.286" y="-198.857" type="curve"/>
			<point x="146.286" y="-464.429" type="line"/>
			<point x="192.714" y="-479.286"/>
			<point x="280.286" y="-492"/>
			<point x="350.571" y="-492" type="curve" smooth="yes"/>
			<point x="585.857" y="-492"/>
			<point x="711.571" y="-344.429"/>
			<point x="711.571" y="-100.714" type="curve" smooth="yes"/>
			<point x="711.571" y="844" type="line"/>
			<point x="971.714" y="844" type="line"/>
			<point x="971.714" y="1102.57" type="line"/>
			<point x="711.571" y="1102.57" type="line"/>
			<point x="711.571" y="1131.71" type="line" smooth="yes"/>
			<point x="711.571" y="1252.43"/>
			<point x="749.286" y="1301.71"/>
			<point x="833.286" y="1301.71" type="curve" smooth="yes"/>
			<point x="880.714" y="1301.71"/>
			<point x="928.286" y="1291.86"/>
			<point x="975.286" y="1276.71" type="curve"/>
			<point x="1042.14" y="1505.43" type="line"/>
			<point x="956.857" y="1534.43"/>
			<point x="845.857" y="1555"/>
		</contour>
	</outline>
	<anchor name="bottom" x="569.429" y="-492"/>
	<anchor name="top" x="690.857" y="1555"/>
</glyph>
<glyph name="uni0193" format="2">
	<unicode hex="0193"/>
	<advance width="1482"/>
	<outline>
		<contour>
			<point x="1383.57" y="1810.14" type="curve" smooth="yes"/>
			<point x="1200.71" y="1810.14"/>
			<point x="1043" y="1710.57"/>
			<point x="1043" y="1476.14" type="curve" smooth="yes"/>
			<point x="1043" y="1470.43" type="line"/>
			<point x="991.429" y="1478.86"/>
			<point x="938.857" y="1483.57"/>
			<point x="884.286" y="1483.57" type="curve" smooth="yes"/>
			<point x="393.429" y="1483.57"/>
			<point x="117" y="1202.71"/>
			<point x="117" y="733.857" type="curve" smooth="yes"/>
			<point x="117" y="237.714"/>
			<point x="359.571" y="-20"/>
			<point x="788.857" y="-20" type="curve" smooth="yes"/>
			<point x="1003.14" y="-20"/>
			<point x="1161.71" y="11.7143"/>
			<point x="1317.57" y="62.8571" type="curve"/>
			<point x="1317.57" y="837.857" type="line"/>
			<point x="725.429" y="837.857" type="line"/>
			<point x="725.429" y="547.714" type="line"/>
			<point x="973" y="547.714" type="line"/>
			<point x="973" y="286.286" type="line"/>
			<point x="927.857" y="281.571"/>
			<point x="882.286" y="272.714"/>
			<point x="804" y="272.714" type="curve" smooth="yes"/>
			<point x="569.857" y="272.714"/>
			<point x="478.857" y="467"/>
			<point x="478.857" y="725.571" type="curve" smooth="yes"/>
			<point x="478.857" y="1003"/>
			<point x="639.143" y="1190"/>
			<point x="884" y="1190" type="curve" smooth="yes"/>
			<point x="1004.71" y="1190"/>
			<point x="1121.14" y="1155"/>
			<point x="1204.57" y="1112" type="curve"/>
			<point x="1322" y="1368.71" type="line"/>
			<point x="1322" y="1422.29" type="line" smooth="yes"/>
			<point x="1322" y="1503.57"/>
			<point x="1357" y="1534"/>
			<point x="1419.29" y="1534" type="curve" smooth="yes"/>
			<point x="1466.57" y="1534"/>
			<point x="1509" y="1522"/>
			<point x="1533.71" y="1513.71" type="curve"/>
			<point x="1533.71" y="1779.29" type="line"/>
			<point x="1511" y="1790.71"/>
			<point x="1448.14" y="1810.14"/>
		</contour>
	</outline>
	<anchor name="bottom" x="775.571" y="0"/>
	<anchor name="top" x="845.857" y="1725.14"/>
</glyph>
<glyph name="uni0195" format="2">
	<unicode hex="0195"/>
	<advance width="2055"/>
	<outline>
		<contour>
			<point x="1387.86" y="-30.1429" type="curve" smooth="yes"/>
			<point x="1737.57" y="-30.1429"/>
			<point x="1909.57" y="141"/>
			<point x="1909.57" y="501.857" type="curve" smooth="yes"/>
			<point x="1909.57" y="1120.86" type="line"/>
			<point x="1559.14" y="1120.86" type="line"/>
			<point x="1559.14" y="532.714" type="line" smooth="yes"/>
			<point x="1559.14" y="326.143"/>
			<point x="1507.71" y="249.857"/>
			<point x="1382.71" y="249.857" type="curve" smooth="yes"/>
			<point x="1267.71" y="249.857"/>
			<point x="1210.14" y="322.143"/>
			<point x="1210.14" y="474.143" type="curve" smooth="yes"/>
			<point x="1210.14" y="721" type="line" smooth="yes"/>
			<point x="1210.14" y="1017.29"/>
			<point x="1043.43" y="1145.71"/>
			<point x="813.857" y="1145.71" type="curve" smooth="yes"/>
			<point x="675.571" y="1145.71"/>
			<point x="568.143" y="1083.29"/>
			<point x="504.571" y="978.286" type="curve"/>
			<point x="485.857" y="978.286" type="line"/>
			<point x="497.429" y="1078.43"/>
			<point x="502.857" y="1176.86"/>
			<point x="502.857" y="1277.43" type="curve" smooth="yes"/>
			<point x="502.857" y="1556" type="line"/>
			<point x="154.857" y="1556" type="line"/>
			<point x="154.857" y="0" type="line"/>
			<point x="502.857" y="0" type="line"/>
			<point x="502.857" y="511.714" type="line" smooth="yes"/>
			<point x="502.857" y="739.857"/>
			<point x="560.714" y="870.143"/>
			<point x="706.714" y="870.143" type="curve" smooth="yes"/>
			<point x="808.714" y="870.143"/>
			<point x="862.286" y="790"/>
			<point x="862.286" y="641.857" type="curve" smooth="yes"/>
			<point x="862.286" y="418.429" type="line" smooth="yes"/>
			<point x="862.286" y="111"/>
			<point x="1015.57" y="-30.1429"/>
		</contour>
	</outline>
	<anchor name="bottom" x="1029.14" y="0"/>
	<anchor name="top" x="1029.14" y="1125.57"/>
</glyph>
<glyph name="uni0196" format="2">
	<unicode hex="0196"/>
	<advance width="863"/>
	<outline>
		<contour>
			<point x="561.429" y="-20" type="curve" smooth="yes"/>
			<point x="676.571" y="-20"/>
			<point x="778.143" y="4"/>
			<point x="845.429" y="36.2857" type="curve"/>
			<point x="845.429" y="310.143" type="line"/>
			<point x="783.857" y="287"/>
			<point x="737.429" y="272.714"/>
			<point x="666.286" y="272.714" type="curve" smooth="yes"/>
			<point x="595.857" y="272.714"/>
			<point x="543.143" y="321.429"/>
			<point x="543.143" y="409.714" type="curve" smooth="yes"/>
			<point x="543.143" y="1462" type="line"/>
			<point x="172" y="1462" type="line"/>
			<point x="172" y="380.571" type="line" smooth="yes"/>
			<point x="172" y="64.7143"/>
			<point x="347.571" y="-20"/>
		</contour>
	</outline>
	<anchor name="bottom" x="467" y="0"/>
	<anchor name="top" x="371.857" y="1462"/>
</glyph>
<glyph name="uni0198" format="2">
	<unicode hex="0198"/>
	<advance width="1412"/>
	<outline>
		<contour>
			<point x="1196" y="1487" type="curve" smooth="yes"/>
			<point x="1009.57" y="1487"/>
			<point x="891.143" y="1345.57"/>
			<point x="776.714" y="1166.43" type="curve"/>
			<point x="647.286" y="1001.43" type="line"/>
			<point x="608.571" y="940.429"/>
			<point x="565" y="865.143"/>
			<point x="530.571" y="803.714" type="curve"/>
			<point x="530.571" y="1462" type="line"/>
			<point x="179.286" y="1462" type="line"/>
			<point x="179.286" y="0" type="line"/>
			<point x="530.571" y="0" type="line"/>
			<point x="530.571" y="503.143" type="line"/>
			<point x="651.286" y="585.286" type="line"/>
			<point x="994.143" y="0" type="line"/>
			<point x="1394.14" y="0" type="line"/>
			<point x="901.429" y="810.286" type="line"/>
			<point x="1113" y="1112.71" type="line"/>
			<point x="1146" y="1158.29"/>
			<point x="1203.14" y="1200.14"/>
			<point x="1264.29" y="1200.14" type="curve" smooth="yes"/>
			<point x="1307.14" y="1200.14"/>
			<point x="1343.86" y="1189"/>
			<point x="1366.71" y="1179.57" type="curve"/>
			<point x="1366.71" y="1451.71" type="line"/>
			<point x="1333.57" y="1468"/>
			<point x="1275.43" y="1487"/>
		</contour>
	</outline>
	<anchor name="bottom" x="697.857" y="0"/>
	<anchor name="top" x="697.857" y="1462"/>
</glyph>
<glyph name="uni0199" format="2">
	<unicode hex="0199"/>
	<advance width="1329"/>
	<outline>
		<contour>
			<point x="545.143" y="1571.57" type="curve" smooth="yes"/>
			<point x="312.571" y="1571.57"/>
			<point x="154.857" y="1466.29"/>
			<point x="154.857" y="1186.29" type="curve" smooth="yes"/>
			<point x="154.857" y="0" type="line"/>
			<point x="502.857" y="0" type="line"/>
			<point x="502.857" y="333.143" type="line"/>
			<point x="626.286" y="434.286" type="line"/>
			<point x="929.286" y="0" type="line"/>
			<point x="1330" y="0" type="line"/>
			<point x="858.714" y="634" type="line"/>
			<point x="1304.43" y="1125.57" type="line"/>
			<point x="913.857" y="1125.57" type="line"/>
			<point x="622.857" y="808.714" type="line"/>
			<point x="570.429" y="754.857"/>
			<point x="523.429" y="691"/>
			<point x="488.571" y="632.571" type="curve"/>
			<point x="484.571" y="632.571" type="line"/>
			<point x="494.286" y="713.286"/>
			<point x="502.857" y="797.857"/>
			<point x="502.857" y="883.143" type="curve" smooth="yes"/>
			<point x="502.857" y="1180.29" type="line" smooth="yes"/>
			<point x="502.857" y="1265.43"/>
			<point x="541" y="1295.86"/>
			<point x="603.143" y="1295.86" type="curve" smooth="yes"/>
			<point x="646.714" y="1295.86"/>
			<point x="690.857" y="1284.14"/>
			<point x="710.857" y="1276.71" type="curve"/>
			<point x="710.857" y="1538.57" type="line"/>
			<point x="682.571" y="1551.29"/>
			<point x="613" y="1571.57"/>
		</contour>
	</outline>
	<anchor name="bottom" x="664.714" y="0"/>
	<anchor name="top" x="664.714" y="1571.57"/>
</glyph>
<glyph name="uni019A" format="2">
	<unicode hex="019A"/>
	<advance width="628"/>
	<outline>
		<contour>
			<point x="142.286" y="0" type="line"/>
			<point x="485.143" y="0" type="line"/>
			<point x="485.143" y="630.571" type="line"/>
			<point x="613.286" y="630.571" type="line"/>
			<point x="613.286" y="870.143" type="line"/>
			<point x="485.143" y="870.143" type="line"/>
			<point x="485.143" y="1556" type="line"/>
			<point x="142.286" y="1556" type="line"/>
			<point x="142.286" y="870.143" type="line"/>
			<point x="15.5714" y="870.143" type="line"/>
			<point x="15.5714" y="630.571" type="line"/>
			<point x="142.286" y="630.571" type="line"/>
		</contour>
	</outline>
	<anchor name="bottom" x="315" y="0"/>
	<anchor name="top" x="315" y="1556"/>
</glyph>
<glyph name="uni019B" format="2">
	<unicode hex="019B"/>
	<advance width="1308"/>
	<outline>
		<contour>
			<point x="-1.71429" y="0" type="line"/>
			<point x="355" y="0" type="line"/>
			<point x="562.857" y="520.143" type="line" smooth="yes"/>
			<point x="581.143" y="565.429"/>
			<point x="603.571" y="631.571"/>
			<point x="621.571" y="695.143" type="curve"/>
			<point x="629" y="695.143" type="line"/>
			<point x="638.857" y="647.571"/>
			<point x="654.857" y="588.286"/>
			<point x="683" y="509.429" type="curve" smooth="yes"/>
			<point x="774.143" y="247.571" type="line" smooth="yes"/>
			<point x="834.714" y="76.1429"/>
			<point x="929.143" y="-14.2857"/>
			<point x="1120.86" y="-14.2857" type="curve" smooth="yes"/>
			<point x="1208.71" y="-14.2857"/>
			<point x="1262.43" y="1.71429"/>
			<point x="1293.57" y="14.5714" type="curve"/>
			<point x="1293.57" y="260.714" type="line"/>
			<point x="1271.29" y="255"/>
			<point x="1245.86" y="251"/>
			<point x="1216.86" y="251" type="curve" smooth="yes"/>
			<point x="1147.86" y="251"/>
			<point x="1106.71" y="271"/>
			<point x="1060.86" y="399.286" type="curve" smooth="yes"/>
			<point x="781.286" y="1189" type="line"/>
			<point x="944.714" y="1239.57" type="line"/>
			<point x="886.857" y="1430.86" type="line"/>
			<point x="695.857" y="1367.57" type="line"/>
			<point x="613.857" y="1516.71"/>
			<point x="499.143" y="1569"/>
			<point x="308.143" y="1569" type="curve" smooth="yes"/>
			<point x="258.571" y="1569"/>
			<point x="167" y="1561.29"/>
			<point x="131.429" y="1552.29" type="curve"/>
			<point x="131.429" y="1308.14" type="line"/>
			<point x="171.857" y="1317.86"/>
			<point x="207.714" y="1324.29"/>
			<point x="249.714" y="1324.29" type="curve" smooth="yes"/>
			<point x="307.286" y="1324.29"/>
			<point x="353.429" y="1306.29"/>
			<point x="381.286" y="1260" type="curve"/>
			<point x="210" y="1213.29" type="line"/>
			<point x="268.571" y="1031.29" type="line"/>
			<point x="472.857" y="1093.57" type="line"/>
			<point x="483" y="1063.14" type="line"/>
		</contour>
	</outline>
	<anchor name="bottom" x="654.857" y="0"/>
	<anchor name="top" x="654.857" y="1569"/>
</glyph>
<glyph name="uni01A4" format="2">
	<unicode hex="01A4"/>
	<advance width="1567"/>
	<outline>
		<contour>
			<point x="450.857" y="0" type="line"/>
			<point x="802.286" y="0" type="line"/>
			<point x="802.286" y="503.286" type="line"/>
			<point x="919.143" y="503.286" type="line" smooth="yes"/>
			<point x="1369" y="503.286"/>
			<point x="1486.29" y="754.429"/>
			<point x="1486.29" y="999.571" type="curve" smooth="yes"/>
			<point x="1486.29" y="1286.29"/>
			<point x="1322" y="1462"/>
			<point x="942" y="1462" type="curve" smooth="yes"/>
			<point x="408.714" y="1462" type="line" smooth="yes"/>
			<point x="107.286" y="1462"/>
			<point x="8" y="1290"/>
			<point x="8" y="1092.29" type="curve" smooth="yes"/>
			<point x="8" y="1035.29"/>
			<point x="23.5714" y="992.286"/>
			<point x="33.8571" y="972" type="curve"/>
			<point x="304.571" y="972" type="line"/>
			<point x="296.571" y="992.571"/>
			<point x="283.714" y="1019.86"/>
			<point x="283.714" y="1066.57" type="curve" smooth="yes"/>
			<point x="283.714" y="1125.86"/>
			<point x="320.143" y="1174.43"/>
			<point x="399" y="1174.43" type="curve" smooth="yes"/>
			<point x="450.857" y="1174.43" type="line"/>
		</contour>
		<contour>
			<point x="802.286" y="791.714" type="line"/>
			<point x="802.286" y="1174.43" type="line"/>
			<point x="925.429" y="1174.43" type="line" smooth="yes"/>
			<point x="1065.86" y="1174.43"/>
			<point x="1132.14" y="1115.29"/>
			<point x="1132.14" y="989" type="curve" smooth="yes"/>
			<point x="1132.14" y="854.571"/>
			<point x="1033.14" y="791.714"/>
			<point x="890.286" y="791.714" type="curve" smooth="yes"/>
		</contour>
	</outline>
	<anchor name="bottom" x="788.286" y="0"/>
	<anchor name="top" x="788.286" y="1462"/>
</glyph>
<glyph name="uni01A6" format="2">
	<unicode hex="01A6"/>
	<advance width="1380"/>
	<outline>
		<contour>
			<point x="999.286" y="-205" type="line"/>
			<point x="1390.29" y="-205" type="line"/>
			<point x="949.857" y="426.429" type="line"/>
			<point x="1078" y="491.714"/>
			<point x="1214.71" y="607.571"/>
			<point x="1214.71" y="812.571" type="curve" smooth="yes"/>
			<point x="1214.71" y="1119.14"/>
			<point x="1024" y="1257"/>
			<point x="621" y="1257" type="curve" smooth="yes"/>
			<point x="530.571" y="1257" type="line"/>
			<point x="530.571" y="1462" type="line"/>
			<point x="179.286" y="1462" type="line"/>
			<point x="179.286" y="0" type="line"/>
			<point x="530.571" y="0" type="line"/>
			<point x="530.571" y="340.429" type="line"/>
			<point x="655.429" y="340.429" type="line"/>
		</contour>
		<contour>
			<point x="530.571" y="626.286" type="line"/>
			<point x="530.571" y="969.429" type="line"/>
			<point x="592.857" y="969.429" type="line" smooth="yes"/>
			<point x="784.286" y="969.429"/>
			<point x="861.286" y="921.714"/>
			<point x="861.286" y="805.429" type="curve" smooth="yes"/>
			<point x="861.286" y="689"/>
			<point x="789.714" y="626.286"/>
			<point x="596.286" y="626.286" type="curve" smooth="yes"/>
		</contour>
	</outline>
	<anchor name="bottom" x="690.571" y="-205"/>
	<anchor name="top" x="690.571" y="1462"/>
</glyph>
<glyph name="uni01AB" format="2">
	<unicode hex="01AB"/>
	<advance width="934"/>
	<outline>
		<contour>
			<point x="558.714" y="-492" type="curve" smooth="yes"/>
			<point x="759.429" y="-492"/>
			<point x="864.286" y="-386.857"/>
			<point x="864.286" y="-127.429" type="curve" smooth="yes"/>
			<point x="864.286" y="296.143" type="line"/>
			<point x="797" y="272.429"/>
			<point x="733.429" y="255.571"/>
			<point x="666.286" y="255.571" type="curve" smooth="yes"/>
			<point x="591.571" y="255.571"/>
			<point x="541.714" y="289.571"/>
			<point x="541.714" y="391.571" type="curve" smooth="yes"/>
			<point x="541.714" y="865.429" type="line"/>
			<point x="858.571" y="865.429" type="line"/>
			<point x="858.571" y="1125.57" type="line"/>
			<point x="541.714" y="1125.57" type="line"/>
			<point x="541.714" y="1356.86" type="line"/>
			<point x="314.429" y="1356.86" type="line"/>
			<point x="220.857" y="1121.29" type="line"/>
			<point x="51.7143" y="1009.86" type="line"/>
			<point x="51.7143" y="865.429" type="line"/>
			<point x="193.714" y="865.429" type="line"/>
			<point x="193.714" y="360.714" type="line" smooth="yes"/>
			<point x="193.714" y="59.1429"/>
			<point x="363.143" y="-20"/>
			<point x="537.714" y="-20" type="curve" smooth="yes"/>
			<point x="554.429" y="-20"/>
			<point x="564.571" y="-19.4286"/>
			<point x="576.714" y="-18.2857" type="curve"/>
			<point x="576.714" y="-130.857" type="line" smooth="yes"/>
			<point x="576.714" y="-220.429"/>
			<point x="546.429" y="-244"/>
			<point x="480.429" y="-244" type="curve" smooth="yes"/>
			<point x="445.143" y="-244"/>
			<point x="411" y="-235.714"/>
			<point x="385.714" y="-226.571" type="curve"/>
			<point x="385.714" y="-463.857" type="line"/>
			<point x="429.857" y="-481"/>
			<point x="492.286" y="-492"/>
		</contour>
	</outline>
	<anchor name="bottom" x="468.571" y="-492"/>
	<anchor name="top" x="468.571" y="1356.86"/>
</glyph>
<glyph name="uni01AD" format="2">
	<unicode hex="01AD"/>
	<advance width="934"/>
	<outline>
		<contour>
			<point x="606.714" y="1567" type="curve" smooth="yes"/>
			<point x="357.143" y="1567"/>
			<point x="194" y="1468.71"/>
			<point x="194" y="1206.71" type="curve" smooth="yes"/>
			<point x="194" y="1104.14" type="line"/>
			<point x="51.7143" y="1009.86" type="line"/>
			<point x="51.7143" y="865.429" type="line"/>
			<point x="193.714" y="865.429" type="line"/>
			<point x="193.714" y="360.714" type="line" smooth="yes"/>
			<point x="193.714" y="59.1429"/>
			<point x="354.571" y="-20"/>
			<point x="557.429" y="-20" type="curve" smooth="yes"/>
			<point x="685.143" y="-20"/>
			<point x="795.286" y="5.71429"/>
			<point x="864.286" y="37.7143" type="curve"/>
			<point x="864.286" y="296.143" type="line"/>
			<point x="797" y="272.429"/>
			<point x="733.429" y="255.571"/>
			<point x="666.286" y="255.571" type="curve" smooth="yes"/>
			<point x="591.571" y="255.571"/>
			<point x="541.714" y="289.571"/>
			<point x="541.714" y="356.429" type="curve" smooth="yes"/>
			<point x="541.714" y="865.429" type="line"/>
			<point x="858.571" y="865.429" type="line"/>
			<point x="858.571" y="1125.57" type="line"/>
			<point x="541.714" y="1125.57" type="line"/>
			<point x="541.714" y="1194.71" type="line" smooth="yes"/>
			<point x="541.714" y="1260.29"/>
			<point x="575.286" y="1290.86"/>
			<point x="649.857" y="1290.86" type="curve" smooth="yes"/>
			<point x="711.714" y="1290.86"/>
			<point x="776.714" y="1275.57"/>
			<point x="806.286" y="1266.43" type="curve"/>
			<point x="806.286" y="1532" type="line"/>
			<point x="767.429" y="1545.71"/>
			<point x="690.429" y="1567"/>
		</contour>
	</outline>
	<anchor name="bottom" x="468.571" y="0"/>
	<anchor name="top" x="468.571" y="1567"/>
</glyph>
<glyph name="uni01AE" format="2">
	<unicode hex="01AE"/>
	<advance width="1208"/>
	<outline>
		<contour>
			<point x="820" y="-513.571" type="curve" smooth="yes"/>
			<point x="893.857" y="-513.571"/>
			<point x="973.429" y="-494.429"/>
			<point x="1007.43" y="-480.714" type="curve"/>
			<point x="1007.43" y="-218.857" type="line"/>
			<point x="988" y="-225.714"/>
			<point x="944.143" y="-239.714"/>
			<point x="894.286" y="-239.714" type="curve" smooth="yes"/>
			<point x="829.857" y="-239.714"/>
			<point x="779.571" y="-203.571"/>
			<point x="779.571" y="-109.143" type="curve" smooth="yes"/>
			<point x="779.571" y="1170.14" type="line"/>
			<point x="1160.29" y="1170.14" type="line"/>
			<point x="1160.29" y="1462" type="line"/>
			<point x="47.7143" y="1462" type="line"/>
			<point x="47.7143" y="1170.14" type="line"/>
			<point x="428.143" y="1170.14" type="line"/>
			<point x="428.143" y="-116.429" type="line" smooth="yes"/>
			<point x="428.143" y="-399.571"/>
			<point x="573.143" y="-513.571"/>
		</contour>
	</outline>
	<anchor name="bottom" x="603.714" y="-513.571"/>
	<anchor name="top" x="603.714" y="1462"/>
</glyph>
<glyph name="Uhorn" format="2">
	<unicode hex="01AF"/>
	<advance width="1788"/>
	<outline>
		<contour>
			<point x="1381.71" y="1462" type="line"/>
			<point x="1035.43" y="1462" type="line"/>
			<point x="1035.43" y="557.429" type="line" smooth="yes"/>
			<point x="1035.43" y="348.286"/>
			<point x="942.857" y="269.286"/>
			<point x="765.857" y="269.286" type="curve" smooth="yes"/>
			<point x="594.571" y="269.286"/>
			<point x="504.286" y="336.714"/>
			<point x="504.286" y="559.143" type="curve" smooth="yes"/>
			<point x="504.286" y="1462" type="line"/>
			<point x="156.429" y="1462" type="line"/>
			<point x="156.429" y="520" type="line" smooth="yes"/>
			<point x="156.429" y="190.857"/>
			<point x="365.857" y="-20"/>
			<point x="755.286" y="-20" type="curve" smooth="yes"/>
			<point x="1158.86" y="-20"/>
			<point x="1381.71" y="204.286"/>
			<point x="1381.71" y="516" type="curve" smooth="yes"/>
			<point x="1381.71" y="1059.14" type="line"/>
			<point x="1735.86" y="1108.43"/>
			<point x="1820.43" y="1300.14"/>
			<point x="1864.43" y="1535.71" type="curve"/>
			<point x="1851" y="1556" type="line"/>
			<point x="1521.43" y="1556" type="line"/>
			<point x="1521.43" y="1418.86"/>
			<point x="1478" y="1304.86"/>
			<point x="1381.71" y="1258.43" type="curve"/>
		</contour>
	</outline>
	<anchor name="bottom" x="757.286" y="0"/>
	<anchor name="top" x="769.286" y="1462"/>
</glyph>
<glyph name="uni01B5" format="2">
	<unicode hex="01B5"/>
	<advance width="1187"/>
	<outline>
		<contour>
			<point x="127.714" y="873.714" type="line"/>
			<point x="127.714" y="583.571" type="line"/>
			<point x="295.286" y="583.571" type="line"/>
			<point x="40.5714" y="224.714" type="line"/>
			<point x="40.5714" y="0" type="line"/>
			<point x="1147.43" y="0" type="line"/>
			<point x="1147.43" y="288.429" type="line"/>
			<point x="456.857" y="288.429" type="line"/>
			<point x="664.571" y="583.571" type="line"/>
			<point x="1037.86" y="583.571" type="line"/>
			<point x="1037.86" y="873.714" type="line"/>
			<point x="869.286" y="873.714" type="line"/>
			<point x="1128.43" y="1237.29" type="line"/>
			<point x="1128.43" y="1462" type="line"/>
			<point x="55.5714" y="1462" type="line"/>
			<point x="55.5714" y="1174.43" type="line"/>
			<point x="713.857" y="1174.43" type="line"/>
			<point x="498.286" y="873.714" type="line"/>
		</contour>
	</outline>
	<anchor name="bottom" x="593.714" y="0"/>
	<anchor name="top" x="593.714" y="1462"/>
</glyph>
<glyph name="uni01B8" format="2">
	<unicode hex="01B8"/>
	<advance width="1221"/>
	<outline>
		<contour>
			<point x="703.143" y="-20" type="curve" smooth="yes"/>
			<point x="887.429" y="-20"/>
			<point x="1034.14" y="8"/>
			<point x="1168" y="58.8571" type="curve"/>
			<point x="1168" y="355" type="line"/>
			<point x="1035.29" y="293.143"/>
			<point x="863.143" y="255.571"/>
			<point x="734.857" y="255.571" type="curve" smooth="yes"/>
			<point x="506.714" y="255.571"/>
			<point x="422.857" y="326.857"/>
			<point x="422.857" y="450.714" type="curve" smooth="yes"/>
			<point x="422.857" y="557"/>
			<point x="519.571" y="626.571"/>
			<point x="828.714" y="626.571" type="curve" smooth="yes"/>
			<point x="931.857" y="626.571" type="line"/>
			<point x="931.857" y="871.286" type="line"/>
			<point x="619.571" y="1174.43" type="line"/>
			<point x="1119.86" y="1174.43" type="line"/>
			<point x="1119.86" y="1462" type="line"/>
			<point x="140.571" y="1462" type="line"/>
			<point x="140.571" y="1245.86" type="line"/>
			<point x="541" y="860.143" type="line"/>
			<point x="239.286" y="831"/>
			<point x="74.5714" y="688.286"/>
			<point x="74.5714" y="422.429" type="curve" smooth="yes"/>
			<point x="74.5714" y="162.143"/>
			<point x="283.714" y="-20"/>
		</contour>
	</outline>
	<anchor name="bottom" x="610.143" y="0"/>
	<anchor name="top" x="610.143" y="1462"/>
</glyph>
<glyph name="uni01B9" format="2">
	<unicode hex="01B9"/>
	<advance width="1242"/>
	<outline>
		<contour>
			<point x="677.143" y="-492" type="curve"/>
			<point x="869.857" y="-492"/>
			<point x="1017.14" y="-461.857"/>
			<point x="1150" y="-404.571" type="curve"/>
			<point x="1150" y="-112.714" type="line"/>
			<point x="1018.57" y="-176.857"/>
			<point x="847.857" y="-213.714"/>
			<point x="726" y="-213.714" type="curve" smooth="yes"/>
			<point x="497.714" y="-213.714"/>
			<point x="429.143" y="-98.4286"/>
			<point x="429.143" y="23.8571" type="curve" smooth="yes"/>
			<point x="429.143" y="158.714"/>
			<point x="511.429" y="264"/>
			<point x="827.571" y="264" type="curve" smooth="yes"/>
			<point x="937.286" y="264" type="line"/>
			<point x="937.286" y="508.714" type="line"/>
			<point x="558.571" y="862" type="line"/>
			<point x="1139.57" y="862" type="line"/>
			<point x="1139.57" y="1125.57" type="line"/>
			<point x="128.857" y="1125.57" type="line"/>
			<point x="128.857" y="900.286" type="line"/>
			<point x="553.286" y="517.286" type="line"/>
			<point x="204.714" y="455.571"/>
			<point x="77.5714" y="251.286"/>
			<point x="77.5714" y="1.85714" type="curve"/>
			<point x="79.2857" y="-283.143"/>
			<point x="265.857" y="-489.429"/>
		</contour>
	</outline>
	<anchor name="bottom" x="622.143" y="-492"/>
	<anchor name="top" x="622.143" y="1125.57"/>
</glyph>
<glyph name="uni01BA" format="2">
	<unicode hex="01BA"/>
	<advance width="1119"/>
	<outline>
		<contour>
			<point x="485.429" y="-492" type="curve" smooth="yes"/>
			<point x="680.143" y="-492"/>
			<point x="862.857" y="-451.571"/>
			<point x="966.286" y="-406.571" type="curve"/>
			<point x="966.286" y="-157.286" type="line"/>
			<point x="867" y="-190.571"/>
			<point x="719.286" y="-240.286"/>
			<point x="530.857" y="-240.286" type="curve" smooth="yes"/>
			<point x="417.286" y="-240.286"/>
			<point x="346.714" y="-213.286"/>
			<point x="346.714" y="-145.429" type="curve" smooth="yes"/>
			<point x="346.714" y="-82.7143"/>
			<point x="399.429" y="-55.1429"/>
			<point x="545.286" y="-43.8571" type="curve" smooth="yes"/>
			<point x="964.429" y="-10.7143"/>
			<point x="1043" y="115.857"/>
			<point x="1043" y="316.714" type="curve" smooth="yes"/>
			<point x="1043" y="572.429"/>
			<point x="838.714" y="634.286"/>
			<point x="636.429" y="642.286" type="curve"/>
			<point x="982.571" y="912.571" type="line"/>
			<point x="982.571" y="1125.57" type="line"/>
			<point x="98.1429" y="1125.57" type="line"/>
			<point x="98.1429" y="880.857" type="line"/>
			<point x="587.143" y="880.857" type="line"/>
			<point x="282.857" y="626.857" type="line"/>
			<point x="282.857" y="445.571" type="line"/>
			<point x="405.571" y="445.571" type="line" smooth="yes"/>
			<point x="601.857" y="445.571"/>
			<point x="691.286" y="422.857"/>
			<point x="691.286" y="325.286" type="curve" smooth="yes"/>
			<point x="691.286" y="229.429"/>
			<point x="613.429" y="209.286"/>
			<point x="442.429" y="189.714" type="curve" smooth="yes"/>
			<point x="147.429" y="156.571"/>
			<point x="50.4286" y="29.7143"/>
			<point x="50.4286" y="-151.714" type="curve" smooth="yes"/>
			<point x="50.4286" y="-381.143"/>
			<point x="229.143" y="-492"/>
		</contour>
	</outline>
	<anchor name="bottom" x="559" y="-492"/>
	<anchor name="top" x="559" y="1125.57"/>
</glyph>
<glyph name="uni01BC" format="2">
	<unicode hex="01BC"/>
	<advance width="1235"/>
	<outline>
		<contour>
			<point x="514.429" y="-20" type="curve" smooth="yes"/>
			<point x="956.429" y="-20"/>
			<point x="1149.14" y="186.429"/>
			<point x="1149.14" y="494.429" type="curve" smooth="yes"/>
			<point x="1149.14" y="803"/>
			<point x="944.143" y="929.429"/>
			<point x="637.143" y="929.429" type="curve" smooth="yes"/>
			<point x="595.286" y="929.429" type="line"/>
			<point x="595.286" y="1159.86" type="line"/>
			<point x="1109.29" y="1159.86" type="line"/>
			<point x="1109.29" y="1462" type="line"/>
			<point x="61.5714" y="1462" type="line"/>
			<point x="61.5714" y="1159.86" type="line"/>
			<point x="280" y="1159.86" type="line"/>
			<point x="280" y="659" type="line"/>
			<point x="510.286" y="659" type="line" smooth="yes"/>
			<point x="701.714" y="659"/>
			<point x="794.143" y="608.429"/>
			<point x="794.143" y="467.857" type="curve" smooth="yes"/>
			<point x="794.143" y="320.571"/>
			<point x="667.714" y="265.857"/>
			<point x="487.857" y="265.857" type="curve" smooth="yes"/>
			<point x="327.286" y="265.857"/>
			<point x="162" y="310.857"/>
			<point x="75.4286" y="358.429" type="curve"/>
			<point x="75.4286" y="58.2857" type="line"/>
			<point x="158" y="24.1429"/>
			<point x="318.286" y="-20"/>
		</contour>
	</outline>
	<anchor name="bottom" x="618.286" y="0"/>
	<anchor name="top" x="618.286" y="1462"/>
</glyph>
<glyph name="uni01BF" format="2">
	<unicode hex="01BF"/>
	<advance width="1316"/>
	<outline>
		<contour>
			<point x="818.714" y="1145.71" type="curve" smooth="yes"/>
			<point x="649.429" y="1145.71"/>
			<point x="552.714" y="1062.14"/>
			<point x="499.714" y="973.857" type="curve"/>
			<point x="482.857" y="973.857" type="line"/>
			<point x="436.714" y="1125.57" type="line"/>
			<point x="155.143" y="1125.57" type="line"/>
			<point x="155.143" y="-489.571" type="line"/>
			<point x="503.143" y="-489.571" type="line"/>
			<point x="503.143" y="-31.4286" type="line"/>
			<point x="1010.57" y="0.571429"/>
			<point x="1237" y="286.857"/>
			<point x="1237" y="631.857" type="curve" smooth="yes"/>
			<point x="1237" y="964"/>
			<point x="1070.57" y="1145.71"/>
		</contour>
		<contour>
			<point x="697.857" y="862.429" type="curve" smooth="yes"/>
			<point x="819.571" y="862.429"/>
			<point x="881.143" y="778.143"/>
			<point x="881.143" y="630.143" type="curve" smooth="yes"/>
			<point x="881.143" y="381.143"/>
			<point x="729.286" y="250.429"/>
			<point x="503.143" y="232.143" type="curve"/>
			<point x="503.143" y="596" type="line" smooth="yes"/>
			<point x="503.143" y="766.857"/>
			<point x="560.286" y="862.429"/>
		</contour>
	</outline>
	<anchor name="bottom" x="658.571" y="-489.571"/>
	<anchor name="top" x="658.571" y="1125.57"/>
</glyph>
<glyph name="uni01C2" format="2">
	<unicode hex="01C2"/>
	<advance width="1057"/>
	<outline>
		<contour>
			<point x="660.429" y="1556" type="line"/>
			<point x="394.857" y="1556" type="line"/>
			<point x="394.857" y="1128.43" type="line"/>
			<point x="95.2857" y="1128.43" type="line"/>
			<point x="95.2857" y="882" type="line"/>
			<point x="394.857" y="882" type="line"/>
			<point x="394.857" y="712.714" type="line"/>
			<point x="95.2857" y="712.714" type="line"/>
			<point x="95.2857" y="466.286" type="line"/>
			<point x="394.857" y="466.286" type="line"/>
			<point x="394.857" y="0" type="line"/>
			<point x="660.429" y="0" type="line"/>
			<point x="660.429" y="466.286" type="line"/>
			<point x="965.143" y="466.286" type="line"/>
			<point x="965.143" y="712.714" type="line"/>
			<point x="660.429" y="712.714" type="line"/>
			<point x="660.429" y="882" type="line"/>
			<point x="965.143" y="882" type="line"/>
			<point x="965.143" y="1128.43" type="line"/>
			<point x="660.429" y="1128.43" type="line"/>
		</contour>
	</outline>
	<anchor name="bottom" x="528" y="0"/>
	<anchor name="top" x="528" y="1556"/>
</glyph>
<glyph name="uni01E4" format="2">
	<unicode hex="01E4"/>
	<advance width="1482"/>
	<outline>
		<contour>
			<point x="806.857" y="-20" type="curve" smooth="yes"/>
			<point x="1021.14" y="-20"/>
			<point x="1181.43" y="18.5714"/>
			<point x="1317.57" y="62.8571" type="curve"/>
			<point x="1317.57" y="362.857" type="line"/>
			<point x="1450" y="362.857" type="line"/>
			<point x="1450" y="571.571" type="line"/>
			<point x="1317.57" y="571.571" type="line"/>
			<point x="1317.57" y="889.286" type="line"/>
			<point x="728.857" y="889.286" type="line"/>
			<point x="728.857" y="679.714" type="line"/>
			<point x="973" y="679.714" type="line"/>
			<point x="973" y="571.571" type="line"/>
			<point x="737.857" y="571.571" type="line"/>
			<point x="737.857" y="362.857" type="line"/>
			<point x="973" y="362.857" type="line"/>
			<point x="973" y="267.429" type="line"/>
			<point x="927.857" y="254.143"/>
			<point x="880.571" y="247"/>
			<point x="821.143" y="247" type="curve" smooth="yes"/>
			<point x="605" y="247"/>
			<point x="478.857" y="361.571"/>
			<point x="478.857" y="708.429" type="curve" smooth="yes"/>
			<point x="478.857" y="1020.14"/>
			<point x="610.857" y="1190"/>
			<point x="866" y="1190" type="curve" smooth="yes"/>
			<point x="986.714" y="1190"/>
			<point x="1126.29" y="1158.43"/>
			<point x="1209.71" y="1115.43" type="curve"/>
			<point x="1318.57" y="1391.86" type="line"/>
			<point x="1196.43" y="1444.57"/>
			<point x="1037.71" y="1483.57"/>
			<point x="884.286" y="1483.57" type="curve" smooth="yes"/>
			<point x="393.429" y="1483.57"/>
			<point x="117" y="1185.57"/>
			<point x="117" y="698.714" type="curve" smooth="yes"/>
			<point x="117" y="202.571"/>
			<point x="394.714" y="-20"/>
		</contour>
	</outline>
	<anchor name="bottom" x="810.714" y="0"/>
	<anchor name="top" x="828.714" y="1462"/>
</glyph>
<glyph name="uni01E5" format="2">
	<unicode hex="01E5"/>
	<advance width="1311"/>
	<outline>
		<contour>
			<point x="525.429" y="1145.71" type="curve" smooth="yes"/>
			<point x="255.857" y="1145.71"/>
			<point x="85.8571" y="951.286"/>
			<point x="85.8571" y="597.714" type="curve" smooth="yes"/>
			<point x="85.8571" y="253.429"/>
			<point x="240.714" y="74.2857"/>
			<point x="499.857" y="74.2857" type="curve" smooth="yes"/>
			<point x="630.857" y="74.2857"/>
			<point x="737" y="122.286"/>
			<point x="808.286" y="243.429" type="curve"/>
			<point x="816.571" y="243.429" type="line"/>
			<point x="810" y="203.714"/>
			<point x="808.286" y="145"/>
			<point x="808.286" y="104.714" type="curve" smooth="yes"/>
			<point x="808.286" y="5.14286" type="line"/>
			<point x="492.143" y="5.14286" type="line"/>
			<point x="492.143" y="-169.286" type="line"/>
			<point x="782" y="-169.286" type="line"/>
			<point x="755.143" y="-228.857"/>
			<point x="673.857" y="-257.429"/>
			<point x="560.714" y="-257.429" type="curve" smooth="yes"/>
			<point x="409.429" y="-257.429"/>
			<point x="287.143" y="-233"/>
			<point x="146.286" y="-179.143" type="curve"/>
			<point x="146.286" y="-426.286" type="line"/>
			<point x="282" y="-470.714"/>
			<point x="428.143" y="-492"/>
			<point x="585.571" y="-492" type="curve" smooth="yes"/>
			<point x="900.571" y="-492"/>
			<point x="1070.14" y="-391.857"/>
			<point x="1138.57" y="-169.286" type="curve"/>
			<point x="1270" y="-169.286" type="line"/>
			<point x="1270" y="5.14286" type="line"/>
			<point x="1157.14" y="5.14286" type="line"/>
			<point x="1157.14" y="1125.57" type="line"/>
			<point x="862.714" y="1125.57" type="line"/>
			<point x="836.286" y="990.143" type="line"/>
			<point x="828.857" y="990.143" type="line"/>
			<point x="753.857" y="1096.29"/>
			<point x="664.429" y="1145.71"/>
		</contour>
		<contour>
			<point x="637.714" y="865" type="curve" smooth="yes"/>
			<point x="770.571" y="865"/>
			<point x="833.143" y="789.429"/>
			<point x="833.143" y="590" type="curve" smooth="yes"/>
			<point x="833.143" y="549.429" type="line" smooth="yes"/>
			<point x="833.143" y="417"/>
			<point x="767.571" y="332.714"/>
			<point x="638.714" y="332.714" type="curve" smooth="yes"/>
			<point x="512.143" y="332.714"/>
			<point x="440.857" y="413.857"/>
			<point x="440.857" y="597.714" type="curve" smooth="yes"/>
			<point x="440.857" y="771.714"/>
			<point x="509.286" y="865"/>
		</contour>
	</outline>
	<anchor name="bottom" x="656.286" y="-492"/>
	<anchor name="top" x="656.286" y="1125.57"/>
</glyph>
<glyph name="uni01F7" format="2">
	<unicode hex="01F7"/>
	<advance width="1433"/>
	<outline>
		<contour>
			<point x="884.286" y="1485" type="curve" smooth="yes"/>
			<point x="666.571" y="1485"/>
			<point x="564.429" y="1371.86"/>
			<point x="510" y="1268.86" type="curve"/>
			<point x="500.857" y="1268.86" type="line"/>
			<point x="445.143" y="1462.29" type="line"/>
			<point x="179.286" y="1462.29" type="line"/>
			<point x="179.286" y="-492" type="line"/>
			<point x="532.286" y="-492" type="line"/>
			<point x="532.286" y="13.1429" type="line"/>
			<point x="1065.71" y="159.857"/>
			<point x="1336.57" y="531.429"/>
			<point x="1336.57" y="939.571" type="curve" smooth="yes"/>
			<point x="1336.57" y="1301.71"/>
			<point x="1165.14" y="1485"/>
		</contour>
		<contour>
			<point x="769.143" y="1191.43" type="curve" smooth="yes"/>
			<point x="903.571" y="1191.43"/>
			<point x="979.857" y="1100.14"/>
			<point x="979.857" y="926.857" type="curve" smooth="yes"/>
			<point x="979.857" y="608.429"/>
			<point x="770.857" y="395.429"/>
			<point x="532.286" y="313.286" type="curve"/>
			<point x="532.286" y="818.143" type="line" smooth="yes"/>
			<point x="532.286" y="1072.14"/>
			<point x="608.286" y="1191.43"/>
		</contour>
	</outline>
	<anchor name="bottom" x="717.429" y="-492"/>
	<anchor name="top" x="717.429" y="1462"/>
</glyph>
<glyph name="aringacute" format="2">
	<unicode hex="01FB"/>
	<advance width="1243"/>
	<outline>
		<contour>
			<point x="667" y="1145.43" type="curve" smooth="yes"/>
			<point x="474" y="1145.43"/>
			<point x="317.286" y="1111"/>
			<point x="189.571" y="1046.57" type="curve"/>
			<point x="289" y="817.857" type="line"/>
			<point x="400.857" y="868.286"/>
			<point x="512.571" y="901.571"/>
			<point x="605.286" y="901.571" type="curve" smooth="yes"/>
			<point x="704.429" y="901.571"/>
			<point x="763.857" y="853.714"/>
			<point x="763.857" y="732" type="curve" smooth="yes"/>
			<point x="763.857" y="705.714" type="line"/>
			<point x="571.714" y="698.857" type="line" smooth="yes"/>
			<point x="243.857" y="687.714"/>
			<point x="77.4286" y="586.143"/>
			<point x="77.4286" y="339.429" type="curve" smooth="yes"/>
			<point x="77.4286" y="97.1429"/>
			<point x="219.286" y="-20"/>
			<point x="419.143" y="-20" type="curve" smooth="yes"/>
			<point x="611.857" y="-20"/>
			<point x="703.714" y="37.1429"/>
			<point x="795" y="158.714" type="curve"/>
			<point x="802.429" y="158.714" type="line"/>
			<point x="867.857" y="0" type="line"/>
			<point x="1106.71" y="0" type="line"/>
			<point x="1106.71" y="739.286" type="line" smooth="yes"/>
			<point x="1106.71" y="1002.71"/>
			<point x="944.857" y="1145.43"/>
		</contour>
		<contour>
			<point x="765.571" y="514.143" type="line"/>
			<point x="765.571" y="422.714" type="line"/>
			<point x="765" y="305"/>
			<point x="680.857" y="223.857"/>
			<point x="561.429" y="223.857" type="curve" smooth="yes"/>
			<point x="478.286" y="223.857"/>
			<point x="427.714" y="259.571"/>
			<point x="427.714" y="346.286" type="curve" smooth="yes"/>
			<point x="427.714" y="443.857"/>
			<point x="495.714" y="502.143"/>
			<point x="658.857" y="509.286" type="curve" smooth="yes"/>
		</contour>
		<contour>
			<point x="637.571" y="1541.43" type="curve" smooth="yes"/>
			<point x="689.857" y="1541.43"/>
			<point x="731.714" y="1503.14"/>
			<point x="731.714" y="1447.14" type="curve" smooth="yes"/>
			<point x="731.714" y="1392.86"/>
			<point x="691" y="1353"/>
			<point x="637.571" y="1353" type="curve" smooth="yes"/>
			<point x="577.286" y="1353"/>
			<point x="543" y="1392.86"/>
			<point x="543" y="1447.14" type="curve" smooth="yes"/>
			<point x="543" y="1503.14"/>
			<point x="584.429" y="1541.43"/>
		</contour>
		<contour>
			<point x="637.571" y="1694.14" type="curve" smooth="yes"/>
			<point x="486.857" y="1694.14"/>
			<point x="381.714" y="1599.29"/>
			<point x="381.714" y="1447.14" type="curve" smooth="yes"/>
			<point x="381.714" y="1296.86"/>
			<point x="487.143" y="1202"/>
			<point x="637.571" y="1202" type="curve" smooth="yes"/>
			<point x="783.857" y="1202"/>
			<point x="900.857" y="1297.14"/>
			<point x="900.857" y="1448.86" type="curve" smooth="yes"/>
			<point x="900.857" y="1598.71"/>
			<point x="782.143" y="1694.14"/>
		</contour>
		<contour>
			<point x="992" y="1970" type="line"/>
			<point x="646.286" y="1970" type="line"/>
			<point x="601.286" y="1906.43"/>
			<point x="522.429" y="1819.86"/>
			<point x="462.143" y="1765" type="curve"/>
			<point x="462.143" y="1748.71" type="line"/>
			<point x="686" y="1748.71" type="line"/>
			<point x="778.571" y="1801.29"/>
			<point x="945.143" y="1903.86"/>
			<point x="992" y="1957.57" type="curve"/>
		</contour>
	</outline>
	<anchor name="bottom" x="622.571" y="0"/>
	<anchor name="top" x="622.571" y="1970"/>
</glyph>
<glyph name="uni021C" format="2">
	<unicode hex="021C"/>
	<advance width="1279"/>
	<outline>
		<contour>
			<point x="91.1429" y="-369" type="line"/>
			<point x="845.857" y="-221.286"/>
			<point x="1179" y="-2.85714"/>
			<point x="1179" y="376.429" type="curve" smooth="yes"/>
			<point x="1179" y="562.143"/>
			<point x="1086" y="681.429"/>
			<point x="960.571" y="752.429" type="curve"/>
			<point x="1080" y="842.143"/>
			<point x="1141.86" y="950"/>
			<point x="1141.86" y="1087.43" type="curve" smooth="yes"/>
			<point x="1141.86" y="1345.14"/>
			<point x="941.143" y="1483"/>
			<point x="627" y="1483" type="curve" smooth="yes"/>
			<point x="408.286" y="1483"/>
			<point x="232" y="1426.71"/>
			<point x="67.1429" y="1318.71" type="curve"/>
			<point x="213.857" y="1078.86" type="line"/>
			<point x="327.143" y="1147.14"/>
			<point x="464.429" y="1198"/>
			<point x="591.857" y="1198" type="curve" smooth="yes"/>
			<point x="709.286" y="1198"/>
			<point x="795.286" y="1162.86"/>
			<point x="795.286" y="1052.29" type="curve" smooth="yes"/>
			<point x="795.286" y="934.286"/>
			<point x="690.857" y="871.714"/>
			<point x="314.857" y="785.143" type="curve"/>
			<point x="374.857" y="520.143" type="line"/>
			<point x="500.143" y="548.143"/>
			<point x="611.571" y="578.571"/>
			<point x="706.714" y="615.286" type="curve"/>
			<point x="781.143" y="562.429"/>
			<point x="824" y="494.857"/>
			<point x="824" y="395.857" type="curve" smooth="yes"/>
			<point x="824" y="196.714"/>
			<point x="700" y="68.2857"/>
			<point x="91.1429" y="-58.7143" type="curve"/>
		</contour>
	</outline>
	<anchor name="bottom" x="674.143" y="-209.286"/>
	<anchor name="top" x="634.286" y="1462"/>
</glyph>
<glyph name="uni021D" format="2">
	<unicode hex="021D"/>
	<advance width="1103"/>
	<outline>
		<contour>
			<point x="62.7143" y="-492.286" type="line"/>
			<point x="616" y="-388.714"/>
			<point x="1023.43" y="-259.429"/>
			<point x="1023.43" y="130.286" type="curve" smooth="yes"/>
			<point x="1023.43" y="291"/>
			<point x="947.571" y="399.286"/>
			<point x="824.857" y="468.714" type="curve"/>
			<point x="923.857" y="541.429"/>
			<point x="985.571" y="637"/>
			<point x="985.571" y="757.429" type="curve" smooth="yes"/>
			<point x="985.571" y="997.571"/>
			<point x="809.857" y="1140.86"/>
			<point x="491.714" y="1140.86" type="curve" smooth="yes"/>
			<point x="331.286" y="1140.86"/>
			<point x="190.429" y="1107.29"/>
			<point x="48.8571" y="1044.57" type="curve"/>
			<point x="145.286" y="799" type="line"/>
			<point x="238.429" y="838.857"/>
			<point x="355.571" y="868.714"/>
			<point x="475.429" y="868.714" type="curve" smooth="yes"/>
			<point x="594" y="868.714"/>
			<point x="668.286" y="831.571"/>
			<point x="668.286" y="734.286" type="curve" smooth="yes"/>
			<point x="668.286" y="635.286"/>
			<point x="569.429" y="583"/>
			<point x="256.857" y="507.571" type="curve"/>
			<point x="317" y="266" type="line"/>
			<point x="409.286" y="286.714"/>
			<point x="500.143" y="311.857"/>
			<point x="584.143" y="342.571" type="curve"/>
			<point x="645.429" y="294"/>
			<point x="674.429" y="234.857"/>
			<point x="674.429" y="146.286" type="curve" smooth="yes"/>
			<point x="674.429" y="-31.5714"/>
			<point x="504" y="-121.429"/>
			<point x="62.7143" y="-203.429" type="curve"/>
		</contour>
	</outline>
	<anchor name="bottom" x="529.857" y="-375.429"/>
	<anchor name="top" x="494.286" y="1125.57"/>
</glyph>
<glyph name="uni0221" format="2">
	<unicode hex="0221"/>
	<advance width="1782"/>
	<outline>
		<contour>
			<point x="1255" y="-216.143" type="line"/>
			<point x="1258.71" y="-134.143"/>
			<point x="1265.57" y="-65.2857"/>
			<point x="1276.86" y="1.71429" type="curve"/>
			<point x="1293.43" y="0.857143"/>
			<point x="1338.43" y="0"/>
			<point x="1370.86" y="0" type="curve" smooth="yes"/>
			<point x="1694.29" y="0"/>
			<point x="1787.71" y="129.714"/>
			<point x="1787.71" y="280" type="curve" smooth="yes"/>
			<point x="1787.71" y="419.571"/>
			<point x="1693.57" y="520.857"/>
			<point x="1504" y="520.857" type="curve" smooth="yes"/>
			<point x="1336.57" y="520.857"/>
			<point x="1229.43" y="435.571"/>
			<point x="1174.71" y="355.714" type="curve"/>
			<point x="1163.14" y="379.857"/>
			<point x="1157.71" y="418.429"/>
			<point x="1157.71" y="456.714" type="curve" smooth="yes"/>
			<point x="1157.71" y="1556" type="line"/>
			<point x="808.857" y="1556" type="line"/>
			<point x="808.857" y="1197.71" type="line" smooth="yes"/>
			<point x="808.857" y="1108.29"/>
			<point x="835.429" y="959.714"/>
			<point x="834.429" y="979.143" type="curve"/>
			<point x="823.429" y="979.143" type="line"/>
			<point x="776.714" y="1059.57"/>
			<point x="676.429" y="1145.71"/>
			<point x="510.286" y="1145.71" type="curve" smooth="yes"/>
			<point x="264.143" y="1145.71"/>
			<point x="85.8571" y="947.286"/>
			<point x="85.8571" y="562" type="curve" smooth="yes"/>
			<point x="85.8571" y="168.286"/>
			<point x="257.714" y="-20"/>
			<point x="548.286" y="-20" type="curve" smooth="yes"/>
			<point x="748.714" y="-20"/>
			<point x="863.571" y="62.8571"/>
			<point x="928.857" y="147.857" type="curve"/>
			<point x="941.286" y="147.857" type="line"/>
			<point x="951.571" y="116.143"/>
			<point x="983.857" y="77.8571"/>
			<point x="1035.43" y="53.8571" type="curve"/>
			<point x="1019.71" y="-25.8571"/>
			<point x="1008" y="-105.857"/>
			<point x="1001.71" y="-207" type="curve"/>
		</contour>
		<contour>
			<point x="630.571" y="255.571" type="curve" smooth="yes"/>
			<point x="510.714" y="255.571"/>
			<point x="437.429" y="357.571"/>
			<point x="437.429" y="556.857" type="curve" smooth="yes"/>
			<point x="437.429" y="756.571"/>
			<point x="513.714" y="865"/>
			<point x="627.714" y="865" type="curve" smooth="yes"/>
			<point x="780" y="865"/>
			<point x="833.714" y="754.571"/>
			<point x="833.714" y="557" type="curve" smooth="yes"/>
			<point x="833.714" y="522.714" type="line"/>
			<point x="828.571" y="339"/>
			<point x="773.143" y="255.571"/>
		</contour>
		<contour>
			<point x="1405.43" y="191.571" type="curve" smooth="yes"/>
			<point x="1377" y="191.571"/>
			<point x="1344.43" y="192.429"/>
			<point x="1325.43" y="193.286" type="curve"/>
			<point x="1350.71" y="265.857"/>
			<point x="1399" y="323.571"/>
			<point x="1478" y="323.571" type="curve" smooth="yes"/>
			<point x="1525.29" y="323.571"/>
			<point x="1553.86" y="305.714"/>
			<point x="1553.86" y="263.429" type="curve" smooth="yes"/>
			<point x="1553.86" y="217.571"/>
			<point x="1514.71" y="191.571"/>
		</contour>
	</outline>
	<anchor name="bottom" x="890.857" y="-216.143"/>
	<anchor name="top" x="890.857" y="1556"/>
</glyph>
<glyph name="uni0236" format="2">
	<unicode hex="0236"/>
	<advance width="964"/>
	<outline>
		<contour>
			<point x="294" y="-87.8571" type="line"/>
			<point x="311" y="-44.7143"/>
			<point x="346.571" y="19"/>
			<point x="371" y="50.5714" type="curve"/>
			<point x="416" y="11.5714"/>
			<point x="493.286" y="-20"/>
			<point x="615.714" y="-20" type="curve" smooth="yes"/>
			<point x="867.857" y="-20"/>
			<point x="984.571" y="104.429"/>
			<point x="984.571" y="275.429" type="curve" smooth="yes"/>
			<point x="984.571" y="418.714"/>
			<point x="884.857" y="526.429"/>
			<point x="708.714" y="526.429" type="curve" smooth="yes"/>
			<point x="641.714" y="526.429"/>
			<point x="574.429" y="504.286"/>
			<point x="541.714" y="481.857" type="curve"/>
			<point x="541.714" y="865.429" type="line"/>
			<point x="858.571" y="865.429" type="line"/>
			<point x="858.571" y="1125.57" type="line"/>
			<point x="541.714" y="1125.57" type="line"/>
			<point x="541.714" y="1356.86" type="line"/>
			<point x="314.429" y="1356.86" type="line"/>
			<point x="220.857" y="1121.29" type="line"/>
			<point x="51.7143" y="1009.86" type="line"/>
			<point x="51.7143" y="865.429" type="line"/>
			<point x="193.714" y="865.429" type="line"/>
			<point x="193.714" y="388.714" type="line" smooth="yes"/>
			<point x="193.714" y="291.429"/>
			<point x="207.714" y="220.143"/>
			<point x="235" y="170.857" type="curve"/>
			<point x="198.143" y="129.429"/>
			<point x="155.429" y="50.2857"/>
			<point x="129.857" y="-11.2857" type="curve"/>
		</contour>
		<contour>
			<point x="657.714" y="180.143" type="curve" smooth="yes"/>
			<point x="587.143" y="180.143"/>
			<point x="549.143" y="221.571"/>
			<point x="540.857" y="284.429" type="curve"/>
			<point x="567.857" y="317.571"/>
			<point x="614.857" y="338.286"/>
			<point x="660.286" y="338.286" type="curve" smooth="yes"/>
			<point x="724.714" y="338.286"/>
			<point x="760.571" y="307.143"/>
			<point x="760.571" y="259.143" type="curve" smooth="yes"/>
			<point x="760.571" y="209.714"/>
			<point x="714.143" y="180.143"/>
		</contour>
	</outline>
	<anchor name="bottom" x="482" y="0"/>
	<anchor name="top" x="482" y="1356.86"/>
</glyph>
<glyph name="jdotless" format="2">
	<unicode hex="0237"/>
	<advance width="630"/>
	<outline>
		<contour>
			<point x="94.1429" y="-492" type="curve" smooth="yes"/>
			<point x="378.143" y="-492"/>
			<point x="484.857" y="-313.429"/>
			<point x="484.857" y="-114" type="curve" smooth="yes"/>
			<point x="484.857" y="1125.57" type="line"/>
			<point x="142" y="1125.57" type="line"/>
			<point x="142" y="-42.5714" type="line" smooth="yes"/>
			<point x="142" y="-178.143"/>
			<point x="87.2857" y="-217.143"/>
			<point x="17" y="-217.143" type="curve" smooth="yes"/>
			<point x="-27.4286" y="-217.143"/>
			<point x="-61" y="-211.429"/>
			<point x="-103.714" y="-198.571" type="curve"/>
			<point x="-103.714" y="-467.571" type="line"/>
			<point x="-53.7143" y="-481.286"/>
			<point x="32.7143" y="-492"/>
		</contour>
	</outline>
	<anchor name="bottom" x="94.1429" y="-492"/>
	<anchor name="top" x="315" y="1125.57"/>
</glyph>
<glyph name="uni0238" format="2">
	<unicode hex="0238"/>
	<advance width="1967"/>
	<outline>
		<contour>
			<point x="604.429" y="-20" type="curve" smooth="yes"/>
			<point x="766.714" y="-20"/>
			<point x="900.857" y="41.7143"/>
			<point x="979.857" y="155.286" type="curve"/>
			<point x="1058.86" y="41.7143"/>
			<point x="1186.29" y="-20"/>
			<point x="1347.57" y="-20" type="curve" smooth="yes"/>
			<point x="1646.57" y="-20"/>
			<point x="1879" y="162.429"/>
			<point x="1879" y="561" type="curve" smooth="yes"/>
			<point x="1879" y="944.714"/>
			<point x="1704.29" y="1146"/>
			<point x="1468.43" y="1146" type="curve" smooth="yes"/>
			<point x="1298.86" y="1146"/>
			<point x="1205.86" y="1059.57"/>
			<point x="1157.71" y="973.286" type="curve"/>
			<point x="1144.29" y="973.286" type="line"/>
			<point x="1148" y="1016.14"/>
			<point x="1157.71" y="1094"/>
			<point x="1157.71" y="1187.29" type="curve" smooth="yes"/>
			<point x="1157.71" y="1556" type="line"/>
			<point x="808.857" y="1556" type="line"/>
			<point x="808.857" y="1187.29" type="line" smooth="yes"/>
			<point x="808.857" y="1100.86"/>
			<point x="817" y="1021.29"/>
			<point x="822.429" y="973.286" type="curve"/>
			<point x="808.857" y="973.286" type="line"/>
			<point x="762.429" y="1056.14"/>
			<point x="667.857" y="1146"/>
			<point x="498.286" y="1146" type="curve" smooth="yes"/>
			<point x="258.857" y="1146"/>
			<point x="85.8571" y="948.143"/>
			<point x="85.8571" y="567.857" type="curve" smooth="yes"/>
			<point x="85.8571" y="177.857"/>
			<point x="300.286" y="-20"/>
		</contour>
		<contour>
			<point x="624.143" y="259" type="curve" smooth="yes"/>
			<point x="507.571" y="259"/>
			<point x="440.857" y="344.429"/>
			<point x="440.857" y="566.143" type="curve" smooth="yes"/>
			<point x="440.857" y="772.571"/>
			<point x="513" y="870.429"/>
			<point x="620" y="870.429" type="curve" smooth="yes"/>
			<point x="749.429" y="870.429"/>
			<point x="808.857" y="777.429"/>
			<point x="808.857" y="569.857" type="curve" smooth="yes"/>
			<point x="808.857" y="332.714"/>
			<point x="741.143" y="259"/>
		</contour>
		<contour>
			<point x="1340.71" y="259" type="curve" smooth="yes"/>
			<point x="1224.71" y="259"/>
			<point x="1157.71" y="333.571"/>
			<point x="1157.71" y="569.857" type="curve" smooth="yes"/>
			<point x="1157.71" y="779.143"/>
			<point x="1219" y="870.429"/>
			<point x="1345" y="870.429" type="curve" smooth="yes"/>
			<point x="1453.57" y="870.429"/>
			<point x="1525.71" y="767.429"/>
			<point x="1525.71" y="561" type="curve" smooth="yes"/>
			<point x="1525.71" y="336.714"/>
			<point x="1459" y="259"/>
		</contour>
	</outline>
	<anchor name="bottom" x="983.286" y="0"/>
	<anchor name="top" x="983.286" y="1556"/>
</glyph>
<glyph name="uni0239" format="2">
	<unicode hex="0239"/>
	<advance width="1967"/>
	<outline>
		<contour>
			<point x="1360.43" y="1146" type="curve" smooth="yes"/>
			<point x="1200" y="1146"/>
			<point x="1065.71" y="1084.14"/>
			<point x="986.714" y="970.571" type="curve"/>
			<point x="906" y="1084.14"/>
			<point x="780.429" y="1146"/>
			<point x="619" y="1146" type="curve" smooth="yes"/>
			<point x="318.286" y="1146"/>
			<point x="85.8571" y="963.429"/>
			<point x="85.8571" y="564.143" type="curve" smooth="yes"/>
			<point x="85.8571" y="180.286"/>
			<point x="262.286" y="-20"/>
			<point x="498.286" y="-20" type="curve" smooth="yes"/>
			<point x="667.857" y="-20"/>
			<point x="760.714" y="65.4286"/>
			<point x="808.857" y="151.714" type="curve"/>
			<point x="822.429" y="151.714" type="line"/>
			<point x="815.286" y="91.7143"/>
			<point x="808.857" y="32"/>
			<point x="808.857" y="-64" type="curve" smooth="yes"/>
			<point x="808.857" y="-497.857" type="line"/>
			<point x="1157.71" y="-497.857" type="line"/>
			<point x="1157.71" y="-64" type="line" smooth="yes"/>
			<point x="1157.71" y="24.2857"/>
			<point x="1152.29" y="86.5714"/>
			<point x="1144.29" y="151.714" type="curve"/>
			<point x="1157.71" y="151.714" type="line"/>
			<point x="1202.43" y="68.8571"/>
			<point x="1297.14" y="-20"/>
			<point x="1468.43" y="-20" type="curve" smooth="yes"/>
			<point x="1706" y="-20"/>
			<point x="1879" y="176.857"/>
			<point x="1879" y="557.286" type="curve" smooth="yes"/>
			<point x="1879" y="948"/>
			<point x="1666.29" y="1146"/>
		</contour>
		<contour>
			<point x="625.857" y="867" type="curve" smooth="yes"/>
			<point x="741.857" y="867"/>
			<point x="808.857" y="789.857"/>
			<point x="808.857" y="553.571" type="curve" smooth="yes"/>
			<point x="808.857" y="346.714"/>
			<point x="747.714" y="255.571"/>
			<point x="620" y="255.571" type="curve" smooth="yes"/>
			<point x="513" y="255.571"/>
			<point x="440.857" y="356.714"/>
			<point x="440.857" y="564.143" type="curve" smooth="yes"/>
			<point x="440.857" y="788.286"/>
			<point x="507.571" y="867"/>
		</contour>
		<contour>
			<point x="1342.43" y="867" type="curve" smooth="yes"/>
			<point x="1457.29" y="867"/>
			<point x="1525.71" y="781.429"/>
			<point x="1525.71" y="557.286" type="curve" smooth="yes"/>
			<point x="1525.71" y="353.286"/>
			<point x="1453.57" y="255.571"/>
			<point x="1345" y="255.571" type="curve" smooth="yes"/>
			<point x="1217.29" y="255.571"/>
			<point x="1157.71" y="346.714"/>
			<point x="1157.71" y="553.571" type="curve" smooth="yes"/>
			<point x="1157.71" y="790.714"/>
			<point x="1225.57" y="867"/>
		</contour>
	</outline>
	<anchor name="bottom" x="983.286" y="-497.857"/>
	<anchor name="top" x="983.286" y="1125.57"/>
</glyph>
<glyph name="uni023C" format="2">
	<unicode hex="023C"/>
	<advance width="1072"/>
	<outline>
		<component base="c"/>
		<contour>
			<point x="1092" y="1534.71" type="line"/>
			<point x="871.714" y="1534.71" type="line"/>
			<point x="180" y="-408.429" type="line"/>
			<point x="402" y="-408.429" type="line"/>
		</contour>
	</outline>
	<anchor name="bottom" x="639.429" y="-408.429"/>
	<anchor name="top" x="603.857" y="1534.71"/>
</glyph>
<glyph name="uni023D" format="2">
	<unicode hex="023D"/>
	<advance width="1170"/>
	<outline>
		<component base="L"/>
		<contour>
			<point x="21.7143" y="587.714" type="line"/>
			<point x="810.571" y="587.714" type="line"/>
			<point x="810.571" y="862.429" type="line"/>
			<point x="21.7143" y="862.429" type="line"/>
		</contour>
	</outline>
	<anchor name="bottom" x="625.429" y="0"/>
	<anchor name="top" x="332.286" y="1462"/>
</glyph>
<glyph name="uni023F" format="2">
	<unicode hex="023F"/>
	<advance width="1070"/>
	<outline>
		<contour>
			<point x="734" y="-492" type="curve" smooth="yes"/>
			<point x="818.571" y="-492"/>
			<point x="884.429" y="-476.714"/>
			<point x="924" y="-464.714" type="curve"/>
			<point x="924" y="-216.571" type="line"/>
			<point x="892.714" y="-226.286"/>
			<point x="853.143" y="-238.571"/>
			<point x="804" y="-238.571" type="curve" smooth="yes"/>
			<point x="718" y="-238.571"/>
			<point x="682" y="-206.429"/>
			<point x="631" y="-98.8571" type="curve"/>
			<point x="616.571" y="-65.7143"/>
			<point x="602" y="-37"/>
			<point x="581.286" y="-16.5714" type="curve"/>
			<point x="863" y="1.28571"/>
			<point x="986" y="138.714"/>
			<point x="986" y="337.429" type="curve" smooth="yes"/>
			<point x="986" y="537.571"/>
			<point x="878.143" y="614.571"/>
			<point x="684.429" y="691.429" type="curve"/>
			<point x="498.714" y="763.286"/>
			<point x="446" y="780"/>
			<point x="446" y="840.857" type="curve" smooth="yes"/>
			<point x="446" y="887.286"/>
			<point x="492.429" y="912.143"/>
			<point x="573.571" y="912.143" type="curve" smooth="yes"/>
			<point x="646.571" y="912.143"/>
			<point x="772.714" y="880.286"/>
			<point x="880.429" y="831.286" type="curve"/>
			<point x="974.429" y="1054.57" type="line"/>
			<point x="841.286" y="1113.57"/>
			<point x="718" y="1145.71"/>
			<point x="571.857" y="1145.71" type="curve" smooth="yes"/>
			<point x="298.286" y="1145.71"/>
			<point x="118.429" y="1034.43"/>
			<point x="118.429" y="821.143" type="curve" smooth="yes"/>
			<point x="118.429" y="633"/>
			<point x="219.143" y="552"/>
			<point x="407.571" y="477" type="curve" smooth="yes"/>
			<point x="597" y="402.429"/>
			<point x="661.714" y="380"/>
			<point x="661.714" y="315.143" type="curve" smooth="yes"/>
			<point x="661.714" y="260.143"/>
			<point x="613.714" y="230.714"/>
			<point x="502.857" y="230.714" type="curve" smooth="yes"/>
			<point x="411" y="230.714"/>
			<point x="253.143" y="257.571"/>
			<point x="115.143" y="321" type="curve"/>
			<point x="115.143" y="45.8571" type="line"/>
			<point x="132.143" y="38.4286"/>
			<point x="166.571" y="30"/>
			<point x="190" y="23.1429" type="curve"/>
			<point x="267.429" y="-2.14286"/>
			<point x="313.286" y="-69.4286"/>
			<point x="352.286" y="-179.286" type="curve" smooth="yes"/>
			<point x="417" y="-361.286"/>
			<point x="488.571" y="-492"/>
		</contour>
	</outline>
	<anchor name="bottom" x="535.857" y="-492"/>
	<anchor name="top" x="535.857" y="1125.57"/>
</glyph>
<glyph name="uni0240" format="2">
	<unicode hex="0240"/>
	<advance width="1011"/>
	<outline>
		<contour>
			<point x="823.571" y="-492" type="curve" smooth="yes"/>
			<point x="895" y="-492"/>
			<point x="976.857" y="-481.857"/>
			<point x="1026.43" y="-464.714" type="curve"/>
			<point x="1026.43" y="-194.286" type="line"/>
			<point x="984.286" y="-206.571"/>
			<point x="945.571" y="-210.286"/>
			<point x="895" y="-210.286" type="curve" smooth="yes"/>
			<point x="814.714" y="-210.286"/>
			<point x="760.857" y="-167.429"/>
			<point x="694.286" y="-16.5714" type="curve" smooth="yes"/>
			<point x="650.429" y="82.2857"/>
			<point x="576.714" y="199.571"/>
			<point x="435.429" y="233.857" type="curve"/>
			<point x="934" y="897.571" type="line"/>
			<point x="934" y="1125.57" type="line"/>
			<point x="78.1429" y="1125.57" type="line"/>
			<point x="78.1429" y="862" type="line"/>
			<point x="542.286" y="862" type="line"/>
			<point x="48.8571" y="204.714" type="line"/>
			<point x="48.8571" y="0" type="line"/>
			<point x="180.857" y="0" type="line" smooth="yes"/>
			<point x="311.143" y="0"/>
			<point x="360.286" y="-60.1429"/>
			<point x="403.571" y="-179.286" type="curve" smooth="yes"/>
			<point x="462.714" y="-342.143"/>
			<point x="547.143" y="-492"/>
		</contour>
	</outline>
	<anchor name="bottom" x="505.571" y="-492"/>
	<anchor name="top" x="505.571" y="1125.57"/>
</glyph>
<glyph name="uni0242" format="2">
	<unicode hex="0242"/>
	<advance width="1036"/>
	<outline>
		<contour>
			<point x="466.429" y="1145.14" type="curve" smooth="yes"/>
			<point x="288.143" y="1145.14"/>
			<point x="141.857" y="1094.14"/>
			<point x="0.857143" y="1017.14" type="curve"/>
			<point x="124.714" y="767.857" type="line"/>
			<point x="179.571" y="798.286"/>
			<point x="299.571" y="866.143"/>
			<point x="425.857" y="866.143" type="curve" smooth="yes"/>
			<point x="524.857" y="866.143"/>
			<point x="610.429" y="793.714"/>
			<point x="610.429" y="693" type="curve" smooth="yes"/>
			<point x="610.429" y="593.143"/>
			<point x="552.286" y="443.143"/>
			<point x="247.286" y="337.429" type="curve"/>
			<point x="247.286" y="0" type="line"/>
			<point x="600.429" y="0" type="line"/>
			<point x="600.429" y="190.571" type="line"/>
			<point x="864.714" y="330.714"/>
			<point x="963.714" y="488"/>
			<point x="963.714" y="708.143" type="curve" smooth="yes"/>
			<point x="963.714" y="951.429"/>
			<point x="777.714" y="1145.14"/>
		</contour>
	</outline>
	<anchor name="bottom" x="519.286" y="0"/>
	<anchor name="top" x="519.286" y="1125.57"/>
</glyph>
<glyph name="uni0249" format="2">
	<unicode hex="0249"/>
	<advance width="659"/>
	<outline>
		<contour>
			<point x="75.2857" y="-492" type="curve" smooth="yes"/>
			<point x="388.429" y="-492"/>
			<point x="502.857" y="-313.429"/>
			<point x="502.857" y="-103.714" type="curve" smooth="yes"/>
			<point x="502.857" y="461.714" type="line"/>
			<point x="661.143" y="461.714" type="line"/>
			<point x="661.143" y="685" type="line"/>
			<point x="502.857" y="685" type="line"/>
			<point x="502.857" y="1125.57" type="line"/>
			<point x="154.857" y="1125.57" type="line"/>
			<point x="154.857" y="685" type="line"/>
			<point x="-4.85714" y="685" type="line"/>
			<point x="-4.85714" y="461.714" type="line"/>
			<point x="154.857" y="461.714" type="line"/>
			<point x="154.857" y="-40.8571" type="line" smooth="yes"/>
			<point x="154.857" y="-182.429"/>
			<point x="85.5714" y="-213.714"/>
			<point x="6.71429" y="-213.714" type="curve" smooth="yes"/>
			<point x="-53.1429" y="-213.714"/>
			<point x="-91" y="-208"/>
			<point x="-138.857" y="-195.143" type="curve"/>
			<point x="-138.857" y="-467.571" type="line"/>
			<point x="-88.8571" y="-481.286"/>
			<point x="2.71429" y="-492"/>
		</contour>
		<contour>
			<point x="147.571" y="1405.71" type="curve"/>
			<point x="154.571" y="1291.71"/>
			<point x="240.286" y="1260.57"/>
			<point x="338" y="1265.57" type="curve" smooth="yes"/>
			<point x="434.857" y="1270.29"/>
			<point x="518" y="1306.43"/>
			<point x="511" y="1423.86" type="curve"/>
			<point x="505.143" y="1543"/>
			<point x="419.714" y="1568.57"/>
			<point x="322.857" y="1563.86" type="curve" smooth="yes"/>
			<point x="225.143" y="1558.86"/>
			<point x="141.714" y="1523.14"/>
		</contour>
	</outline>
	<anchor name="bottom" x="330.429" y="-492"/>
	<anchor name="top" x="330.429" y="1573"/>
</glyph>
<glyph name="uni024B" format="2">
	<unicode hex="024B"/>
	<advance width="1311"/>
	<outline>
		<contour>
			<point x="508.571" y="1145.71" type="curve" smooth="yes"/>
			<point x="266" y="1145.71"/>
			<point x="85" y="950"/>
			<point x="85" y="562.714" type="curve" smooth="yes"/>
			<point x="85" y="178.857"/>
			<point x="253.714" y="-20.4286"/>
			<point x="497.857" y="-20.4286" type="curve" smooth="yes"/>
			<point x="666.286" y="-20.4286"/>
			<point x="761.286" y="62"/>
			<point x="808" y="151.429" type="curve"/>
			<point x="821.429" y="151.429" type="line"/>
			<point x="814.286" y="94.5714"/>
			<point x="808" y="24"/>
			<point x="808" y="-37.7143" type="curve" smooth="yes"/>
			<point x="808" y="-125.714" type="line" smooth="yes"/>
			<point x="808" y="-340.286"/>
			<point x="892" y="-492.857"/>
			<point x="1159.86" y="-492.857" type="curve" smooth="yes"/>
			<point x="1236.86" y="-492.857"/>
			<point x="1315.86" y="-483.857"/>
			<point x="1362" y="-458.143" type="curve"/>
			<point x="1362" y="-196.286" type="line"/>
			<point x="1322.14" y="-208.286"/>
			<point x="1297.14" y="-216.286"/>
			<point x="1250.43" y="-216.286" type="curve" smooth="yes"/>
			<point x="1190.14" y="-216.286"/>
			<point x="1156.86" y="-177.286"/>
			<point x="1156.86" y="-120.286" type="curve" smooth="yes"/>
			<point x="1156.86" y="1125.57" type="line"/>
			<point x="862.429" y="1125.57" type="line"/>
			<point x="834.571" y="975.143" type="line"/>
			<point x="827.143" y="975.143" type="line"/>
			<point x="771.571" y="1063.86"/>
			<point x="680.286" y="1145.71"/>
		</contour>
		<contour>
			<point x="627.714" y="865" type="curve" smooth="yes"/>
			<point x="778.714" y="865"/>
			<point x="832.857" y="755.857"/>
			<point x="832.857" y="556.143" type="curve" smooth="yes"/>
			<point x="832.857" y="513" type="line"/>
			<point x="827.714" y="335.286"/>
			<point x="769.571" y="250.143"/>
			<point x="631.571" y="250.143" type="curve" smooth="yes"/>
			<point x="496.714" y="250.143"/>
			<point x="440" y="351.857"/>
			<point x="440" y="559.286" type="curve" smooth="yes"/>
			<point x="440" y="755.143"/>
			<point x="499" y="865"/>
		</contour>
	</outline>
	<anchor name="bottom" x="656.286" y="-492.857"/>
	<anchor name="top" x="656.286" y="1125.57"/>
</glyph>
<glyph name="uni024E" format="2">
	<unicode hex="024E"/>
	<advance width="1319"/>
	<outline>
		<component base="Y"/>
		<contour>
			<point x="1325.14" y="1290.29" type="line"/>
			<point x="-5.71429" y="1290.29" type="line"/>
			<point x="-5.71429" y="1065.29" type="line"/>
			<point x="1325.14" y="1065.29" type="line"/>
		</contour>
	</outline>
	<anchor name="bottom" x="656.857" y="0"/>
	<anchor name="top" x="656.857" y="1462"/>
</glyph>
<glyph name="uni024F" format="2">
	<unicode hex="024F"/>
	<advance width="1210"/>
	<outline>
		<component base="y"/>
		<contour>
			<point x="1188.29" y="804.857" type="line"/>
			<point x="23.1429" y="804.857" type="line"/>
			<point x="23.1429" y="579.857" type="line"/>
			<point x="1188.29" y="579.857" type="line"/>
		</contour>
	</outline>
	<anchor name="bottom" x="257.143" y="-492.857"/>
	<anchor name="top" x="598.286" y="1125.57"/>
</glyph>
<glyph name="uni0250" format="2">
	<unicode hex="0250"/>
	<advance width="1243"/>
	<outline>
		<contour>
			<point x="576.286" y="-19.8571" type="curve" smooth="yes"/>
			<point x="769.286" y="-19.8571"/>
			<point x="926" y="14.5714"/>
			<point x="1053.71" y="79" type="curve"/>
			<point x="954.286" y="307.714" type="line"/>
			<point x="842.429" y="257.286"/>
			<point x="730.714" y="224"/>
			<point x="638" y="224" type="curve" smooth="yes"/>
			<point x="538.857" y="224"/>
			<point x="479.429" y="271.857"/>
			<point x="479.429" y="393.571" type="curve" smooth="yes"/>
			<point x="479.429" y="419.857" type="line"/>
			<point x="671.571" y="426.714" type="line"/>
			<point x="990.857" y="442.143"/>
			<point x="1165.86" y="553.143"/>
			<point x="1165.86" y="791.286" type="curve" smooth="yes"/>
			<point x="1165.86" y="1028.43"/>
			<point x="1024" y="1145.57"/>
			<point x="824.143" y="1145.57" type="curve" smooth="yes"/>
			<point x="631.429" y="1145.57"/>
			<point x="539.571" y="1088.43"/>
			<point x="448.286" y="966.857" type="curve"/>
			<point x="440.857" y="966.857" type="line"/>
			<point x="375.429" y="1125.57" type="line"/>
			<point x="136.571" y="1125.57" type="line"/>
			<point x="136.571" y="386.286" type="line" smooth="yes"/>
			<point x="136.571" y="122.857"/>
			<point x="298.429" y="-19.8571"/>
		</contour>
		<contour>
			<point x="477.714" y="611.429" type="line"/>
			<point x="477.714" y="702.857" type="line"/>
			<point x="478.286" y="820.571"/>
			<point x="562.429" y="901.714"/>
			<point x="681.857" y="901.714" type="curve" smooth="yes"/>
			<point x="765" y="901.714"/>
			<point x="817.286" y="859.143"/>
			<point x="817.286" y="771.571" type="curve" smooth="yes"/>
			<point x="817.286" y="674"/>
			<point x="747.571" y="623.429"/>
			<point x="584.429" y="616.286" type="curve" smooth="yes"/>
		</contour>
	</outline>
	<anchor name="bottom" x="622.571" y="0"/>
	<anchor name="top" x="622.571" y="1125.57"/>
</glyph>
<glyph name="uni0254" format="2">
	<unicode hex="0254"/>
	<advance width="1073"/>
	<outline>
		<contour>
			<point x="446.857" y="1145.71" type="curve" smooth="yes"/>
			<point x="280.286" y="1145.71"/>
			<point x="149" y="1110.43"/>
			<point x="60.2857" y="1062" type="curve"/>
			<point x="158.571" y="795" type="line"/>
			<point x="237.143" y="837.143"/>
			<point x="315.857" y="868.429"/>
			<point x="402.286" y="868.429" type="curve" smooth="yes"/>
			<point x="539.571" y="868.429"/>
			<point x="631" y="772.286"/>
			<point x="631" y="568.714" type="curve" smooth="yes"/>
			<point x="631" y="360.857"/>
			<point x="539.714" y="260.714"/>
			<point x="407.143" y="260.714" type="curve" smooth="yes"/>
			<point x="274" y="260.714"/>
			<point x="181.286" y="298.714"/>
			<point x="85.8571" y="366.857" type="curve"/>
			<point x="85.8571" y="71" type="line"/>
			<point x="185.571" y="5.42857"/>
			<point x="276.429" y="-20"/>
			<point x="434.857" y="-20" type="curve" smooth="yes"/>
			<point x="775.429" y="-20"/>
			<point x="985.143" y="174.857"/>
			<point x="985.143" y="569" type="curve" smooth="yes"/>
			<point x="985.143" y="974.429"/>
			<point x="779.714" y="1145.71"/>
		</contour>
	</outline>
	<anchor name="bottom" x="466.143" y="0"/>
	<anchor name="top" x="466.143" y="1125.57"/>
</glyph>
<glyph name="uni0256" format="2">
	<unicode hex="0256"/>
	<advance width="1311"/>
	<outline>
		<contour>
			<point x="1166.86" y="-491" type="curve" smooth="yes"/>
			<point x="1249.43" y="-491"/>
			<point x="1325" y="-469.857"/>
			<point x="1370.71" y="-453" type="curve"/>
			<point x="1370.71" y="-196.286" type="line"/>
			<point x="1331.86" y="-208"/>
			<point x="1300.29" y="-214.571"/>
			<point x="1255.57" y="-214.571" type="curve" smooth="yes"/>
			<point x="1192.86" y="-214.571"/>
			<point x="1157.14" y="-175"/>
			<point x="1157.14" y="-95.1429" type="curve" smooth="yes"/>
			<point x="1157.14" y="1556" type="line"/>
			<point x="810" y="1556" type="line"/>
			<point x="810" y="1215.71" type="line" smooth="yes"/>
			<point x="810" y="1126.29"/>
			<point x="817.714" y="1043.14"/>
			<point x="825.143" y="970" type="curve"/>
			<point x="814.286" y="970" type="line"/>
			<point x="766.714" y="1055.57"/>
			<point x="683.429" y="1145.71"/>
			<point x="507" y="1145.71" type="curve" smooth="yes"/>
			<point x="263.571" y="1145.71"/>
			<point x="90.4286" y="947.286"/>
			<point x="90.4286" y="563.429" type="curve" smooth="yes"/>
			<point x="90.4286" y="180.286"/>
			<point x="257.429" y="-20"/>
			<point x="493" y="-20" type="curve" smooth="yes"/>
			<point x="667.429" y="-20"/>
			<point x="759.857" y="64"/>
			<point x="808.286" y="151.429" type="curve"/>
			<point x="820" y="151.429" type="line"/>
			<point x="814.571" y="92.8571"/>
			<point x="808.286" y="12"/>
			<point x="808.286" y="-67.7143" type="curve" smooth="yes"/>
			<point x="808.286" y="-117.857" type="line" smooth="yes"/>
			<point x="808.286" y="-340.143"/>
			<point x="897.286" y="-491"/>
		</contour>
		<contour>
			<point x="637" y="252.143" type="curve" smooth="yes"/>
			<point x="515.571" y="252.143"/>
			<point x="436.857" y="345.571"/>
			<point x="436.857" y="558.286" type="curve" smooth="yes"/>
			<point x="436.857" y="756.571"/>
			<point x="511.429" y="866.714"/>
			<point x="641.571" y="866.714" type="curve" smooth="yes"/>
			<point x="780.429" y="866.714"/>
			<point x="838" y="770.429"/>
			<point x="838" y="569" type="curve" smooth="yes"/>
			<point x="838" y="537.286" type="line" smooth="yes"/>
			<point x="838" y="347.571"/>
			<point x="771.286" y="252.143"/>
		</contour>
	</outline>
	<anchor name="bottom" x="656.286" y="-491"/>
	<anchor name="top" x="656.286" y="1556"/>
	<anchor name="topright" x="1223.29" y="1556"/>
</glyph>
<glyph name="uni0259" format="2">
	<unicode hex="0259"/>
	<advance width="1243"/>
	<outline>
		<contour>
			<point x="572" y="1145.71" type="curve" smooth="yes"/>
			<point x="384.429" y="1145.71"/>
			<point x="268.286" y="1111"/>
			<point x="160.857" y="1064" type="curve"/>
			<point x="160.857" y="815.286" type="line"/>
			<point x="286.143" y="874.857"/>
			<point x="391.286" y="899.286"/>
			<point x="531.714" y="899.286" type="curve" smooth="yes"/>
			<point x="708" y="899.286"/>
			<point x="800.286" y="801.714"/>
			<point x="804.857" y="652.714" type="curve"/>
			<point x="91.5714" y="652.714" type="line"/>
			<point x="91.5714" y="496.143" type="line" smooth="yes"/>
			<point x="91.5714" y="159"/>
			<point x="284" y="-20"/>
			<point x="606.286" y="-20" type="curve" smooth="yes"/>
			<point x="936.857" y="-20"/>
			<point x="1152.14" y="177.429"/>
			<point x="1152.14" y="569.857" type="curve" smooth="yes"/>
			<point x="1152.14" y="961.429"/>
			<point x="913.714" y="1145.71"/>
		</contour>
		<contour>
			<point x="797.714" y="434.429" type="line"/>
			<point x="785.571" y="284.857"/>
			<point x="705.143" y="215.286"/>
			<point x="593.429" y="215.286" type="curve" smooth="yes"/>
			<point x="469.857" y="215.286"/>
			<point x="404.286" y="310.143"/>
			<point x="402.857" y="434.429" type="curve"/>
		</contour>
	</outline>
	<anchor name="bottom" x="621.571" y="0"/>
	<anchor name="top" x="611.286" y="1125.57"/>
</glyph>
<glyph name="eopenreversed" format="2">
	<unicode hex="025C"/>
	<advance width="1080"/>
	<outline>
		<contour>
			<point x="488.857" y="1145.71" type="curve" smooth="yes"/>
			<point x="324" y="1145.71"/>
			<point x="203.429" y="1115.86"/>
			<point x="74.5714" y="1060.57" type="curve"/>
			<point x="171.857" y="827.286" type="line"/>
			<point x="275" y="874"/>
			<point x="364.714" y="899.286"/>
			<point x="474.286" y="899.286" type="curve" smooth="yes"/>
			<point x="590.571" y="899.286"/>
			<point x="640.571" y="863.857"/>
			<point x="640.571" y="803" type="curve" smooth="yes"/>
			<point x="640.571" y="731.714"/>
			<point x="575.571" y="698.857"/>
			<point x="411.571" y="698.857" type="curve" smooth="yes"/>
			<point x="285.429" y="698.857" type="line"/>
			<point x="285.429" y="473.857" type="line"/>
			<point x="432.143" y="473.857" type="line" smooth="yes"/>
			<point x="624.286" y="473.857"/>
			<point x="667" y="436.143"/>
			<point x="667" y="358.714" type="curve" smooth="yes"/>
			<point x="667" y="301.571"/>
			<point x="627.143" y="235.857"/>
			<point x="450.143" y="235.857" type="curve" smooth="yes"/>
			<point x="287.714" y="235.857"/>
			<point x="162.286" y="274.429"/>
			<point x="70.7143" y="309.286" type="curve"/>
			<point x="70.7143" y="44.1429" type="line"/>
			<point x="175" y="6.85714"/>
			<point x="271.714" y="-20"/>
			<point x="469" y="-20" type="curve" smooth="yes"/>
			<point x="838" y="-20"/>
			<point x="1010.86" y="100.857"/>
			<point x="1010.86" y="319.857" type="curve" smooth="yes"/>
			<point x="1010.86" y="450.571"/>
			<point x="940.714" y="560.714"/>
			<point x="763" y="586.857" type="curve"/>
			<point x="763" y="596" type="line"/>
			<point x="885.143" y="629.143"/>
			<point x="964.714" y="720.714"/>
			<point x="964.714" y="843.286" type="curve" smooth="yes"/>
			<point x="964.714" y="1059.29"/>
			<point x="756.857" y="1145.71"/>
		</contour>
	</outline>
	<anchor name="bottom" x="540.286" y="0"/>
	<anchor name="top" x="540.286" y="1125.57"/>
</glyph>
<glyph name="uni025E" format="2">
	<unicode hex="025E"/>
	<advance width="1303"/>
	<outline>
		<contour>
			<point x="704.286" y="1145.71" type="curve" smooth="yes"/>
			<point x="336.429" y="1145.71"/>
			<point x="85.8571" y="942"/>
			<point x="85.8571" y="563.429" type="curve" smooth="yes"/>
			<point x="85.8571" y="151.857"/>
			<point x="338.571" y="-20"/>
			<point x="677.857" y="-20" type="curve" smooth="yes"/>
			<point x="1026.29" y="-20"/>
			<point x="1231.57" y="107.286"/>
			<point x="1231.57" y="331.286" type="curve" smooth="yes"/>
			<point x="1231.57" y="498.429"/>
			<point x="1099.86" y="561"/>
			<point x="972.714" y="579.714" type="curve"/>
			<point x="972.714" y="587.143" type="line"/>
			<point x="1104.29" y="612"/>
			<point x="1203.14" y="688.714"/>
			<point x="1203.14" y="833" type="curve" smooth="yes"/>
			<point x="1203.14" y="1047"/>
			<point x="1010.14" y="1145.71"/>
		</contour>
		<contour>
			<point x="730.857" y="892.429" type="curve" smooth="yes"/>
			<point x="843.143" y="892.429"/>
			<point x="897" y="848.143"/>
			<point x="897" y="783.286" type="curve" smooth="yes"/>
			<point x="897" y="703.714"/>
			<point x="821.143" y="680.857"/>
			<point x="711.857" y="680.857" type="curve" smooth="yes"/>
			<point x="614.429" y="680.857" type="line"/>
			<point x="614.429" y="463.571" type="line"/>
			<point x="717" y="463.571" type="line" smooth="yes"/>
			<point x="822.571" y="463.571"/>
			<point x="895.429" y="439.286"/>
			<point x="895.429" y="363" type="curve" smooth="yes"/>
			<point x="895.429" y="299.429"/>
			<point x="842.714" y="245.286"/>
			<point x="703.286" y="245.286" type="curve" smooth="yes"/>
			<point x="533.571" y="245.286"/>
			<point x="435.714" y="339"/>
			<point x="435.714" y="563.429" type="curve" smooth="yes"/>
			<point x="435.714" y="778.286"/>
			<point x="530.143" y="892.429"/>
		</contour>
	</outline>
	<anchor name="bottom" x="652.714" y="0"/>
	<anchor name="top" x="652.714" y="1125.57"/>
</glyph>
<glyph name="uni0262" format="2">
	<unicode hex="0262"/>
	<advance width="1238"/>
	<outline>
		<contour>
			<point x="704.571" y="1144.57" type="curve" smooth="yes"/>
			<point x="285.714" y="1144.57"/>
			<point x="86.8571" y="884.571"/>
			<point x="86.8571" y="563.571" type="curve" smooth="yes"/>
			<point x="86.8571" y="208.143"/>
			<point x="279.857" y="-22"/>
			<point x="694.857" y="-22" type="curve" smooth="yes"/>
			<point x="878.429" y="-22"/>
			<point x="1027.86" y="30"/>
			<point x="1123.43" y="73" type="curve"/>
			<point x="1123.43" y="648.286" type="line"/>
			<point x="601.571" y="648.286" type="line"/>
			<point x="601.571" y="421.571" type="line"/>
			<point x="789.286" y="421.571" type="line"/>
			<point x="789.286" y="272.286" type="line"/>
			<point x="747.286" y="261.571"/>
			<point x="724.143" y="256.143"/>
			<point x="681.143" y="256.143" type="curve" smooth="yes"/>
			<point x="510.857" y="256.143"/>
			<point x="440.286" y="376.429"/>
			<point x="440.286" y="563.857" type="curve" smooth="yes"/>
			<point x="440.286" y="780.857"/>
			<point x="574.143" y="867.286"/>
			<point x="724.286" y="867.286" type="curve" smooth="yes"/>
			<point x="836.714" y="867.286"/>
			<point x="919.286" y="834.857"/>
			<point x="1001.86" y="788.143" type="curve"/>
			<point x="1104.29" y="1052" type="line"/>
			<point x="960.286" y="1125"/>
			<point x="841.571" y="1144.57"/>
		</contour>
	</outline>
	<anchor name="bottom" x="619.714" y="0"/>
	<anchor name="top" x="619.714" y="1125.57"/>
	<anchor name="topright" x="1142.71" y="1125.57"/>
</glyph>
<glyph name="uni0266" format="2">
	<unicode hex="0266"/>
	<advance width="1344"/>
	<outline>
		<contour>
			<point x="142" y="0" type="line"/>
			<point x="484.857" y="0" type="line"/>
			<point x="484.857" y="474.857" type="line" smooth="yes"/>
			<point x="484.857" y="708.143"/>
			<point x="546.143" y="835"/>
			<point x="701.571" y="835" type="curve" smooth="yes"/>
			<point x="808.714" y="835"/>
			<point x="862.286" y="753.143"/>
			<point x="862.286" y="590.429" type="curve" smooth="yes"/>
			<point x="862.286" y="0" type="line"/>
			<point x="1206.71" y="0" type="line"/>
			<point x="1206.71" y="692.714" type="line" smooth="yes"/>
			<point x="1206.71" y="982.143"/>
			<point x="1034.86" y="1105.43"/>
			<point x="810.429" y="1105.43" type="curve" smooth="yes"/>
			<point x="661.857" y="1105.43"/>
			<point x="556.143" y="1051.57"/>
			<point x="486.571" y="932.857" type="curve"/>
			<point x="470.429" y="932.857" type="line"/>
			<point x="477.714" y="967.857"/>
			<point x="484.857" y="1010.57"/>
			<point x="484.857" y="1089.71" type="curve" smooth="yes"/>
			<point x="484.857" y="1198.71" type="line" smooth="yes"/>
			<point x="484.857" y="1272.57"/>
			<point x="531" y="1311.57"/>
			<point x="594.429" y="1311.57" type="curve" smooth="yes"/>
			<point x="645.714" y="1311.57"/>
			<point x="678.429" y="1302.43"/>
			<point x="698" y="1294.71" type="curve"/>
			<point x="698" y="1537.14" type="line"/>
			<point x="668.571" y="1550.86"/>
			<point x="598.429" y="1563.29"/>
			<point x="519" y="1563.29" type="curve" smooth="yes"/>
			<point x="293.286" y="1563.29"/>
			<point x="142" y="1458.43"/>
			<point x="142" y="1192.14" type="curve" smooth="yes"/>
		</contour>
	</outline>
	<anchor name="bottom" x="672" y="0"/>
	<anchor name="top" x="672" y="1563.29"/>
</glyph>
<glyph name="uni0268" format="2">
	<unicode hex="0268"/>
	<advance width="631"/>
	<outline>
		<contour>
			<point x="637" y="677.714" type="line"/>
			<point x="-5.71429" y="677.714" type="line"/>
			<point x="-5.71429" y="457.857" type="line"/>
			<point x="637" y="457.857" type="line"/>
		</contour>
		<contour>
			<point x="486.571" y="1125.57" type="line"/>
			<point x="143.714" y="1125.57" type="line"/>
			<point x="143.714" y="0" type="line"/>
			<point x="486.571" y="0" type="line"/>
		</contour>
		<contour>
			<point x="316.429" y="1573" type="curve" smooth="yes"/>
			<point x="212" y="1573"/>
			<point x="131.714" y="1538.57"/>
			<point x="131.714" y="1414.71" type="curve" smooth="yes"/>
			<point x="131.714" y="1294"/>
			<point x="212" y="1258.29"/>
			<point x="316.429" y="1258.29" type="curve" smooth="yes"/>
			<point x="419.429" y="1258.29"/>
			<point x="503.429" y="1294"/>
			<point x="503.429" y="1414.71" type="curve" smooth="yes"/>
			<point x="503.429" y="1538.57"/>
			<point x="419.429" y="1573"/>
		</contour>
	</outline>
	<anchor name="bottom" x="321.857" y="0"/>
	<anchor name="top" x="316.714" y="1573"/>
</glyph>
<glyph name="uni026B" format="2">
	<unicode hex="026B"/>
	<advance width="989"/>
	<outline>
		<contour>
			<point x="319.714" y="0" type="line"/>
			<point x="669.429" y="0" type="line"/>
			<point x="669.429" y="604.286" type="line"/>
			<point x="677.429" y="600.714"/>
			<point x="687" y="598.143"/>
			<point x="699.143" y="598.143" type="curve" smooth="yes"/>
			<point x="846.714" y="598.143"/>
			<point x="959.286" y="709.143"/>
			<point x="960.714" y="920.143" type="curve"/>
			<point x="797.429" y="920.143" type="line"/>
			<point x="785.286" y="850.857"/>
			<point x="756.857" y="820.286"/>
			<point x="709.714" y="820.286" type="curve" smooth="yes"/>
			<point x="694.429" y="820.286"/>
			<point x="680.571" y="824.286"/>
			<point x="669.429" y="828.714" type="curve"/>
			<point x="669.429" y="1556" type="line"/>
			<point x="319.714" y="1556" type="line"/>
			<point x="319.714" y="907.143" type="line"/>
			<point x="309.714" y="911"/>
			<point x="299" y="914.143"/>
			<point x="286.429" y="914.143" type="curve" smooth="yes"/>
			<point x="137.857" y="914.143"/>
			<point x="31.2857" y="810.571"/>
			<point x="28.1429" y="596.714" type="curve"/>
			<point x="194" y="596.714" type="line"/>
			<point x="201" y="657.857"/>
			<point x="233.429" y="690.286"/>
			<point x="279.857" y="690.286" type="curve" smooth="yes"/>
			<point x="295.286" y="690.286"/>
			<point x="305.571" y="685.857"/>
			<point x="319.714" y="681.286" type="curve"/>
		</contour>
	</outline>
	<anchor name="bottom" x="495.857" y="0"/>
	<anchor name="top" x="495.857" y="1556"/>
</glyph>
<glyph name="uni026F" format="2">
	<unicode hex="026F"/>
	<advance width="2005"/>
	<outline>
		<contour>
			<point x="524" y="-20.1429" type="curve" smooth="yes"/>
			<point x="673.429" y="-20.1429"/>
			<point x="790.143" y="41.5714"/>
			<point x="859.143" y="147.143" type="curve"/>
			<point x="870" y="147.143" type="line"/>
			<point x="933.571" y="41.5714"/>
			<point x="1038.86" y="-20.1429"/>
			<point x="1202.43" y="-20.1429" type="curve" smooth="yes"/>
			<point x="1376.29" y="-20.1429"/>
			<point x="1486.86" y="54.8571"/>
			<point x="1543.57" y="148" type="curve"/>
			<point x="1553.57" y="148" type="line"/>
			<point x="1603.71" y="0" type="line"/>
			<point x="1862.71" y="0" type="line"/>
			<point x="1862.71" y="1125.57" type="line"/>
			<point x="1519.86" y="1125.57" type="line"/>
			<point x="1519.86" y="605.286" type="line" smooth="yes"/>
			<point x="1519.86" y="373.286"/>
			<point x="1465.43" y="250.286"/>
			<point x="1322.43" y="250.286" type="curve" smooth="yes"/>
			<point x="1225.71" y="250.286"/>
			<point x="1172.14" y="320.429"/>
			<point x="1172.14" y="492.286" type="curve" smooth="yes"/>
			<point x="1172.14" y="1125.57" type="line"/>
			<point x="828.571" y="1125.57" type="line"/>
			<point x="828.571" y="577.857" type="line" smooth="yes"/>
			<point x="828.571" y="364.714"/>
			<point x="772.571" y="250.286"/>
			<point x="634.571" y="250.286" type="curve" smooth="yes"/>
			<point x="536" y="250.286"/>
			<point x="479" y="313.571"/>
			<point x="479" y="492.286" type="curve" smooth="yes"/>
			<point x="479" y="1125.57" type="line"/>
			<point x="136.286" y="1125.57" type="line"/>
			<point x="136.286" y="388.286" type="line" smooth="yes"/>
			<point x="136.286" y="103.429"/>
			<point x="276.429" y="-20.1429"/>
		</contour>
	</outline>
	<anchor name="bottom" x="1002.29" y="0"/>
	<anchor name="top" x="1002.29" y="1125.57"/>
</glyph>
<glyph name="uni0270" format="2">
	<unicode hex="0270"/>
	<advance width="2052"/>
	<outline>
		<contour>
			<point x="1547.29" y="-492" type="line"/>
			<point x="1896.14" y="-492" type="line"/>
			<point x="1896.14" y="1125.57" type="line"/>
			<point x="1547.29" y="1125.57" type="line"/>
			<point x="1547.29" y="607.143" type="line" smooth="yes"/>
			<point x="1547.29" y="385.286"/>
			<point x="1497.14" y="255.571"/>
			<point x="1346.43" y="255.571" type="curve" smooth="yes"/>
			<point x="1248" y="255.571"/>
			<point x="1196.14" y="334.143"/>
			<point x="1196.14" y="494.857" type="curve" smooth="yes"/>
			<point x="1196.14" y="1125.57" type="line"/>
			<point x="848.286" y="1125.57" type="line"/>
			<point x="848.286" y="577.143" type="line" smooth="yes"/>
			<point x="848.286" y="373.286"/>
			<point x="792.286" y="255.571"/>
			<point x="647.286" y="255.571" type="curve" smooth="yes"/>
			<point x="550.571" y="255.571"/>
			<point x="498.714" y="334.143"/>
			<point x="498.714" y="482.857" type="curve" smooth="yes"/>
			<point x="498.714" y="1125.57" type="line"/>
			<point x="148.286" y="1125.57" type="line"/>
			<point x="148.286" y="387.429" type="line" smooth="yes"/>
			<point x="148.286" y="100.857"/>
			<point x="285.857" y="-20"/>
			<point x="536.714" y="-20" type="curve" smooth="yes"/>
			<point x="664.857" y="-20"/>
			<point x="800.429" y="23.8571"/>
			<point x="863.714" y="141" type="curve"/>
			<point x="896" y="141" type="line"/>
			<point x="960.714" y="29.2857"/>
			<point x="1076.57" y="-20"/>
			<point x="1234.14" y="-20" type="curve" smooth="yes"/>
			<point x="1372.86" y="-20"/>
			<point x="1476.29" y="37.7143"/>
			<point x="1546.71" y="151.429" type="curve"/>
			<point x="1561.86" y="151.429" type="line"/>
			<point x="1556.71" y="109.857"/>
			<point x="1547.29" y="24.5714"/>
			<point x="1547.29" y="-25.7143" type="curve" smooth="yes"/>
		</contour>
	</outline>
	<anchor name="bottom" x="1027.14" y="-492"/>
	<anchor name="top" x="1027.14" y="1125.57"/>
</glyph>
<glyph name="omegaclosed" format="2">
	<unicode hex="0277"/>
	<advance width="1702"/>
	<outline>
		<contour>
			<point x="854.714" y="1140.57" type="curve" smooth="yes"/>
			<point x="374.286" y="1140.57"/>
			<point x="83.8571" y="880.429"/>
			<point x="83.8571" y="486.714" type="curve" smooth="yes"/>
			<point x="83.8571" y="169.429"/>
			<point x="246.286" y="-20"/>
			<point x="512.714" y="-20" type="curve" smooth="yes"/>
			<point x="707.714" y="-20"/>
			<point x="800.571" y="75.5714"/>
			<point x="843.286" y="189.714" type="curve"/>
			<point x="855" y="189.714" type="line"/>
			<point x="892" y="82.4286"/>
			<point x="981.714" y="-20"/>
			<point x="1179.29" y="-20" type="curve" smooth="yes"/>
			<point x="1466.43" y="-20"/>
			<point x="1614.71" y="181.143"/>
			<point x="1614.71" y="486.714" type="curve" smooth="yes"/>
			<point x="1614.71" y="873.571"/>
			<point x="1354.86" y="1140.57"/>
		</contour>
		<contour>
			<point x="847" y="858.714" type="curve" smooth="yes"/>
			<point x="1167.57" y="858.714"/>
			<point x="1290.57" y="692.286"/>
			<point x="1290.57" y="481.571" type="curve" smooth="yes"/>
			<point x="1290.57" y="339.857"/>
			<point x="1239.14" y="250.429"/>
			<point x="1138.71" y="250.429" type="curve" smooth="yes"/>
			<point x="1027" y="250.429"/>
			<point x="1004.57" y="328.714"/>
			<point x="1004.57" y="441.714" type="curve" smooth="yes"/>
			<point x="1004.57" y="666.286" type="line"/>
			<point x="694.286" y="666.286" type="line"/>
			<point x="694.286" y="448.571" type="line" smooth="yes"/>
			<point x="694.286" y="328.714"/>
			<point x="667.143" y="250.429"/>
			<point x="553.857" y="250.429" type="curve" smooth="yes"/>
			<point x="458.286" y="250.429"/>
			<point x="407.143" y="337.143"/>
			<point x="407.143" y="486.714" type="curve" smooth="yes"/>
			<point x="407.143" y="694.429"/>
			<point x="524.714" y="858.714"/>
		</contour>
	</outline>
	<anchor name="bottom" x="850.714" y="0"/>
	<anchor name="top" x="850.714" y="1125.57"/>
</glyph>
<glyph name="uni027E" format="2">
	<unicode hex="027E"/>
	<advance width="845"/>
	<outline>
		<contour>
			<point x="545.857" y="1150.86" type="curve" smooth="yes"/>
			<point x="288.429" y="1150.86"/>
			<point x="148.857" y="1015.29"/>
			<point x="148.857" y="727.714" type="curve" smooth="yes"/>
			<point x="148.857" y="0" type="line"/>
			<point x="499.286" y="0" type="line"/>
			<point x="499.286" y="707.571" type="line" smooth="yes"/>
			<point x="499.286" y="781.429"/>
			<point x="528.143" y="853.857"/>
			<point x="637.857" y="853.857" type="curve" smooth="yes"/>
			<point x="687.286" y="853.857"/>
			<point x="719.429" y="848"/>
			<point x="759.571" y="836.857" type="curve"/>
			<point x="799.571" y="1117.86" type="line"/>
			<point x="720.429" y="1139.29"/>
			<point x="652.429" y="1150.86"/>
		</contour>
	</outline>
	<anchor name="bottom" x="423.429" y="0"/>
	<anchor name="top" x="423.429" y="1125.57"/>
</glyph>
<glyph name="uni0282" format="2">
	<unicode hex="0282"/>
	<advance width="1070"/>
	<outline>
		<contour>
			<point x="986" y="337.429" type="curve" smooth="yes"/>
			<point x="986" y="537.571"/>
			<point x="878.143" y="614.571"/>
			<point x="684.429" y="691.429" type="curve"/>
			<point x="498.714" y="763.286"/>
			<point x="446" y="780"/>
			<point x="446" y="840.857" type="curve" smooth="yes"/>
			<point x="446" y="887.286"/>
			<point x="492.429" y="912.143"/>
			<point x="573.571" y="912.143" type="curve" smooth="yes"/>
			<point x="646.571" y="912.143"/>
			<point x="772.714" y="880.286"/>
			<point x="880.429" y="831.286" type="curve"/>
			<point x="974.429" y="1054.57" type="line"/>
			<point x="841.286" y="1113.57"/>
			<point x="718" y="1145.71"/>
			<point x="571.857" y="1145.71" type="curve" smooth="yes"/>
			<point x="298.286" y="1145.71"/>
			<point x="118.429" y="1034.43"/>
			<point x="118.429" y="821.143" type="curve" smooth="yes"/>
			<point x="118.429" y="633"/>
			<point x="219.143" y="552"/>
			<point x="407.571" y="477" type="curve" smooth="yes"/>
			<point x="597" y="402.429"/>
			<point x="661.714" y="380"/>
			<point x="661.714" y="315.143" type="curve" smooth="yes"/>
			<point x="661.714" y="260.143"/>
			<point x="613.714" y="230.714"/>
			<point x="502.857" y="230.714" type="curve" smooth="yes"/>
			<point x="411" y="230.714"/>
			<point x="253.143" y="257.571"/>
			<point x="115.143" y="321" type="curve"/>
			<point x="115.143" y="-154" type="line" smooth="yes"/>
			<point x="115.143" y="-365.143"/>
			<point x="197.714" y="-492"/>
			<point x="405.286" y="-492" type="curve" smooth="yes"/>
			<point x="474.857" y="-492"/>
			<point x="537.571" y="-479.286"/>
			<point x="580.286" y="-462.429" type="curve"/>
			<point x="580.286" y="-225.429" type="line"/>
			<point x="545.857" y="-237.429"/>
			<point x="521.143" y="-243.714"/>
			<point x="488.143" y="-243.714" type="curve" smooth="yes"/>
			<point x="453.714" y="-243.714"/>
			<point x="399.571" y="-247"/>
			<point x="399.571" y="-156.571" type="curve" smooth="yes"/>
			<point x="399.571" y="-9.57143" type="line"/>
			<point x="433.857" y="-15.1429"/>
			<point x="468.714" y="-20"/>
			<point x="516.571" y="-20" type="curve" smooth="yes"/>
			<point x="850.143" y="-20"/>
			<point x="986" y="127.143"/>
		</contour>
	</outline>
	<anchor name="bottom" x="535.857" y="-492"/>
	<anchor name="top" x="535.857" y="1125.57"/>
</glyph>
<glyph name="uni0283" format="2">
	<unicode hex="0283"/>
	<advance width="659"/>
	<outline>
		<contour>
			<point x="528" y="1575" type="curve" smooth="yes"/>
			<point x="281.714" y="1575"/>
			<point x="156.571" y="1468"/>
			<point x="156.571" y="1211.14" type="curve" smooth="yes"/>
			<point x="156.571" y="-112.857" type="line" smooth="yes"/>
			<point x="156.571" y="-173.429"/>
			<point x="118.143" y="-215.429"/>
			<point x="56" y="-215.429" type="curve" smooth="yes"/>
			<point x="11.7143" y="-215.429"/>
			<point x="-14.8571" y="-207.429"/>
			<point x="-55" y="-195.429" type="curve"/>
			<point x="-55" y="-457.571" type="line"/>
			<point x="-8.71429" y="-483.286"/>
			<point x="65.1429" y="-492"/>
			<point x="134.857" y="-492" type="curve" smooth="yes"/>
			<point x="417.857" y="-492"/>
			<point x="504.429" y="-315.857"/>
			<point x="504.429" y="-112.143" type="curve" smooth="yes"/>
			<point x="504.429" y="1196.57" type="line" smooth="yes"/>
			<point x="504.429" y="1260.29"/>
			<point x="546.143" y="1299.29"/>
			<point x="603.143" y="1299.29" type="curve" smooth="yes"/>
			<point x="655.286" y="1299.29"/>
			<point x="699.286" y="1285.86"/>
			<point x="718.571" y="1278.43" type="curve"/>
			<point x="718.571" y="1540.29" type="line"/>
			<point x="691" y="1553"/>
			<point x="616.429" y="1575"/>
		</contour>
	</outline>
	<anchor name="bottom" x="329.571" y="-492"/>
	<anchor name="top" x="329.571" y="1575"/>
</glyph>
<glyph name="eshsquatreversed" format="2">
	<unicode hex="0285"/>
	<advance width="659"/>
	<outline>
		<contour>
			<point x="520.429" y="-492" type="curve" smooth="yes"/>
			<point x="591" y="-492"/>
			<point x="664.714" y="-483.286"/>
			<point x="709.429" y="-457.571" type="curve"/>
			<point x="709.429" y="-195.429" type="line"/>
			<point x="671" y="-207.429"/>
			<point x="645.286" y="-215.429"/>
			<point x="601" y="-215.429" type="curve" smooth="yes"/>
			<point x="539.714" y="-215.429"/>
			<point x="501.286" y="-175.286"/>
			<point x="501.286" y="-114.714" type="curve" smooth="yes"/>
			<point x="501.286" y="772.571" type="line" smooth="yes"/>
			<point x="501.286" y="1030"/>
			<point x="377.286" y="1142.57"/>
			<point x="128.143" y="1142.57" type="curve" smooth="yes"/>
			<point x="36.8571" y="1142.57"/>
			<point x="-36.7143" y="1120.29"/>
			<point x="-63.2857" y="1107.43" type="curve"/>
			<point x="-63.2857" y="845.571" type="line"/>
			<point x="-45" y="853.286"/>
			<point x="-1.71429" y="868.714"/>
			<point x="51.8571" y="868.714" type="curve" smooth="yes"/>
			<point x="111.714" y="868.714"/>
			<point x="151.714" y="829.286"/>
			<point x="151.714" y="765" type="curve" smooth="yes"/>
			<point x="151.714" y="-119.286" type="line" smooth="yes"/>
			<point x="151.714" y="-325.286"/>
			<point x="240.857" y="-492"/>
		</contour>
	</outline>
	<anchor name="bottom" x="329.571" y="-492"/>
	<anchor name="top" x="329.571" y="1125.57"/>
</glyph>
<glyph name="eshcurl" format="2">
	<unicode hex="0286"/>
	<advance width="659"/>
	<outline>
		<contour>
			<point x="119.429" y="-492" type="curve" smooth="yes"/>
			<point x="360.571" y="-492"/>
			<point x="481.286" y="-360.714"/>
			<point x="502.714" y="-162.286" type="curve"/>
			<point x="641" y="-162.286" type="line"/>
			<point x="641" y="10.5714" type="line"/>
			<point x="504.429" y="10.5714" type="line"/>
			<point x="504.429" y="1193" type="line" smooth="yes"/>
			<point x="504.429" y="1259"/>
			<point x="547.857" y="1297"/>
			<point x="604.571" y="1297" type="curve" smooth="yes"/>
			<point x="659.571" y="1297"/>
			<point x="705.143" y="1283"/>
			<point x="725.571" y="1274.43" type="curve"/>
			<point x="725.571" y="1536.29" type="line"/>
			<point x="696.571" y="1550"/>
			<point x="620.429" y="1572.57"/>
			<point x="529.429" y="1572.57" type="curve" smooth="yes"/>
			<point x="282.571" y="1572.57"/>
			<point x="156.571" y="1467.14"/>
			<point x="156.571" y="1208.86" type="curve" smooth="yes"/>
			<point x="156.571" y="10.5714" type="line"/>
			<point x="117.857" y="10.5714" type="line" smooth="yes"/>
			<point x="-92.5714" y="10.5714"/>
			<point x="-182.571" y="-88.2857"/>
			<point x="-182.571" y="-235.571" type="curve" smooth="yes"/>
			<point x="-182.571" y="-370.286"/>
			<point x="-90.8571" y="-492"/>
		</contour>
		<contour>
			<point x="79.1429" y="-308.857" type="curve" smooth="yes"/>
			<point x="42.5714" y="-308.857"/>
			<point x="14.7143" y="-283.571"/>
			<point x="14.7143" y="-240.714" type="curve" smooth="yes"/>
			<point x="14.7143" y="-192.143"/>
			<point x="47.5714" y="-162.286"/>
			<point x="120.286" y="-162.286" type="curve" smooth="yes"/>
			<point x="156.571" y="-162.286" type="line"/>
			<point x="156.571" y="-210.714" type="line" smooth="yes"/>
			<point x="156.571" y="-272.143"/>
			<point x="131.571" y="-308.857"/>
		</contour>
	</outline>
	<anchor name="bottom" x="329.571" y="-492"/>
	<anchor name="top" x="329.571" y="1572.57"/>
</glyph>
<glyph name="uni028B" format="2">
	<unicode hex="028B"/>
	<advance width="1386"/>
	<outline>
		<contour>
			<point x="932" y="1142.86" type="curve" smooth="yes"/>
			<point x="858.143" y="1142.86"/>
			<point x="766.857" y="1131.71"/>
			<point x="713.714" y="1107.71" type="curve"/>
			<point x="713.714" y="845.857" type="line"/>
			<point x="752" y="858.714"/>
			<point x="777.571" y="869"/>
			<point x="829.429" y="869" type="curve" smooth="yes"/>
			<point x="889.571" y="869"/>
			<point x="923.714" y="821.857"/>
			<point x="923.714" y="763.714" type="curve" smooth="yes"/>
			<point x="923.714" y="520.571" type="line" smooth="yes"/>
			<point x="923.714" y="335.857"/>
			<point x="863.429" y="257.286"/>
			<point x="723.857" y="257.286" type="curve" smooth="yes"/>
			<point x="560.857" y="257.286"/>
			<point x="498.714" y="336.143"/>
			<point x="498.714" y="520.571" type="curve" smooth="yes"/>
			<point x="498.714" y="1125.57" type="line"/>
			<point x="148.286" y="1125.57" type="line"/>
			<point x="148.286" y="531.714" type="line" smooth="yes"/>
			<point x="148.286" y="239.429"/>
			<point x="251.857" y="-20"/>
			<point x="707.571" y="-20" type="curve" smooth="yes"/>
			<point x="1153.86" y="-20"/>
			<point x="1271.57" y="240.714"/>
			<point x="1271.57" y="531.714" type="curve" smooth="yes"/>
			<point x="1271.57" y="770.286" type="line" smooth="yes"/>
			<point x="1271.57" y="973.143"/>
			<point x="1191.43" y="1142.86"/>
		</contour>
	</outline>
	<anchor name="bottom" x="702.857" y="0"/>
	<anchor name="top" x="702.857" y="1125.57"/>
</glyph>
